SplineFontDB: 3.0
FontName: Untitled1
FullName: Untitled1
FamilyName: Untitled1
Weight: Regular
Copyright: Copyright (c) 2019, Jack
UComments: "2019-8-23: Created with FontForge (http://fontforge.org)"
Version: 001.000
ItalicAngle: 0
UnderlinePosition: -300
UnderlineWidth: 32
Ascent: 618
Descent: 382
InvalidEm: 0
LayerCount: 2
Layer: 0 0 "Back" 1
Layer: 1 0 "Fore" 0
XUID: [1021 647 -312734098 29385]
StyleMap: 0x0000
FSType: 0
OS2Version: 0
OS2_WeightWidthSlopeOnly: 0
OS2_UseTypoMetrics: 1
CreationTime: 1566577596
ModificationTime: 1567207106
OS2TypoAscent: 0
OS2TypoAOffset: 1
OS2TypoDescent: 0
OS2TypoDOffset: 1
OS2TypoLinegap: 90
OS2WinAscent: 0
OS2WinAOffset: 1
OS2WinDescent: 0
OS2WinDOffset: 1
HheadAscent: 0
HheadAOffset: 1
HheadDescent: 0
HheadDOffset: 1
Lookup: 6 0 0 "semivowels" { "semivowels contextual 0"  "semivowels contextual 1"  } ['liga' ('latn' <'dflt' > 'DFLT' <'dflt' > ) ]
Lookup: 1 0 0 "Single Substitution lookup 1" { "Single Substitution lookup 1 subtable"  } []
Lookup: 1 0 0 "Single Substitution lookup 2" { "Single Substitution lookup 2 subtable"  } []
Lookup: 4 0 1 "diphthongs" { "diphthongs subtable"  } ['liga' ('latn' <'dflt' > 'DFLT' <'dflt' > ) ]

StartChar: my
Encoding: 0 60256 0
Width: 738
VWidth: 2000
Flags: W
HStem: 25 50<145 593> 274 50<145 593> 523 50<145 593>
VStem: 95 50<75 274 324 523> 593 50<75 274 324 523>
CounterMasks: 1 e0
AnchorPoint: "Above" 369 0 basechar 0
LayerCount: 2
Back
SplineSet
120 548 m 5
 618 548 l 5
 618 50 l 5
 120 50 l 5
 120 548 l 5
120 299 m 5
 618 299 l 1029
EndSplineSet
Fore
SplineSet
593 274 m 1
 145 274 l 1
 145 75 l 1
 593 75 l 1
 593 274 l 1
593 324 m 1
 593 523 l 1
 145 523 l 1
 145 324 l 1
 593 324 l 1
120 573 m 2
 618 573 l 2
 633.132537856 573 643 558.729904333 643 548 c 2
 643 324 l 1
 643 299 l 1
 643 274 l 1
 643 50 l 2
 643 34.8674621445 628.729904333 25 618 25 c 2
 120 25 l 2
 104.867462144 25 95 39.2700956673 95 50 c 2
 95 274 l 1
 95 299 l 1
 95 324 l 1
 95 548 l 2
 95 563.132537856 109.270095667 573 120 573 c 2
EndSplineSet
Substitution2: "Single Substitution lookup 194 subtable" my.cvc.3
Substitution2: "Single Substitution lookup 190 subtable" my.cvc.1
Substitution2: "Single Substitution lookup 186 subtable" my.ccv.1
Substitution2: "Single Substitution lookup 170 subtable" my.ccv.2
Substitution2: "Single Substitution lookup 162 subtable" my.ccv.2
Substitution2: "Single Substitution lookup 157 subtable" my.ccv.2
Substitution2: "Single Substitution lookup 149 subtable" my.ccv.2
Substitution2: "Single Substitution lookup 128 subtable" my.cvc.3
Substitution2: "Single Substitution lookup 124 subtable" my.cvc.1
Substitution2: "Single Substitution lookup 120 subtable" my.ccv.1
Substitution2: "Single Substitution lookup 104 subtable" my.ccv.2
Substitution2: "Single Substitution lookup 96 subtable" my.ccv.2
Substitution2: "Single Substitution lookup 91 subtable" my.ccv.2
Substitution2: "Single Substitution lookup 83 subtable" my.ccv.2
Substitution2: "Single Substitution lookup 62 subtable" my.cvc.3
Substitution2: "Single Substitution lookup 58 subtable" my.cvc.1
Substitution2: "Single Substitution lookup 54 subtable" my.ccv.1
Substitution2: "Single Substitution lookup 38 subtable" my.ccv.2
Substitution2: "Single Substitution lookup 30 subtable" my.ccv.2
Substitution2: "Single Substitution lookup 25 subtable" my.ccv.2
Substitution2: "Single Substitution lookup 17 subtable" my.ccv.2
EndChar

StartChar: py
Encoding: 1 60257 1
Width: 738
VWidth: 2000
Flags: W
HStem: 25 50<145 643> 274 50<145 643> 523 50<145 643>
VStem: 95 50<75 274 324 523>
CounterMasks: 1 e0
AnchorPoint: "Above" 369 0 basechar 0
LayerCount: 2
Back
SplineSet
618 50 m 5
 120 50 l 5
 120 548 l 5
 618 548 l 1029
120 299 m 5
 618 299 l 1029
EndSplineSet
Fore
SplineSet
643 50 m 1
 643 25 l 1
 618 25 l 1
 120 25 l 2
 104.867462144 25 95 39.2700956673 95 50 c 2
 95 274 l 1
 95 299 l 1
 95 324 l 1
 95 548 l 2
 95 563.132537856 109.270095667 573 120 573 c 2
 618 573 l 1
 643 573 l 1
 643 548 l 1
 643 523 l 1
 618 523 l 1
 145 523 l 1
 145 324 l 1
 618 324 l 1
 643 324 l 1
 643 299 l 1
 643 274 l 1
 618 274 l 1
 145 274 l 1
 145 75 l 1
 618 75 l 1
 643 75 l 1
 643 50 l 1
EndSplineSet
Substitution2: "Single Substitution lookup 194 subtable" py.cvc.3
Substitution2: "Single Substitution lookup 190 subtable" py.cvc.1
Substitution2: "Single Substitution lookup 186 subtable" py.ccv.1
Substitution2: "Single Substitution lookup 158 subtable" py.ccv.2
Substitution2: "Single Substitution lookup 145 subtable" py.ccv.2
Substitution2: "Single Substitution lookup 128 subtable" py.cvc.3
Substitution2: "Single Substitution lookup 124 subtable" py.cvc.1
Substitution2: "Single Substitution lookup 120 subtable" py.ccv.1
Substitution2: "Single Substitution lookup 92 subtable" py.ccv.2
Substitution2: "Single Substitution lookup 79 subtable" py.ccv.2
Substitution2: "Single Substitution lookup 62 subtable" py.cvc.3
Substitution2: "Single Substitution lookup 58 subtable" py.cvc.1
Substitution2: "Single Substitution lookup 54 subtable" py.ccv.1
Substitution2: "Single Substitution lookup 26 subtable" py.ccv.2
Substitution2: "Single Substitution lookup 13 subtable" py.ccv.2
EndChar

StartChar: by
Encoding: 2 60258 2
Width: 738
VWidth: 2000
Flags: W
HStem: 25 50<95 593> 274 50<95 593> 523 50<95 593>
VStem: 593 50<75 274 324 523>
CounterMasks: 1 e0
AnchorPoint: "Above" 369 0 basechar 0
LayerCount: 2
Back
SplineSet
120 548 m 5
 618 548 l 5
 618 50 l 5
 120 50 l 1029
120 299 m 5
 618 299 l 1029
EndSplineSet
Fore
SplineSet
95 299 m 1
 95 324 l 1
 120 324 l 1
 593 324 l 1
 593 523 l 1
 120 523 l 1
 95 523 l 1
 95 548 l 1
 95 573 l 1
 120 573 l 1
 618 573 l 2
 633.132537856 573 643 558.729904333 643 548 c 2
 643 324 l 1
 643 299 l 1
 643 274 l 1
 643 50 l 2
 643 34.8674621445 628.729904333 25 618 25 c 2
 120 25 l 1
 95 25 l 1
 95 50 l 1
 95 75 l 1
 120 75 l 1
 593 75 l 1
 593 274 l 1
 120 274 l 1
 95 274 l 1
 95 299 l 1
EndSplineSet
Substitution2: "Single Substitution lookup 194 subtable" by.cvc.3
Substitution2: "Single Substitution lookup 190 subtable" by.cvc.1
Substitution2: "Single Substitution lookup 186 subtable" by.ccv.1
Substitution2: "Single Substitution lookup 166 subtable" by.ccv.2
Substitution2: "Single Substitution lookup 153 subtable" by.ccv.2
Substitution2: "Single Substitution lookup 128 subtable" by.cvc.3
Substitution2: "Single Substitution lookup 124 subtable" by.cvc.1
Substitution2: "Single Substitution lookup 120 subtable" by.ccv.1
Substitution2: "Single Substitution lookup 100 subtable" by.ccv.2
Substitution2: "Single Substitution lookup 87 subtable" by.ccv.2
Substitution2: "Single Substitution lookup 62 subtable" by.cvc.3
Substitution2: "Single Substitution lookup 58 subtable" by.cvc.1
Substitution2: "Single Substitution lookup 54 subtable" by.ccv.1
Substitution2: "Single Substitution lookup 34 subtable" by.ccv.2
Substitution2: "Single Substitution lookup 21 subtable" by.ccv.2
EndChar

StartChar: fy
Encoding: 3 60259 3
Width: 738
VWidth: 2000
Flags: W
HStem: 25.5 50<195 469.3> 274 50<195 489.819>
VStem: 145 50<75.5 274 324 573>
AnchorPoint: "Above" 369 0 basechar 0
LayerCount: 2
Back
SplineSet
171 299 m 5
 496 299 l 1029
170 548 m 5
 170 50.5 l 5
 491 50.5 l 5
 506.459960938 264.751953125 518.529296875 393.252929688 638 548 c 1029
EndSplineSet
Fore
SplineSet
195 274 m 1
 195 75.5 l 1
 467.755211002 75.5 l 1
 473.211460956 149.410870217 478.882186683 214.079791573 489.819076434 274 c 1
 195 274 l 1
170 573 m 1
 195 573 l 1
 195 548 l 1
 195 324 l 1
 496 324 l 1
 500.525795337 324 l 1
 521.058627497 406.482735629 555.338742116 481.840603941 618.211282686 563.277652538 c 2
 633.488935224 583.066369852 l 1
 653.277652538 567.788717314 l 1
 673.066369852 552.511064776 l 1
 657.788717314 532.722347462 l 2
 542.644402085 383.57912675 531.434250601 263.494844168 515.935168614 48.7007317687 c 0
 515.12916089 37.5306693114 504.811692304 25.5 491 25.5 c 2
 170 25.5 l 2
 159.270095667 25.5 145 35.3674621445 145 50.5 c 2
 145 548 l 1
 145 573 l 1
 170 573 l 1
EndSplineSet
Substitution2: "Single Substitution lookup 194 subtable" fy.cvc.3
Substitution2: "Single Substitution lookup 190 subtable" fy.cvc.1
Substitution2: "Single Substitution lookup 186 subtable" fy.ccv.1
Substitution2: "Single Substitution lookup 159 subtable" fy.ccv.2
Substitution2: "Single Substitution lookup 146 subtable" fy.ccv.2
Substitution2: "Single Substitution lookup 128 subtable" fy.cvc.3
Substitution2: "Single Substitution lookup 124 subtable" fy.cvc.1
Substitution2: "Single Substitution lookup 120 subtable" fy.ccv.1
Substitution2: "Single Substitution lookup 93 subtable" fy.ccv.2
Substitution2: "Single Substitution lookup 80 subtable" fy.ccv.2
Substitution2: "Single Substitution lookup 62 subtable" fy.cvc.3
Substitution2: "Single Substitution lookup 58 subtable" fy.cvc.1
Substitution2: "Single Substitution lookup 54 subtable" fy.ccv.1
Substitution2: "Single Substitution lookup 27 subtable" fy.ccv.2
Substitution2: "Single Substitution lookup 14 subtable" fy.ccv.2
EndChar

StartChar: vy
Encoding: 4 60260 4
Width: 738
VWidth: 2000
Flags: W
HStem: 274 50<289.465 593> 523 50<322.677 593>
VStem: 593 50<25 274 324 523>
AnchorPoint: "Above" 369 0 basechar 0
LayerCount: 2
Back
SplineSet
120 50 m 5
 209.129397456 161.979263507 264.978563222 230.369922452 303 548 c 5
 618 548 l 5
 618 50 l 1029
281 299 m 5
 618 299 l 1029
EndSplineSet
Fore
SplineSet
289.464664098 324 m 1
 593 324 l 1
 593 523 l 1
 325.107496852 523 l 1
 314.86276253 442.317581509 303.01783768 377.621112912 289.464664098 324 c 1
104.431029211 30.4396536693 m 1
 84.8706828805 46.008624458 l 1
 100.439653669 65.5689707888 l 2
 188.786641839 176.565240827 240.397554587 235.36113717 278.177209485 550.971375279 c 0
 279.742510978 564.047862565 291.885458189 573 303 573 c 2
 618 573 l 2
 633.132537856 573 643 558.729904333 643 548 c 2
 643 324 l 1
 643 299 l 1
 643 274 l 1
 643 50 l 1
 643 25 l 1
 618 25 l 1
 593 25 l 1
 593 50 l 1
 593 274 l 1
 281 274 l 1
 275.373014046 274 l 1
 240.435986621 162.785827213 195.648525192 104.898384984 139.560346331 34.4310292112 c 1
 140.560346331 34.4310292112 138.937587499 33.648615358 139.560346331 34.4310292112 c 1
 123.991375542 14.8706828805 l 1
 104.431029211 30.4396536693 l 1
EndSplineSet
Substitution2: "Single Substitution lookup 194 subtable" vy.cvc.3
Substitution2: "Single Substitution lookup 190 subtable" vy.cvc.1
Substitution2: "Single Substitution lookup 186 subtable" vy.ccv.1
Substitution2: "Single Substitution lookup 167 subtable" vy.ccv.2
Substitution2: "Single Substitution lookup 154 subtable" vy.ccv.2
Substitution2: "Single Substitution lookup 128 subtable" vy.cvc.3
Substitution2: "Single Substitution lookup 124 subtable" vy.cvc.1
Substitution2: "Single Substitution lookup 120 subtable" vy.ccv.1
Substitution2: "Single Substitution lookup 101 subtable" vy.ccv.2
Substitution2: "Single Substitution lookup 88 subtable" vy.ccv.2
Substitution2: "Single Substitution lookup 62 subtable" vy.cvc.3
Substitution2: "Single Substitution lookup 58 subtable" vy.cvc.1
Substitution2: "Single Substitution lookup 54 subtable" vy.ccv.1
Substitution2: "Single Substitution lookup 35 subtable" vy.ccv.2
Substitution2: "Single Substitution lookup 22 subtable" vy.ccv.2
EndChar

StartChar: ky
Encoding: 5 60261 5
Width: 738
VWidth: 2000
Flags: W
AnchorPoint: "Above" 369 0 basechar 0
LayerCount: 2
Back
SplineSet
618 548 m 5
 121 309 l 5
 618 50 l 1029
EndSplineSet
Fore
SplineSet
640.530289202 558.83448515 m 1
 651.364774352 536.304195947 l 1
 628.83448515 525.469710798 l 1
 176.819134368 308.102167866 l 1
 629.553477369 72.1701863025 l 1
 651.723663671 60.6167089336 l 1
 640.170186302 38.4465226311 l 1
 628.616708934 16.2763363286 l 1
 606.446522631 27.8298136975 l 1
 605.559715179 28.2919527923 606.446522631 26.8298136975 606.446522631 27.8298136975 c 1
 109.446522631 286.829813698 l 2
 106.645713587 288.289390242 101.78061938 292.319432306 99.3892027227 296.431251413 c 0
 92.1644829898 308.853486806 97.2147406452 325.30245211 110.16551485 331.530289202 c 2
 607.16551485 570.530289202 l 1
 629.695804053 581.364774352 l 1
 640.530289202 558.83448515 l 1
EndSplineSet
Substitution2: "Single Substitution lookup 194 subtable" ky.cvc.3
Substitution2: "Single Substitution lookup 190 subtable" ky.cvc.1
Substitution2: "Single Substitution lookup 186 subtable" ky.ccv.1
Substitution2: "Single Substitution lookup 161 subtable" ky.ccv.2
Substitution2: "Single Substitution lookup 148 subtable" ky.ccv.2
Substitution2: "Single Substitution lookup 128 subtable" ky.cvc.3
Substitution2: "Single Substitution lookup 124 subtable" ky.cvc.1
Substitution2: "Single Substitution lookup 120 subtable" ky.ccv.1
Substitution2: "Single Substitution lookup 95 subtable" ky.ccv.2
Substitution2: "Single Substitution lookup 82 subtable" ky.ccv.2
Substitution2: "Single Substitution lookup 62 subtable" ky.cvc.3
Substitution2: "Single Substitution lookup 58 subtable" ky.cvc.1
Substitution2: "Single Substitution lookup 54 subtable" ky.ccv.1
Substitution2: "Single Substitution lookup 29 subtable" ky.ccv.2
Substitution2: "Single Substitution lookup 16 subtable" ky.ccv.2
EndChar

StartChar: cy
Encoding: 6 60262 6
Width: 738
VWidth: 2000
Flags: W
HStem: 274 50<95 312.318 422.899 643>
VStem: 344 50<26 273.278>
AnchorPoint: "Above" 369 0 basechar 0
LayerCount: 2
Back
SplineSet
120 299 m 5
 618 299 l 1029
369 229 m 5
 369 51 l 1029
120 548 m 5
 171.616301192 526.198021882 366.275390625 368.009765625 369 229 c 5
 366.553710938 362.353515625 553.123453317 526.615656282 618 546 c 1029
EndSplineSet
Fore
SplineSet
96.9701087909 557.727492529 m 1
 106.69760132 580.757383738 l 1
 129.727492529 571.029891209 l 2
 178.819135204 550.294292286 310.474187599 445.563334398 367.802759044 327.934848812 c 1
 422.318555928 444.737805282 548.564389922 551.345539024 610.842938567 569.9536317 c 2
 634.796570267 577.110693134 l 1
 641.9536317 553.157061433 l 1
 649.110693134 529.203429733 l 1
 625.157061433 522.0463683 l 2
 584.305838867 509.840506859 475.30309358 417.769288629 422.899285141 324 c 1
 618 324 l 1
 643 324 l 1
 643 299 l 1
 643 274 l 1
 618 274 l 1
 400.935542203 274 l 1
 396.710756224 260.227246763 394.258841324 246.730302097 394 233.772460335 c 2
 394 229 l 1
 394 51 l 1
 394 26 l 1
 369 26 l 1
 344 26 l 1
 344 51 l 1
 344 228.743406217 l 2
 343.684029483 243.40493873 340.663681739 258.593884832 335.519494964 274 c 1
 120 274 l 1
 95 274 l 1
 95 299 l 1
 95 324 l 1
 120 324 l 1
 312.318019583 324 l 1
 256.68111219 419.526245968 144.163424062 510.65507643 110.272507471 524.970108791 c 2
 87.2426162622 534.69760132 l 1
 96.9701087909 557.727492529 l 1
EndSplineSet
Substitution2: "Single Substitution lookup 194 subtable" cy.cvc.3
Substitution2: "Single Substitution lookup 190 subtable" cy.cvc.1
Substitution2: "Single Substitution lookup 186 subtable" cy.ccv.1
Substitution2: "Single Substitution lookup 171 subtable" cy.ccv.2
Substitution2: "Single Substitution lookup 128 subtable" cy.cvc.3
Substitution2: "Single Substitution lookup 124 subtable" cy.cvc.1
Substitution2: "Single Substitution lookup 120 subtable" cy.ccv.1
Substitution2: "Single Substitution lookup 105 subtable" cy.ccv.2
Substitution2: "Single Substitution lookup 62 subtable" cy.cvc.3
Substitution2: "Single Substitution lookup 58 subtable" cy.cvc.1
Substitution2: "Single Substitution lookup 54 subtable" cy.ccv.1
Substitution2: "Single Substitution lookup 39 subtable" cy.ccv.2
EndChar

StartChar: xy
Encoding: 7 60263 7
Width: 738
VWidth: 2000
Flags: W
HStem: 518.907 48.186<571.128 633.545>
VStem: 344 50<25 330.202>
AnchorPoint: "Above" 369 0 basechar 0
LayerCount: 2
Back
SplineSet
369 234 m 5
 369 50 l 1029
120 545 m 5
 196.69921875 516.63671875 364.952148438 414.848632812 369 234 c 5
 365.561523438 407.75 524.807617188 517.743164062 616 543 c 1029
EndSplineSet
Fore
SplineSet
96.5519191425 553.671072835 m 1
 105.222991977 577.119153692 l 1
 128.671072835 568.448080857 l 2
 192.435889321 544.867926414 312.926124089 475.381578563 367.063403544 354.337559244 c 1
 416.878751636 473.418989032 532.866068387 545.916185313 609.327149198 567.093008575 c 2
 633.420157772 573.765859377 l 1
 640.093008575 549.672850802 l 1
 646.765859377 525.579842228 l 1
 622.672850802 518.906991425 l 2
 539.964702942 495.999967212 397.158496134 395.929868721 394 244.496847792 c 2
 394 234 l 1
 394 50 l 1
 394 25 l 1
 369 25 l 1
 344 25 l 1
 344 50 l 1
 344 233.713904546 l 2
 340.158519198 397.7226575 184.346083725 494.550260178 111.328927165 521.551919143 c 2
 87.880846308 530.222991977 l 1
 96.5519191425 553.671072835 l 1
EndSplineSet
Substitution2: "Single Substitution lookup 194 subtable" xy.cvc.3
Substitution2: "Single Substitution lookup 190 subtable" xy.cvc.1
Substitution2: "Single Substitution lookup 186 subtable" xy.ccv.1
Substitution2: "Single Substitution lookup 128 subtable" xy.cvc.3
Substitution2: "Single Substitution lookup 124 subtable" xy.cvc.1
Substitution2: "Single Substitution lookup 120 subtable" xy.ccv.1
Substitution2: "Single Substitution lookup 62 subtable" xy.cvc.3
Substitution2: "Single Substitution lookup 58 subtable" xy.cvc.1
Substitution2: "Single Substitution lookup 54 subtable" xy.ccv.1
EndChar

StartChar: iy
Encoding: 8 60264 8
Width: 738
VWidth: 2000
Flags: W
HStem: 25 50.0251<145 643.975>
VStem: 95 50<75.0251 569>
AnchorPoint: "Above" 369 0 basechar 0
LayerCount: 2
Back
SplineSet
120 544 m 5
 120 50 l 5
 619 50.5 l 1029
EndSplineSet
Fore
SplineSet
120 569 m 1
 145 569 l 1
 145 544 l 1
 145 75.0250626503 l 1
 618.974949912 75.4999874499 l 1
 618.974949912 76.4999874499 617.974950414 75.4989854464 618.974949912 75.4999874499 c 1
 643.974937362 75.5250375375 l 1
 643.99998745 50.5250500876 l 1
 644.025037537 25.5250626378 l 1
 619.025050088 25.5000125501 l 1
 120.025050088 25.0000125501 l 2
 109.248806703 24.9892147111 95 34.8755471699 95 50 c 2
 95 544 l 1
 95 569 l 1
 120 569 l 1
EndSplineSet
Substitution2: "Single Substitution lookup 194 subtable" iy.cvc.3
Substitution2: "Single Substitution lookup 190 subtable" iy.cvc.1
Substitution2: "Single Substitution lookup 186 subtable" iy.ccv.1
Substitution2: "Single Substitution lookup 128 subtable" iy.cvc.3
Substitution2: "Single Substitution lookup 124 subtable" iy.cvc.1
Substitution2: "Single Substitution lookup 120 subtable" iy.ccv.1
Substitution2: "Single Substitution lookup 62 subtable" iy.cvc.3
Substitution2: "Single Substitution lookup 58 subtable" iy.cvc.1
Substitution2: "Single Substitution lookup 54 subtable" iy.ccv.1
EndChar

StartChar: ry
Encoding: 9 60265 9
Width: 738
VWidth: 2000
Flags: W
AnchorPoint: "Above" 369 0 basechar 0
LayerCount: 2
Back
SplineSet
120 50 m 5
 618 548 l 1053
120 548 m 5
 618 50 l 1029
EndSplineSet
Fore
SplineSet
102.32233047 565.67766953 m 1
 120 583.355339059 l 1
 137.67766953 565.67766953 l 1
 369 334.355339059 l 1
 600.32233047 565.67766953 l 1
 618 583.355339059 l 1
 635.67766953 565.67766953 l 1
 653.355339059 548 l 1
 635.67766953 530.32233047 l 1
 404.355339059 299 l 1
 635.67766953 67.6776695297 l 1
 653.355339059 50 l 1
 635.67766953 32.3223304703 l 1
 618 14.6446609407 l 1
 600.32233047 32.3223304703 l 1
 369 263.644660941 l 1
 137.67766953 32.3223304703 l 1
 120 14.6446609407 l 1
 102.32233047 32.3223304703 l 1
 84.6446609407 50 l 1
 102.32233047 67.6776695297 l 1
 333.644660941 299 l 1
 102.32233047 530.32233047 l 1
 84.6446609407 548 l 1
 102.32233047 565.67766953 l 1
EndSplineSet
Substitution2: "Single Substitution lookup 194 subtable" ry.cvc.3
Substitution2: "Single Substitution lookup 190 subtable" ry.cvc.1
Substitution2: "Single Substitution lookup 186 subtable" ry.ccv.1
Substitution2: "Single Substitution lookup 184 subtable" ry.ccv.2
Substitution2: "Single Substitution lookup 182 subtable" ry.ccv.2
Substitution2: "Single Substitution lookup 180 subtable" ry.ccv.2
Substitution2: "Single Substitution lookup 177 subtable" ry.ccv.2
Substitution2: "Single Substitution lookup 175 subtable" ry.ccv.2
Substitution2: "Single Substitution lookup 172 subtable" ry.ccv.2
Substitution2: "Single Substitution lookup 165 subtable" ry.ccv.2
Substitution2: "Single Substitution lookup 152 subtable" ry.ccv.2
Substitution2: "Single Substitution lookup 144 subtable" ry.ccv.2
Substitution2: "Single Substitution lookup 142 subtable" ry.ccv.2
Substitution2: "Single Substitution lookup 140 subtable" ry.ccv.2
Substitution2: "Single Substitution lookup 138 subtable" ry.ccv.2
Substitution2: "Single Substitution lookup 128 subtable" ry.cvc.3
Substitution2: "Single Substitution lookup 124 subtable" ry.cvc.1
Substitution2: "Single Substitution lookup 120 subtable" ry.ccv.1
Substitution2: "Single Substitution lookup 118 subtable" ry.ccv.2
Substitution2: "Single Substitution lookup 116 subtable" ry.ccv.2
Substitution2: "Single Substitution lookup 114 subtable" ry.ccv.2
Substitution2: "Single Substitution lookup 111 subtable" ry.ccv.2
Substitution2: "Single Substitution lookup 109 subtable" ry.ccv.2
Substitution2: "Single Substitution lookup 106 subtable" ry.ccv.2
Substitution2: "Single Substitution lookup 99 subtable" ry.ccv.2
Substitution2: "Single Substitution lookup 86 subtable" ry.ccv.2
Substitution2: "Single Substitution lookup 78 subtable" ry.ccv.2
Substitution2: "Single Substitution lookup 76 subtable" ry.ccv.2
Substitution2: "Single Substitution lookup 74 subtable" ry.ccv.2
Substitution2: "Single Substitution lookup 72 subtable" ry.ccv.2
Substitution2: "Single Substitution lookup 62 subtable" ry.cvc.3
Substitution2: "Single Substitution lookup 58 subtable" ry.cvc.1
Substitution2: "Single Substitution lookup 54 subtable" ry.ccv.1
Substitution2: "Single Substitution lookup 52 subtable" ry.ccv.2
Substitution2: "Single Substitution lookup 50 subtable" ry.ccv.2
Substitution2: "Single Substitution lookup 48 subtable" ry.ccv.2
Substitution2: "Single Substitution lookup 45 subtable" ry.ccv.2
Substitution2: "Single Substitution lookup 43 subtable" ry.ccv.2
Substitution2: "Single Substitution lookup 40 subtable" ry.ccv.2
Substitution2: "Single Substitution lookup 33 subtable" ry.ccv.2
Substitution2: "Single Substitution lookup 20 subtable" ry.ccv.2
Substitution2: "Single Substitution lookup 12 subtable" ry.ccv.2
Substitution2: "Single Substitution lookup 10 subtable" ry.ccv.2
Substitution2: "Single Substitution lookup 8 subtable" ry.ccv.2
Substitution2: "Single Substitution lookup 6 subtable" ry.ccv.2
EndChar

StartChar: ebu
Encoding: 10 60266 10
Width: 738
VWidth: 0
Flags: W
HStem: -110 50<255 344 394 523> 7.06296 48.937<273.354 344 394 464.646> 562 50<273.531 464.469>
VStem: 73 50<207.565 412.937> 205 50<-267 -110> 344 50<-185 -110 -60 9.66505> 615 50<207.565 412.937>
LayerCount: 2
Back
Refer: 32 -1 N 1 0 0 1 0 0 2
Refer: 31 60287 N 1 0 0 1 0 0 2
Fore
SplineSet
100 30 m 1025,0,-1
523 -85 m 1,1,-1
 523 -110 l 1,2,-1
 498 -110 l 1,3,-1
 394 -110 l 1,4,-1
 394 -160 l 1,5,-1
 394 -185 l 1,6,-1
 369 -185 l 1,7,-1
 344 -185 l 1,8,-1
 344 -160 l 1,9,-1
 344 -110 l 1,10,-1
 255 -110 l 1,11,-1
 255 -242 l 1,12,-1
 255 -267 l 1,13,-1
 230 -267 l 1,14,-1
 205 -267 l 1,15,-1
 205 -242 l 1,16,-1
 205 -85 l 2,17,-1
 205 -74.2705078125 214.8671875 -60 230 -60 c 2,20,-1
 344 -60 l 1,21,-1
 344 7.06296218207 l 1,22,-1
 191.462834829 20.0946523773 73 151.294833309 73 309 c 0,25,-1
 73 475.22265625 204.604492188 612 369 612 c 0,28,-1
 533.395507812 612 665 475.22265625 665 309 c 0,31,-1
 665 151.294833309 546.537165171 20.0946523773 394 7.06296218207 c 1,34,-1
 394 -60 l 1,35,-1
 498 -60 l 1,36,-1
 523 -60 l 1,37,-1
 523 -85 l 1,1,-1
369 56 m 0,38,-1
 504.604492188 56 615 169.22265625 615 309 c 0,41,-1
 615 448.77734375 504.604492188 562 369 562 c 0,44,-1
 233.395507812 562 123 448.77734375 123 309 c 0,47,-1
 123 169.22265625 233.395507812 56 369 56 c 0,38,-1
EndSplineSet
Ligature2: "Vdenpabu-1 subtable" denpabu ebu
Substitution2: "Single Substitution lookup 196 subtable" ebu.cv
Substitution2: "Single Substitution lookup 192 subtable" ebu.cvc
Substitution2: "Single Substitution lookup 188 subtable" ebu.ccv
Ligature2: "Vdenpabu-0 subtable" denpabu ebu
Substitution2: "Single Substitution lookup 130 subtable" ebu.cv
Substitution2: "Single Substitution lookup 126 subtable" ebu.cvc
Substitution2: "Single Substitution lookup 122 subtable" ebu.ccv
Ligature2: "Vdenpabu subtable" denpabu ebu
Substitution2: "Single Substitution lookup 64 subtable" ebu.cv
Substitution2: "Single Substitution lookup 60 subtable" ebu.cvc
Substitution2: "Single Substitution lookup 56 subtable" ebu.ccv
LCarets2: 1 0
EndChar

StartChar: obu
Encoding: 11 60267 11
Width: 738
VWidth: 0
Flags: W
HStem: -110 50<206 344 394 501> 7.06296 48.937<273.354 344 394 464.646> 562 50<273.531 464.469>
VStem: 73 50<207.565 412.937> 344 50<-190 -110 -60 9.66505> 501 50<-273 -110> 615 50<207.565 412.937>
LayerCount: 2
Back
Refer: 33 -1 N 1 0 0 1 0 0 2
Refer: 33 -1 N 1 0 0 1 0 0 2
Refer: 31 60287 N 1 0 0 1 0 0 2
Fore
SplineSet
100 30 m 1025,0,-1
206 -85 m 1,1,-1
 206 -60 l 1,2,-1
 231 -60 l 1,3,-1
 344 -60 l 1,4,-1
 344 7.06296218207 l 1,5,-1
 191.462834829 20.0946523773 73 151.294833309 73 309 c 0,8,-1
 73 475.22265625 204.604492188 612 369 612 c 0,11,-1
 533.395507812 612 665 475.22265625 665 309 c 0,14,-1
 665 151.294833309 546.537165171 20.0946523773 394 7.06296218207 c 1,17,-1
 394 -60 l 1,18,-1
 526 -60 l 2,19,-1
 541.1328125 -60 551 -85 551 -85 c 1,22,-1
 551 -248 l 1,23,-1
 551 -273 l 1,24,-1
 526 -273 l 1,25,-1
 501 -273 l 1,26,-1
 501 -248 l 1,27,-1
 501 -110 l 1,28,-1
 394 -110 l 1,29,-1
 394 -165 l 1,30,-1
 394 -190 l 1,31,-1
 369 -190 l 1,32,-1
 344 -190 l 1,33,-1
 344 -165 l 1,34,-1
 344 -110 l 1,35,-1
 231 -110 l 1,36,-1
 206 -110 l 1,37,-1
 206 -85 l 1,1,-1
369 56 m 0,38,-1
 504.604492188 56 615 169.22265625 615 309 c 0,41,-1
 615 448.77734375 504.604492188 562 369 562 c 0,44,-1
 233.395507812 562 123 448.77734375 123 309 c 0,47,-1
 123 169.22265625 233.395507812 56 369 56 c 0,38,-1
EndSplineSet
LCarets2: 1 0
Ligature2: "Vdenpabu-1 subtable" denpabu obu
Substitution2: "Single Substitution lookup 196 subtable" obu.cv
Substitution2: "Single Substitution lookup 192 subtable" obu.cvc
Substitution2: "Single Substitution lookup 188 subtable" obu.ccv
Ligature2: "Vdenpabu-0 subtable" denpabu obu
Substitution2: "Single Substitution lookup 130 subtable" obu.cv
Substitution2: "Single Substitution lookup 126 subtable" obu.cvc
Substitution2: "Single Substitution lookup 122 subtable" obu.ccv
Ligature2: "Vdenpabu subtable" denpabu obu
Substitution2: "Single Substitution lookup 64 subtable" obu.cv
Substitution2: "Single Substitution lookup 60 subtable" obu.cvc
Substitution2: "Single Substitution lookup 56 subtable" obu.ccv
EndChar

StartChar: ibu
Encoding: 12 60268 12
Width: 738
VWidth: 0
Flags: W
HStem: -110 50<274 520> 6 50<273.531 464.469> 562 50<273.531 464.469>
VStem: 73 50<205.063 412.937> 224 50<-282 -110> 615 50<205.063 412.937>
LayerCount: 2
Back
Refer: 34 -1 N 1 0 0 1 0 0 2
Refer: 31 60287 N 1 0 0 1 0 0 2
Fore
SplineSet
100 30 m 1025,0,-1
520 -85 m 1,1,-1
 520 -110 l 1,2,-1
 495 -110 l 1,3,-1
 274 -110 l 1,4,-1
 274 -257 l 1,5,-1
 274 -282 l 1,6,-1
 249 -282 l 1,7,-1
 224 -282 l 1,8,-1
 224 -257 l 1,9,-1
 224 -85 l 1,10,-1
 249 -60 l 1,11,-1
 495 -60 l 1,12,-1
 520 -60 l 1,13,-1
 520 -85 l 1,1,-1
123 309 m 0,14,-1
 123 169.22265625 233.395507812 56 369 56 c 0,17,-1
 504.604492188 56 615 169.22265625 615 309 c 0,20,-1
 615 448.77734375 504.604492188 562 369 562 c 0,23,-1
 233.395507812 562 123 448.77734375 123 309 c 0,14,-1
73 309 m 0,26,-1
 73 475.22265625 204.604492188 612 369 612 c 0,29,-1
 533.395507812 612 665 475.22265625 665 309 c 0,32,-1
 665 142.77734375 533.395507812 6 369 6 c 0,35,-1
 204.604492188 6 73 142.77734375 73 309 c 0,26,-1
EndSplineSet
Ligature2: "Vdenpabu-1 subtable" denpabu ibu
Substitution2: "Single Substitution lookup 196 subtable" ibu.cv
Substitution2: "Single Substitution lookup 192 subtable" ibu.cvc
Substitution2: "Single Substitution lookup 188 subtable" ibu.ccv
Substitution2: "Single Substitution lookup 133 subtable" iy
Ligature2: "Vdenpabu-0 subtable" denpabu ibu
Substitution2: "Single Substitution lookup 130 subtable" ibu.cv
Substitution2: "Single Substitution lookup 126 subtable" ibu.cvc
Substitution2: "Single Substitution lookup 122 subtable" ibu.ccv
Substitution2: "Single Substitution lookup 67 subtable" iy
Ligature2: "Vdenpabu subtable" denpabu ibu
Substitution2: "Single Substitution lookup 64 subtable" ibu.cv
Substitution2: "Single Substitution lookup 60 subtable" ibu.cvc
Substitution2: "Single Substitution lookup 56 subtable" ibu.ccv
Substitution2: "Single Substitution lookup 1 subtable" iy
EndChar

StartChar: ubu
Encoding: 13 60269 13
Width: 738
VWidth: 0
Flags: W
HStem: -110 50<190 504> 6 50<273.531 464.469> 562 50<273.531 464.469>
VStem: 73 50<205.063 412.937> 504 50<-263 -110> 615 50<205.063 412.937>
LayerCount: 2
Back
Refer: 84 -1 S 1 0 0 1 0 0 2
Refer: 31 60287 N 1 0 0 1 0 0 2
Fore
SplineSet
100 30 m 1025,0,-1
190 -85 m 1,1,-1
 190 -60 l 1,2,-1
 215 -60 l 1,3,-1
 529 -60 l 2,4,-1
 540.930664062 -60 554 -85 554 -85 c 1,7,-1
 554 -238 l 1,8,-1
 554 -263 l 1,9,-1
 529 -263 l 1,10,-1
 504 -263 l 1,11,-1
 504 -238 l 1,12,-1
 504 -110 l 1,13,-1
 215 -110 l 1,14,-1
 190 -110 l 1,15,-1
 190 -85 l 1,1,-1
123 309 m 0,16,-1
 123 169.22265625 233.395507812 56 369 56 c 0,19,-1
 504.604492188 56 615 169.22265625 615 309 c 0,22,-1
 615 448.77734375 504.604492188 562 369 562 c 0,25,-1
 233.395507812 562 123 448.77734375 123 309 c 0,16,-1
73 309 m 0,28,-1
 73 475.22265625 204.604492188 612 369 612 c 0,31,-1
 533.395507812 612 665 475.22265625 665 309 c 0,34,-1
 665 142.77734375 533.395507812 6 369 6 c 0,37,-1
 204.604492188 6 73 142.77734375 73 309 c 0,28,-1
EndSplineSet
Ligature2: "Vdenpabu-1 subtable" denpabu ubu
Substitution2: "Single Substitution lookup 196 subtable" ubu.cv
Substitution2: "Single Substitution lookup 192 subtable" ubu.cvc
Substitution2: "Single Substitution lookup 188 subtable" ubu.ccv
Substitution2: "Single Substitution lookup 134 subtable" uy
Ligature2: "Vdenpabu-0 subtable" denpabu ubu
Substitution2: "Single Substitution lookup 130 subtable" ubu.cv
Substitution2: "Single Substitution lookup 126 subtable" ubu.cvc
Substitution2: "Single Substitution lookup 122 subtable" ubu.ccv
Substitution2: "Single Substitution lookup 68 subtable" uy
Ligature2: "Vdenpabu subtable" denpabu ubu
Substitution2: "Single Substitution lookup 64 subtable" ubu.cv
Substitution2: "Single Substitution lookup 60 subtable" ubu.cvc
Substitution2: "Single Substitution lookup 56 subtable" ubu.ccv
Substitution2: "Single Substitution lookup 2 subtable" uy
EndChar

StartChar: abu
Encoding: 14 60270 14
Width: 738
VWidth: 0
Flags: W
HStem: -110 50<204.5 533.5> 6 50<273.531 464.469> 562 50<273.531 464.469>
VStem: 73 50<205.063 412.937> 615 50<205.063 412.937>
LayerCount: 2
Back
Refer: 85 -1 N 1 0 0 1 0 0 2
Refer: 31 60287 N 1 0 0 1 0 0 2
Fore
SplineSet
100 30 m 1025,0,-1
204.5 -85 m 1,1,-1
 204.5 -60 l 1,2,-1
 229.5 -60 l 1,3,-1
 369 -60 l 1,4,-1
 508.5 -60 l 1,5,-1
 533.5 -60 l 1,6,-1
 533.5 -85 l 1,7,-1
 533.5 -110 l 1,8,-1
 508.5 -110 l 1,9,-1
 229.5 -110 l 1,10,-1
 204.5 -110 l 1,11,-1
 204.5 -85 l 1,1,-1
123 309 m 0,12,-1
 123 169.22265625 233.395507812 56 369 56 c 0,15,-1
 504.604492188 56 615 169.22265625 615 309 c 0,18,-1
 615 448.77734375 504.604492188 562 369 562 c 0,21,-1
 233.395507812 562 123 448.77734375 123 309 c 0,12,-1
73 309 m 0,24,-1
 73 475.22265625 204.604492188 612 369 612 c 0,27,-1
 533.395507812 612 665 475.22265625 665 309 c 0,30,-1
 665 142.77734375 533.395507812 6 369 6 c 0,33,-1
 204.604492188 6 73 142.77734375 73 309 c 0,24,-1
EndSplineSet
Ligature2: "Vdenpabu-1 subtable" denpabu abu
Substitution2: "Single Substitution lookup 196 subtable" abu.cv
Substitution2: "Single Substitution lookup 192 subtable" abu.cvc
Substitution2: "Single Substitution lookup 188 subtable" abu.ccv
Ligature2: "Vdenpabu-0 subtable" denpabu abu
Substitution2: "Single Substitution lookup 130 subtable" abu.cv
Substitution2: "Single Substitution lookup 126 subtable" abu.cvc
Substitution2: "Single Substitution lookup 122 subtable" abu.ccv
Ligature2: "Vdenpabu subtable" denpabu abu
Substitution2: "Single Substitution lookup 64 subtable" abu.cv
Substitution2: "Single Substitution lookup 60 subtable" abu.cvc
Substitution2: "Single Substitution lookup 56 subtable" abu.ccv
EndChar

StartChar: ybu
Encoding: 15 60271 15
Width: 738
VWidth: 0
Flags: W
HStem: -110 50<195 344 394 543> 7.06296 55.937<257.192 344 394 480.808> 562 50<273.531 464.469>
VStem: 73 50<207.902 412.937> 344 50<-225 -110 -60 9.66505 57.2942 63> 615 50<207.902 412.937>
CounterMasks: 1 1c
LayerCount: 2
Back
Refer: 79 -1 N 1 0 0 1 0 0 2
Refer: 31 60287 N 1 0 0 1 0 0 2
Fore
SplineSet
100 30 m 1025,0,-1
543 -85 m 1,1,-1
 543 -110 l 1,2,-1
 518 -110 l 1,3,-1
 394 -110 l 1,4,-1
 394 -200 l 1,5,-1
 394 -225 l 1,6,-1
 369 -225 l 1,7,-1
 344 -225 l 1,8,-1
 344 -200 l 1,9,-1
 344 -110 l 1,10,-1
 220 -110 l 1,11,-1
 195 -110 l 1,12,-1
 195 -85 l 1,13,-1
 195 -60 l 1,14,-1
 220 -60 l 1,15,-1
 344 -60 l 1,16,-1
 344 7.06296218207 l 1,17,-1
 191.462834829 20.0946523773 73 151.294833309 73 309 c 0,20,-1
 73 475.22265625 204.604492188 612 369 612 c 0,23,-1
 533.395507812 612 665 475.22265625 665 309 c 0,26,-1
 665 151.294833309 546.537165171 20.0946523773 394 7.06296218207 c 1,29,-1
 394 -60 l 1,30,-1
 518 -60 l 1,31,-1
 543 -60 l 1,32,-1
 543 -85 l 1,1,-1
394 57.2942319066 m 1,33,-1
 517.91544304 70.1930183374 615 177.920082645 615 309 c 0,36,-1
 615 448.77734375 504.604492188 562 369 562 c 0,39,-1
 233.395507812 562 123 448.77734375 123 309 c 0,42,-1
 123 177.920082645 220.08455696 70.1930183374 344 57.2942319066 c 1,45,-1
 344 63 l 1,46,-1
 369 63 l 1,47,-1
 394 63 l 1,48,-1
 394 57.2942319066 l 1,33,-1
EndSplineSet
Ligature2: "Vdenpabu-1 subtable" denpabu ybu
Substitution2: "Single Substitution lookup 196 subtable" ybu.cv
Substitution2: "Single Substitution lookup 192 subtable" ybu.cvc
Substitution2: "Single Substitution lookup 188 subtable" ybu.ccv
Ligature2: "Vdenpabu-0 subtable" denpabu ybu
Substitution2: "Single Substitution lookup 130 subtable" ybu.cv
Substitution2: "Single Substitution lookup 126 subtable" ybu.cvc
Substitution2: "Single Substitution lookup 122 subtable" ybu.ccv
Ligature2: "Vdenpabu subtable" denpabu ybu
Substitution2: "Single Substitution lookup 64 subtable" ybu.cv
Substitution2: "Single Substitution lookup 60 subtable" ybu.cvc
Substitution2: "Single Substitution lookup 56 subtable" ybu.ccv
EndChar

StartChar: ny
Encoding: 16 60272 16
Width: 738
VWidth: 2000
Flags: W
HStem: 25 50<145 593> 523 50<145 593>
VStem: 95 50<75 523> 593 50<75 523>
AnchorPoint: "Above" 369 0 basechar 0
LayerCount: 2
Back
SplineSet
120 548 m 5
 618 548 l 5
 618 50 l 5
 120 50 l 5
 120 548 l 5
EndSplineSet
Fore
SplineSet
120 573 m 2
 618 573 l 2
 633.132537856 573 643 558.729904333 643 548 c 2
 643 50 l 2
 643 34.8674621445 628.729904333 25 618 25 c 2
 120 25 l 2
 104.867462144 25 95 39.2700956673 95 50 c 2
 95 548 l 2
 95 563.132537856 109.270095667 573 120 573 c 2
145 523 m 1
 145 75 l 1
 593 75 l 1
 593 523 l 1
 145 523 l 1
EndSplineSet
Substitution2: "Single Substitution lookup 194 subtable" ny.cvc.3
Substitution2: "Single Substitution lookup 190 subtable" ny.cvc.1
Substitution2: "Single Substitution lookup 186 subtable" ny.ccv.1
Substitution2: "Single Substitution lookup 163 subtable" ny.ccv.2
Substitution2: "Single Substitution lookup 150 subtable" ny.ccv.2
Substitution2: "Single Substitution lookup 128 subtable" ny.cvc.3
Substitution2: "Single Substitution lookup 124 subtable" ny.cvc.1
Substitution2: "Single Substitution lookup 120 subtable" ny.ccv.1
Substitution2: "Single Substitution lookup 97 subtable" ny.ccv.2
Substitution2: "Single Substitution lookup 84 subtable" ny.ccv.2
Substitution2: "Single Substitution lookup 62 subtable" ny.cvc.3
Substitution2: "Single Substitution lookup 58 subtable" ny.cvc.1
Substitution2: "Single Substitution lookup 54 subtable" ny.ccv.1
Substitution2: "Single Substitution lookup 31 subtable" ny.ccv.2
Substitution2: "Single Substitution lookup 18 subtable" ny.ccv.2
EndChar

StartChar: ty
Encoding: 17 60273 17
Width: 738
VWidth: 2000
Flags: W
HStem: 25 50<145 643> 523 50<145 643>
VStem: 95 50<75 523>
AnchorPoint: "Above" 369 0 basechar 0
LayerCount: 2
Back
SplineSet
618 50 m 5
 120 50 l 5
 120 548 l 5
 618 548 l 1029
EndSplineSet
Fore
SplineSet
643 50 m 1
 643 25 l 1
 618 25 l 1
 120 25 l 2
 104.867462144 25 95 39.2700956673 95 50 c 2
 95 548 l 2
 95 563.132537856 109.270095667 573 120 573 c 2
 618 573 l 1
 643 573 l 1
 643 548 l 1
 643 523 l 1
 618 523 l 1
 145 523 l 1
 145 75 l 1
 618 75 l 1
 643 75 l 1
 643 50 l 1
EndSplineSet
Substitution2: "Single Substitution lookup 194 subtable" ty.cvc.3
Substitution2: "Single Substitution lookup 190 subtable" ty.cvc.1
Substitution2: "Single Substitution lookup 186 subtable" ty.ccv.1
Substitution2: "Single Substitution lookup 160 subtable" ty.ccv.2
Substitution2: "Single Substitution lookup 147 subtable" ty.ccv.2
Substitution2: "Single Substitution lookup 128 subtable" ty.cvc.3
Substitution2: "Single Substitution lookup 124 subtable" ty.cvc.1
Substitution2: "Single Substitution lookup 120 subtable" ty.ccv.1
Substitution2: "Single Substitution lookup 94 subtable" ty.ccv.2
Substitution2: "Single Substitution lookup 81 subtable" ty.ccv.2
Substitution2: "Single Substitution lookup 62 subtable" ty.cvc.3
Substitution2: "Single Substitution lookup 58 subtable" ty.cvc.1
Substitution2: "Single Substitution lookup 54 subtable" ty.ccv.1
Substitution2: "Single Substitution lookup 28 subtable" ty.ccv.2
Substitution2: "Single Substitution lookup 15 subtable" ty.ccv.2
EndChar

StartChar: dy
Encoding: 18 60274 18
Width: 738
VWidth: 2000
Flags: W
HStem: 25 50<95 593> 523 50<95 593>
VStem: 593 50<75 523>
AnchorPoint: "Above" 369 0 basechar 0
LayerCount: 2
Back
SplineSet
120 548 m 5
 618 548 l 5
 618 50 l 5
 120 50 l 1029
EndSplineSet
Fore
SplineSet
95 548 m 1
 95 573 l 1
 120 573 l 1
 618 573 l 2
 633.132537856 573 643 558.729904333 643 548 c 2
 643 50 l 2
 643 34.8674621445 628.729904333 25 618 25 c 2
 120 25 l 1
 95 25 l 1
 95 50 l 1
 95 75 l 1
 120 75 l 1
 593 75 l 1
 593 523 l 1
 120 523 l 1
 95 523 l 1
 95 548 l 1
EndSplineSet
Substitution2: "Single Substitution lookup 194 subtable" dy.cvc.3
Substitution2: "Single Substitution lookup 190 subtable" dy.cvc.1
Substitution2: "Single Substitution lookup 186 subtable" dy.ccv.1
Substitution2: "Single Substitution lookup 168 subtable" dy.ccv.2
Substitution2: "Single Substitution lookup 155 subtable" dy.ccv.2
Substitution2: "Single Substitution lookup 128 subtable" dy.cvc.3
Substitution2: "Single Substitution lookup 124 subtable" dy.cvc.1
Substitution2: "Single Substitution lookup 120 subtable" dy.ccv.1
Substitution2: "Single Substitution lookup 102 subtable" dy.ccv.2
Substitution2: "Single Substitution lookup 89 subtable" dy.ccv.2
Substitution2: "Single Substitution lookup 62 subtable" dy.cvc.3
Substitution2: "Single Substitution lookup 58 subtable" dy.cvc.1
Substitution2: "Single Substitution lookup 54 subtable" dy.ccv.1
Substitution2: "Single Substitution lookup 36 subtable" dy.ccv.2
Substitution2: "Single Substitution lookup 23 subtable" dy.ccv.2
EndChar

StartChar: sy
Encoding: 19 60275 19
Width: 738
VWidth: 2000
Flags: W
HStem: 25.5 50<145 356.827>
VStem: 95 50<75.5 573>
AnchorPoint: "Above" 369 0 basechar 0
LayerCount: 2
Back
SplineSet
120 548 m 5
 120 50.5 l 5
 369 50.5 l 5
 437.02560878 270.803536636 494.589603239 392.642857732 618 548 c 1029
EndSplineSet
Fore
SplineSet
120 573 m 1
 145 573 l 1
 145 548 l 1
 145 75.5 l 1
 350.59869204 75.5 l 1
 417.237175207 287.61538931 476.478905541 410.0367606 598.424594513 563.550032155 c 2
 613.974626669 583.125437642 l 1
 633.550032155 567.575405487 l 1
 653.125437642 552.025373331 l 1
 637.575405487 532.449967845 l 2
 515.93310625 379.318623287 460.561343043 262.289552206 392.887151773 43.1240946189 c 0
 389.889103152 33.4147994576 380.124576397 25.5 369 25.5 c 2
 120 25.5 l 2
 109.270095667 25.5 95 35.3674621445 95 50.5 c 2
 95 548 l 1
 95 573 l 1
 120 573 l 1
EndSplineSet
Substitution2: "Single Substitution lookup 194 subtable" sy.cvc.3
Substitution2: "Single Substitution lookup 190 subtable" sy.cvc.1
Substitution2: "Single Substitution lookup 186 subtable" sy.ccv.1
Substitution2: "Single Substitution lookup 173 subtable" sy.ccv.2
Substitution2: "Single Substitution lookup 128 subtable" sy.cvc.3
Substitution2: "Single Substitution lookup 124 subtable" sy.cvc.1
Substitution2: "Single Substitution lookup 120 subtable" sy.ccv.1
Substitution2: "Single Substitution lookup 107 subtable" sy.ccv.2
Substitution2: "Single Substitution lookup 62 subtable" sy.cvc.3
Substitution2: "Single Substitution lookup 58 subtable" sy.cvc.1
Substitution2: "Single Substitution lookup 54 subtable" sy.ccv.1
Substitution2: "Single Substitution lookup 41 subtable" sy.ccv.2
EndChar

StartChar: zy
Encoding: 20 60276 20
Width: 738
VWidth: 2000
Flags: W
HStem: 523 50<323.31 593>
VStem: 593 50<25 523>
AnchorPoint: "Above" 369 0 basechar 0
LayerCount: 2
Back
SplineSet
120 50 m 5
 209.129397456 161.979263507 264.978563222 230.369922452 303 548 c 5
 618 548 l 5
 618 50 l 1029
EndSplineSet
Fore
SplineSet
104.431029211 30.4396536693 m 1
 84.8706828805 46.008624458 l 1
 100.439653669 65.5689707888 l 2
 188.786641839 176.565240827 240.397554587 235.36113717 278.177209485 550.971375279 c 0
 279.742510978 564.047862565 291.885458189 573 303 573 c 2
 618 573 l 2
 633.132537856 573 643 558.729904333 643 548 c 2
 643 50 l 1
 643 25 l 1
 618 25 l 1
 593 25 l 1
 593 50 l 1
 593 523 l 1
 325.107496852 523 l 1
 287.109697829 223.748284307 227.098496127 144.411101138 139.560346331 34.4310292112 c 1
 140.560346331 34.4310292112 138.937587499 33.648615358 139.560346331 34.4310292112 c 1
 123.991375542 14.8706828805 l 1
 104.431029211 30.4396536693 l 1
EndSplineSet
Substitution2: "Single Substitution lookup 194 subtable" zy.cvc.3
Substitution2: "Single Substitution lookup 190 subtable" zy.cvc.1
Substitution2: "Single Substitution lookup 186 subtable" zy.ccv.1
Substitution2: "Single Substitution lookup 178 subtable" zy.ccv.2
Substitution2: "Single Substitution lookup 128 subtable" zy.cvc.3
Substitution2: "Single Substitution lookup 124 subtable" zy.cvc.1
Substitution2: "Single Substitution lookup 120 subtable" zy.ccv.1
Substitution2: "Single Substitution lookup 112 subtable" zy.ccv.2
Substitution2: "Single Substitution lookup 62 subtable" zy.cvc.3
Substitution2: "Single Substitution lookup 58 subtable" zy.cvc.1
Substitution2: "Single Substitution lookup 54 subtable" zy.ccv.1
Substitution2: "Single Substitution lookup 46 subtable" zy.ccv.2
EndChar

StartChar: gy
Encoding: 21 60277 21
Width: 738
VWidth: 2000
Flags: W
AnchorPoint: "Above" 369 0 basechar 0
LayerCount: 2
Back
SplineSet
120 551 m 5
 621 309 l 5
 120 50 l 1029
EndSplineSet
Fore
SplineSet
97.4886361132 561.873752616 m 1
 108.362388729 584.385116503 l 1
 130.873752616 573.511363887 l 1
 631.873752616 331.511363887 l 2
 644.813648244 325.26095522 649.835217717 308.803209263 642.588849488 296.393589814 c 0
 640.14470553 292.207921154 634.399589281 287.784039742 632.480749101 286.79206448 c 2
 131.480749285 27.7920645745 l 1
 109.272813581 16.3113153784 l 1
 97.7920644797 38.5192508987 l 1
 86.3113153784 60.727186419 l 1
 108.519250899 72.2079355203 l 1
 565.093151391 308.241149547 l 1
 109.126247384 528.488636113 l 1
 86.6148834972 539.362388729 l 1
 97.4886361132 561.873752616 l 1
EndSplineSet
Substitution2: "Single Substitution lookup 194 subtable" gy.cvc.3
Substitution2: "Single Substitution lookup 190 subtable" gy.cvc.1
Substitution2: "Single Substitution lookup 186 subtable" gy.ccv.1
Substitution2: "Single Substitution lookup 169 subtable" gy.ccv.2
Substitution2: "Single Substitution lookup 156 subtable" gy.ccv.2
Substitution2: "Single Substitution lookup 128 subtable" gy.cvc.3
Substitution2: "Single Substitution lookup 124 subtable" gy.cvc.1
Substitution2: "Single Substitution lookup 120 subtable" gy.ccv.1
Substitution2: "Single Substitution lookup 103 subtable" gy.ccv.2
Substitution2: "Single Substitution lookup 90 subtable" gy.ccv.2
Substitution2: "Single Substitution lookup 62 subtable" gy.cvc.3
Substitution2: "Single Substitution lookup 58 subtable" gy.cvc.1
Substitution2: "Single Substitution lookup 54 subtable" gy.ccv.1
Substitution2: "Single Substitution lookup 37 subtable" gy.ccv.2
Substitution2: "Single Substitution lookup 24 subtable" gy.ccv.2
EndChar

StartChar: jy
Encoding: 22 60278 22
Width: 738
VWidth: 2000
Flags: W
HStem: 284 50<95 315.275 419.747 643>
VStem: 344 50<334.715 573>
AnchorPoint: "Above" 369 0 basechar 0
LayerCount: 2
Back
SplineSet
120 309 m 5
 618 309 l 1029
369 379 m 5
 369 548 l 1029
120 50 m 5
 171.616435547 73.2132544709 366.275589844 230.992519328 369 379 c 5
 366.553740293 236.09072105 553.123438283 70.7733309394 618 50 c 1029
EndSplineSet
Fore
SplineSet
97.1996253223 39.746078089 m 1
 86.9457034113 62.5464527667 l 1
 109.746078089 72.8003746777 l 1
 108.834063102 72.3902178013 109.746078089 73.8003746777 109.746078089 72.8003746777 c 1
 144.655731957 88.5001546052 260.751138586 182.575079571 315.275250483 284 c 1
 120 284 l 1
 95 284 l 1
 95 309 l 1
 95 334 l 1
 120 334 l 1
 336.449175983 334 l 1
 341.027102864 349.25454306 343.703544552 364.413761553 344 379.239589413 c 2
 344 548 l 1
 344 573 l 1
 369 573 l 1
 394 573 l 1
 394 548 l 1
 394 379 l 1
 394 373.855180748 l 2
 394.239257515 360.866036826 396.352084804 347.515435041 400.007060737 334 c 1
 618 334 l 1
 643 334 l 1
 643 309 l 1
 643 284 l 1
 618 284 l 1
 419.747052965 284 l 1
 470.866432068 183.544515257 583.774003864 87.2094048015 625.623664604 73.8092364012 c 2
 649.432901005 66.1855717975 l 1
 641.809236401 42.3763353962 l 1
 634.185571797 18.567098995 l 1
 610.376335396 26.1907635988 l 2
 548.642922121 45.9576653894 421.57827625 154.143751024 367.674383979 275.281009504 c 1
 309.559160099 152.489038933 178.668329344 48.9728444121 130.253921911 27.1996253223 c 2
 107.453547233 16.9457034113 l 1
 97.1996253223 39.746078089 l 1
EndSplineSet
Substitution2: "Single Substitution lookup 194 subtable" jy.cvc.3
Substitution2: "Single Substitution lookup 190 subtable" jy.cvc.1
Substitution2: "Single Substitution lookup 186 subtable" jy.ccv.1
Substitution2: "Single Substitution lookup 176 subtable" jy.ccv.2
Substitution2: "Single Substitution lookup 128 subtable" jy.cvc.3
Substitution2: "Single Substitution lookup 124 subtable" jy.cvc.1
Substitution2: "Single Substitution lookup 120 subtable" jy.ccv.1
Substitution2: "Single Substitution lookup 110 subtable" jy.ccv.2
Substitution2: "Single Substitution lookup 62 subtable" jy.cvc.3
Substitution2: "Single Substitution lookup 58 subtable" jy.cvc.1
Substitution2: "Single Substitution lookup 54 subtable" jy.ccv.1
Substitution2: "Single Substitution lookup 44 subtable" jy.ccv.2
EndChar

StartChar: yhy
Encoding: 23 60279 23
Width: 738
VWidth: 2000
Flags: W
VStem: 95 50<110.015 570> 596 50<25 486.985>
AnchorPoint: "Above" 369 0 basechar 0
LayerCount: 2
Back
SplineSet
120 545 m 29
 120 50 l 5
 621 547 l 29
 621 50 l 1029
EndSplineSet
Fore
SplineSet
120 570 m 1
 145 570 l 1
 145 545 l 1
 145 110.014882026 l 1
 603.393324271 564.748379356 l 2
 613.595379446 574.868980997 630.786057006 574.124557059 640.075038296 563.159916893 c 0
 643.890423972 558.65626577 646 552.728096211 646 547 c 2
 646 50 l 1
 646 25 l 1
 621 25 l 1
 596 25 l 1
 596 50 l 1
 596 486.985117974 l 1
 137.606675729 32.2516206436 l 2
 133.633527974 28.3101946278 127.857926023 25.5411152641 121.961427136 25.0770627014 c 0
 107.635320153 23.9496026972 95 35.6295961308 95 50 c 2
 95 545 l 1
 95 570 l 1
 120 570 l 1
EndSplineSet
Substitution2: "Single Substitution lookup 194 subtable" yhy.cvc.3
Substitution2: "Single Substitution lookup 190 subtable" yhy.cvc.1
Substitution2: "Single Substitution lookup 186 subtable" yhy.ccv.1
Substitution2: "Single Substitution lookup 128 subtable" yhy.cvc.3
Substitution2: "Single Substitution lookup 124 subtable" yhy.cvc.1
Substitution2: "Single Substitution lookup 120 subtable" yhy.ccv.1
Substitution2: "Single Substitution lookup 62 subtable" yhy.cvc.3
Substitution2: "Single Substitution lookup 58 subtable" yhy.cvc.1
Substitution2: "Single Substitution lookup 54 subtable" yhy.ccv.1
EndChar

StartChar: uy
Encoding: 24 60280 24
Width: 738
VWidth: 2000
Flags: W
HStem: 25.5 50<95 596>
VStem: 596 50<75.5 575>
AnchorPoint: "Above" 369 0 basechar 0
LayerCount: 2
Back
SplineSet
120 50.5 m 5
 621 50.5 l 5
 621 550 l 1029
EndSplineSet
Fore
SplineSet
95 50.5 m 1
 95 75.5 l 1
 120 75.5 l 1
 596 75.5 l 1
 596 550 l 1
 596 575 l 1
 621 575 l 1
 646 575 l 1
 646 550 l 1
 646 50.5 l 2
 646 39.7700956673 636.132537856 25.5 621 25.5 c 2
 120 25.5 l 1
 95 25.5 l 1
 95 50.5 l 1
EndSplineSet
Substitution2: "Single Substitution lookup 194 subtable" uy.cvc.3
Substitution2: "Single Substitution lookup 190 subtable" uy.cvc.1
Substitution2: "Single Substitution lookup 186 subtable" uy.ccv.1
Substitution2: "Single Substitution lookup 128 subtable" uy.cvc.3
Substitution2: "Single Substitution lookup 124 subtable" uy.cvc.1
Substitution2: "Single Substitution lookup 120 subtable" uy.ccv.1
Substitution2: "Single Substitution lookup 62 subtable" uy.cvc.3
Substitution2: "Single Substitution lookup 58 subtable" uy.cvc.1
Substitution2: "Single Substitution lookup 54 subtable" uy.ccv.1
EndChar

StartChar: ly
Encoding: 25 60281 25
Width: 738
VWidth: 2000
Flags: W
HStem: 25 50<95 593> 274 50<145 593> 523 50<145 643>
VStem: 95 50<324 523> 593 50<75 274>
CounterMasks: 1 e0
AnchorPoint: "Above" 369 0 basechar 0
LayerCount: 2
Back
SplineSet
618 548 m 5
 120 548 l 5
 120 299 l 5
 618 299 l 5
 618 50 l 5
 120 50 l 1029
EndSplineSet
Fore
SplineSet
643 548 m 1
 643 523 l 1
 618 523 l 1
 145 523 l 1
 145 324 l 1
 618 324 l 2
 633.132537856 324 643 309.729904333 643 299 c 2
 643 50 l 2
 643 34.8674621445 628.729904333 25 618 25 c 2
 120 25 l 1
 95 25 l 1
 95 50 l 1
 95 75 l 1
 120 75 l 1
 593 75 l 1
 593 274 l 1
 120 274 l 2
 109.270095667 274 95 283.867462144 95 299 c 2
 95 548 l 2
 95 558.729904333 104.867462144 573 120 573 c 2
 618 573 l 1
 643 573 l 1
 643 548 l 1
EndSplineSet
Substitution2: "Single Substitution lookup 194 subtable" ly.cvc.3
Substitution2: "Single Substitution lookup 190 subtable" ly.cvc.1
Substitution2: "Single Substitution lookup 186 subtable" ly.ccv.1
Substitution2: "Single Substitution lookup 183 subtable" ly.ccv.2
Substitution2: "Single Substitution lookup 181 subtable" ly.ccv.2
Substitution2: "Single Substitution lookup 179 subtable" ly.ccv.2
Substitution2: "Single Substitution lookup 174 subtable" ly.ccv.2
Substitution2: "Single Substitution lookup 164 subtable" ly.ccv.2
Substitution2: "Single Substitution lookup 151 subtable" ly.ccv.2
Substitution2: "Single Substitution lookup 143 subtable" ly.ccv.2
Substitution2: "Single Substitution lookup 141 subtable" ly.ccv.2
Substitution2: "Single Substitution lookup 139 subtable" ly.ccv.2
Substitution2: "Single Substitution lookup 137 subtable" ly.ccv.2
Substitution2: "Single Substitution lookup 128 subtable" ly.cvc.3
Substitution2: "Single Substitution lookup 124 subtable" ly.cvc.1
Substitution2: "Single Substitution lookup 120 subtable" ly.ccv.1
Substitution2: "Single Substitution lookup 117 subtable" ly.ccv.2
Substitution2: "Single Substitution lookup 115 subtable" ly.ccv.2
Substitution2: "Single Substitution lookup 113 subtable" ly.ccv.2
Substitution2: "Single Substitution lookup 108 subtable" ly.ccv.2
Substitution2: "Single Substitution lookup 98 subtable" ly.ccv.2
Substitution2: "Single Substitution lookup 85 subtable" ly.ccv.2
Substitution2: "Single Substitution lookup 77 subtable" ly.ccv.2
Substitution2: "Single Substitution lookup 75 subtable" ly.ccv.2
Substitution2: "Single Substitution lookup 73 subtable" ly.ccv.2
Substitution2: "Single Substitution lookup 71 subtable" ly.ccv.2
Substitution2: "Single Substitution lookup 62 subtable" ly.cvc.3
Substitution2: "Single Substitution lookup 58 subtable" ly.cvc.1
Substitution2: "Single Substitution lookup 54 subtable" ly.ccv.1
Substitution2: "Single Substitution lookup 51 subtable" ly.ccv.2
Substitution2: "Single Substitution lookup 49 subtable" ly.ccv.2
Substitution2: "Single Substitution lookup 47 subtable" ly.ccv.2
Substitution2: "Single Substitution lookup 42 subtable" ly.ccv.2
Substitution2: "Single Substitution lookup 32 subtable" ly.ccv.2
Substitution2: "Single Substitution lookup 19 subtable" ly.ccv.2
Substitution2: "Single Substitution lookup 11 subtable" ly.ccv.2
Substitution2: "Single Substitution lookup 9 subtable" ly.ccv.2
Substitution2: "Single Substitution lookup 7 subtable" ly.ccv.2
Substitution2: "Single Substitution lookup 5 subtable" ly.ccv.2
EndChar

StartChar: eibu
Encoding: 26 60283 26
Width: 738
VWidth: 0
Flags: W
HStem: -110 50<255 344 394 503> -20 20G<503 553> 7.06296 48.937<273.354 344 394 464.646> 562 50<273.531 464.469>
VStem: 73 50<207.565 412.937> 205 50<-307 -110> 344 50<-205 -110 -60 9.66505> 503 50<-176 -110 -60 0> 615 50<207.565 412.937>
LayerCount: 2
Back
Refer: 80 -1 N 1 0 0 1 0 0 2
Refer: 31 60287 N 1 0 0 1 0 0 2
Fore
SplineSet
100 30 m 1025,0,-1
73 309 m 0,1,-1
 73 475.22265625 204.604492188 612 369 612 c 0,4,-1
 533.395507812 612 665 475.22265625 665 309 c 0,7,-1
 665 151.294833309 546.537165171 20.0946523773 394 7.06296218207 c 1,10,-1
 394 -60 l 1,11,-1
 503 -60 l 1,12,-1
 503 -25 l 1,13,-1
 503 0 l 1,14,-1
 528 0 l 1,15,-1
 553 0 l 1,16,-1
 553 -25 l 1,17,-1
 553 -60 l 1,18,-1
 553 -85 l 1,19,-1
 553 -110 l 1,20,-1
 553 -151 l 1,21,-1
 553 -176 l 1,22,-1
 528 -176 l 1,23,-1
 503 -176 l 1,24,-1
 503 -151 l 1,25,-1
 503 -110 l 1,26,-1
 394 -110 l 1,27,-1
 394 -180 l 1,28,-1
 394 -205 l 1,29,-1
 369 -205 l 1,30,-1
 344 -205 l 1,31,-1
 344 -180 l 1,32,-1
 344 -110 l 1,33,-1
 255 -110 l 1,34,-1
 255 -282 l 1,35,-1
 255 -307 l 1,36,-1
 230 -307 l 1,37,-1
 205 -307 l 1,38,-1
 205 -282 l 1,39,-1
 205 -85 l 2,40,-1
 205 -74.2705078125 214.8671875 -60 230 -60 c 2,43,-1
 344 -60 l 1,44,-1
 344 7.06296218207 l 1,45,-1
 191.462834829 20.0946523773 73 151.294833309 73 309 c 0,1,-1
369 56 m 0,48,-1
 504.604492188 56 615 169.22265625 615 309 c 0,51,-1
 615 448.77734375 504.604492188 562 369 562 c 0,54,-1
 233.395507812 562 123 448.77734375 123 309 c 0,57,-1
 123 169.22265625 233.395507812 56 369 56 c 0,48,-1
EndSplineSet
Ligature2: "Vdenpabu-1 subtable" denpabu eibu
Substitution2: "Single Substitution lookup 196 subtable" eibu.cv
Substitution2: "Single Substitution lookup 192 subtable" eibu.cvc
Substitution2: "Single Substitution lookup 188 subtable" eibu.ccv
Ligature2: "diphthongs-1 subtable" ebu ibu
Ligature2: "Vdenpabu-0 subtable" denpabu eibu
Substitution2: "Single Substitution lookup 130 subtable" eibu.cv
Substitution2: "Single Substitution lookup 126 subtable" eibu.cvc
Substitution2: "Single Substitution lookup 122 subtable" eibu.ccv
Ligature2: "diphthongs-0 subtable" ebu ibu
Ligature2: "Vdenpabu subtable" denpabu eibu
Substitution2: "Single Substitution lookup 64 subtable" eibu.cv
Substitution2: "Single Substitution lookup 60 subtable" eibu.cvc
Substitution2: "Single Substitution lookup 56 subtable" eibu.ccv
Ligature2: "diphthongs subtable" ebu ibu
EndChar

StartChar: oibu
Encoding: 27 60284 27
Width: 738
VWidth: 0
Flags: W
HStem: -110 50<245 344 394 493> -20 20G<195 245> 7.06296 48.937<273.354 344 394 464.646> 562 50<273.531 464.469>
VStem: 73 50<207.565 412.937> 195 50<-176 -110 -60 0> 344 50<-205 -110 -60 9.66505> 493 50<-297 -110> 615 50<207.565 412.937>
LayerCount: 2
Back
Refer: 81 -1 N 1 0 0 1 0 0 2
Refer: 31 60287 N 1 0 0 1 0 0 2
Fore
SplineSet
100 30 m 1025,0,-1
73 309 m 0,1,-1
 73 475.22265625 204.604492188 612 369 612 c 0,4,-1
 533.395507812 612 665 475.22265625 665 309 c 0,7,-1
 665 151.294833309 546.537165171 20.0946523773 394 7.06296218207 c 1,10,-1
 394 -60 l 1,11,-1
 518 -60 l 2,12,-1
 533.1328125 -60 543 -74.2705078125 543 -85 c 2,15,-1
 543 -272 l 1,16,-1
 543 -297 l 1,17,-1
 518 -297 l 1,18,-1
 493 -297 l 1,19,-1
 493 -272 l 1,20,-1
 493 -110 l 1,21,-1
 394 -110 l 1,22,-1
 394 -180 l 1,23,-1
 394 -205 l 1,24,-1
 369 -205 l 1,25,-1
 344 -205 l 1,26,-1
 344 -180 l 1,27,-1
 344 -110 l 1,28,-1
 245 -110 l 1,29,-1
 245 -151 l 1,30,-1
 245 -176 l 1,31,-1
 220 -176 l 1,32,-1
 195 -176 l 1,33,-1
 195 -151 l 1,34,-1
 195 -110 l 1,35,-1
 195 -85 l 1,36,-1
 195 -60 l 1,37,-1
 195 -16 l 1,38,-1
 195 0 l 1,39,-1
 220 0 l 1,40,-1
 245 0 l 1,41,-1
 245 -16 l 1,42,-1
 245 -60 l 1,43,-1
 344 -60 l 1,44,-1
 344 7.06296218207 l 1,45,-1
 191.462834829 20.0946523773 73 151.294833309 73 309 c 0,1,-1
369 56 m 0,48,-1
 504.604492188 56 615 169.22265625 615 309 c 0,51,-1
 615 448.77734375 504.604492188 562 369 562 c 0,54,-1
 233.395507812 562 123 448.77734375 123 309 c 0,57,-1
 123 169.22265625 233.395507812 56 369 56 c 0,48,-1
EndSplineSet
Ligature2: "Vdenpabu-1 subtable" denpabu oibu
Substitution2: "Single Substitution lookup 196 subtable" oibu.cv
Substitution2: "Single Substitution lookup 192 subtable" oibu.cvc
Substitution2: "Single Substitution lookup 188 subtable" oibu.ccv
Ligature2: "diphthongs-1 subtable" obu ibu
Ligature2: "Vdenpabu-0 subtable" denpabu oibu
Substitution2: "Single Substitution lookup 130 subtable" oibu.cv
Substitution2: "Single Substitution lookup 126 subtable" oibu.cvc
Substitution2: "Single Substitution lookup 122 subtable" oibu.ccv
Ligature2: "diphthongs-0 subtable" obu ibu
Ligature2: "Vdenpabu subtable" denpabu oibu
Substitution2: "Single Substitution lookup 64 subtable" oibu.cv
Substitution2: "Single Substitution lookup 60 subtable" oibu.cvc
Substitution2: "Single Substitution lookup 56 subtable" oibu.ccv
Ligature2: "diphthongs subtable" obu ibu
EndChar

StartChar: aibu
Encoding: 28 60282 28
Width: 738
VWidth: 0
Flags: W
HStem: -110 50<295 503> -20 20G<503 553> 6 50<273.531 464.469> 562 50<273.531 464.469>
VStem: 73 50<205.063 412.937> 245 50<-287 -110> 503 50<-176 -110 -60 0> 615 50<205.063 412.937>
LayerCount: 2
Back
Refer: 82 -1 N 1 0 0 1 0 0 2
Refer: 31 60287 N 1 0 0 1 0 0 2
Fore
SplineSet
100 30 m 1025,0,-1
528 0 m 1,1,-1
 553 0 l 1,2,-1
 553 -25 l 1,3,-1
 553 -60 l 1,4,-1
 553 -85 l 1,5,-1
 553 -110 l 1,6,-1
 553 -151 l 1,7,-1
 553 -176 l 1,8,-1
 528 -176 l 1,9,-1
 503 -176 l 1,10,-1
 503 -151 l 1,11,-1
 503 -110 l 1,12,-1
 295 -110 l 1,13,-1
 295 -262 l 1,14,-1
 295 -287 l 1,15,-1
 270 -287 l 1,16,-1
 245 -287 l 1,17,-1
 245 -262 l 1,18,-1
 245 -85 l 2,19,-1
 245 -74.2705078125 254.8671875 -60 270 -60 c 2,22,-1
 503 -60 l 1,23,-1
 503 -25 l 1,24,-1
 503 0 l 1,25,-1
 528 0 l 1,1,-1
123 309 m 0,26,-1
 123 169.22265625 233.395507812 56 369 56 c 0,29,-1
 504.604492188 56 615 169.22265625 615 309 c 0,32,-1
 615 448.77734375 504.604492188 562 369 562 c 0,35,-1
 233.395507812 562 123 448.77734375 123 309 c 0,26,-1
73 309 m 0,38,-1
 73 475.22265625 204.604492188 612 369 612 c 0,41,-1
 533.395507812 612 665 475.22265625 665 309 c 0,44,-1
 665 142.77734375 533.395507812 6 369 6 c 0,47,-1
 204.604492188 6 73 142.77734375 73 309 c 0,38,-1
EndSplineSet
Ligature2: "Vdenpabu-1 subtable" denpabu aibu
Substitution2: "Single Substitution lookup 196 subtable" aibu.cv
Substitution2: "Single Substitution lookup 192 subtable" aibu.cvc
Substitution2: "Single Substitution lookup 188 subtable" aibu.ccv
Ligature2: "diphthongs-1 subtable" abu ibu
Ligature2: "Vdenpabu-0 subtable" denpabu aibu
Substitution2: "Single Substitution lookup 130 subtable" aibu.cv
Substitution2: "Single Substitution lookup 126 subtable" aibu.cvc
Substitution2: "Single Substitution lookup 122 subtable" aibu.ccv
Ligature2: "diphthongs-0 subtable" abu ibu
Ligature2: "Vdenpabu subtable" denpabu aibu
Substitution2: "Single Substitution lookup 64 subtable" aibu.cv
Substitution2: "Single Substitution lookup 60 subtable" aibu.cvc
Substitution2: "Single Substitution lookup 56 subtable" aibu.ccv
Ligature2: "diphthongs subtable" abu ibu
LCarets2: 1 0
EndChar

StartChar: aubu
Encoding: 29 60285 29
Width: 738
VWidth: 0
Flags: W
HStem: -110 50<215 513> -20 20G<165 215> 6 50<273.531 464.469> 562 50<273.531 464.469>
VStem: 73 50<205.063 412.937> 165 50<-176 -110 -60 0> 513 50<-277 -110> 615 50<205.063 412.937>
LayerCount: 2
Back
Refer: 83 -1 N 1 0 0 1 0 0 2
Refer: 31 60287 N 1 0 0 1 0 0 2
Fore
SplineSet
100 30 m 1025,0,-1
190 0 m 1,1,-1
 215 0 l 1,2,-1
 215 -25 l 1,3,-1
 215 -60 l 1,4,-1
 538 -60 l 2,5,-1
 553.1328125 -60 563 -74.2705078125 563 -85 c 2,8,-1
 563 -252 l 1,9,-1
 563 -277 l 1,10,-1
 538 -277 l 1,11,-1
 513 -277 l 1,12,-1
 513 -252 l 1,13,-1
 513 -110 l 1,14,-1
 215 -110 l 1,15,-1
 215 -151 l 1,16,-1
 215 -176 l 1,17,-1
 190 -176 l 1,18,-1
 165 -176 l 1,19,-1
 165 -151 l 1,20,-1
 165 -110 l 1,21,-1
 165 -85 l 1,22,-1
 165 -60 l 1,23,-1
 165 -25 l 1,24,-1
 165 0 l 1,25,-1
 190 0 l 1,1,-1
123 309 m 0,26,-1
 123 169.22265625 233.395507812 56 369 56 c 0,29,-1
 504.604492188 56 615 169.22265625 615 309 c 0,32,-1
 615 448.77734375 504.604492188 562 369 562 c 0,35,-1
 233.395507812 562 123 448.77734375 123 309 c 0,26,-1
73 309 m 0,38,-1
 73 475.22265625 204.604492188 612 369 612 c 0,41,-1
 533.395507812 612 665 475.22265625 665 309 c 0,44,-1
 665 142.77734375 533.395507812 6 369 6 c 0,47,-1
 204.604492188 6 73 142.77734375 73 309 c 0,38,-1
EndSplineSet
Ligature2: "Vdenpabu-1 subtable" denpabu aubu
Substitution2: "Single Substitution lookup 196 subtable" aubu.cv
Substitution2: "Single Substitution lookup 192 subtable" aubu.cvc
Substitution2: "Single Substitution lookup 188 subtable" aubu.ccv
Ligature2: "diphthongs-1 subtable" abu ubu
Ligature2: "Vdenpabu-0 subtable" denpabu aubu
Substitution2: "Single Substitution lookup 130 subtable" aubu.cv
Substitution2: "Single Substitution lookup 126 subtable" aubu.cvc
Substitution2: "Single Substitution lookup 122 subtable" aubu.ccv
Ligature2: "diphthongs-0 subtable" abu ubu
Ligature2: "Vdenpabu subtable" denpabu aubu
Substitution2: "Single Substitution lookup 64 subtable" aubu.cv
Substitution2: "Single Substitution lookup 60 subtable" aubu.cvc
Substitution2: "Single Substitution lookup 56 subtable" aubu.ccv
Ligature2: "diphthongs subtable" abu ubu
LCarets2: 1 0
EndChar

StartChar: denpabu
Encoding: 31 60287 31
Width: 738
VWidth: 0
Flags: W
HStem: 6 50<273.531 464.469> 562 50<273.531 464.469>
VStem: 73 50<205.063 412.937> 615 50<205.063 412.937>
AnchorPoint: "Above" 369 0 basechar 0
LayerCount: 2
Back
SplineSet
98 309 m 0
 98 462 219 587 369 587 c 0
 519 587 640 462 640 309 c 0
 640 156 519 31 369 31 c 0
 219 31 98 156 98 309 c 0
100 30 m 1049
EndSplineSet
Fore
SplineSet
100 30 m 1025,0,-1
73 309 m 0,1,-1
 73 475.222374815 204.604027446 612 369 612 c 0,4,-1
 533.395970664 612 665 475.222376195 665 309 c 0,7,-1
 665 142.777625185 533.395972554 6 369 6 c 0,10,-1
 204.604029336 6 73 142.777623805 73 309 c 0,1,-1
123 309 m 0,13,-1
 123 169.222376195 233.395970664 56 369 56 c 0,16,-1
 504.604027446 56 615 169.222374815 615 309 c 0,19,-1
 615 448.777623805 504.604029336 562 369 562 c 0,22,-1
 233.395972554 562 123 448.777625185 123 309 c 0,13,-1
EndSplineSet
EndChar

StartChar: ebu.cv
Encoding: 42 -1 32
Width: 0
VWidth: 0
Flags: W
HStem: -110 50<255 344 394 523>
VStem: 205 50<-267 -110> 344 50<-185 -110 -60 56>
AnchorPoint: "Above" 369 0 mark 0
LayerCount: 2
Back
SplineSet
369 31 m 5
 369 -200 l 1053
688 -85 m 5
 50 -85 l 5
 50 -312 l 1029
EndSplineSet
Fore
SplineSet
523 -85 m 1
 523 -110 l 1
 498 -110 l 1
 394 -110 l 1
 394 -160 l 1
 394 -185 l 1
 369 -185 l 1
 344 -185 l 1
 344 -160 l 1
 344 -110 l 1
 255 -110 l 1
 255 -242 l 1
 255 -267 l 1
 230 -267 l 1
 205 -267 l 1
 205 -242 l 1
 205 -85 l 2
 205 -74.2700956673 214.867462144 -60 230 -60 c 2
 344 -60 l 1
 344 31 l 1
 344 56 l 1
 369 56 l 1
 394 56 l 1
 394 31 l 1
 394 -60 l 1
 498 -60 l 1
 523 -60 l 1
 523 -85 l 1
EndSplineSet
EndChar

StartChar: obu.cv
Encoding: 43 -1 33
Width: 0
VWidth: 0
Flags: W
HStem: -110 50<206 344 394 501>
VStem: 344 50<-190 -110 -60 56> 501 50<-273 -110>
AnchorPoint: "Above" 369 0 mark 0
LayerCount: 2
Back
SplineSet
369 31 m 5
 369 -200 l 1053
50 -85 m 5
 688 -85 l 13
 688 -312 l 1053
EndSplineSet
Fore
SplineSet
206 -85 m 1
 206 -60 l 1
 231 -60 l 1
 344 -60 l 1
 344 31 l 1
 344 56 l 1
 369 56 l 1
 394 56 l 1
 394 31 l 1
 394 -60 l 1
 526 -60 l 2
 541.1328125 -60 551 -85 551 -85 c 1
 551 -248 l 1
 551 -273 l 1
 526 -273 l 1
 501 -273 l 1
 501 -248 l 1
 501 -110 l 1
 394 -110 l 1
 394 -165 l 1
 394 -190 l 1
 369 -190 l 1
 344 -190 l 1
 344 -165 l 1
 344 -110 l 1
 231 -110 l 1
 206 -110 l 1
 206 -85 l 1
EndSplineSet
EndChar

StartChar: ibu.cv
Encoding: 44 -1 34
Width: 0
VWidth: 0
Flags: W
HStem: -110 50<274 520>
VStem: 224 50<-282 -110>
AnchorPoint: "Above" 369 0 mark 0
LayerCount: 2
Back
SplineSet
688 -85 m 5
 50 -85 l 5
 50 -312 l 1029
EndSplineSet
Fore
SplineSet
520 -85 m 1
 520 -110 l 1
 495 -110 l 1
 274 -110 l 1
 274 -257 l 1
 274 -282 l 1
 249 -282 l 1
 224 -282 l 1
 224 -257 l 1
 224 -85 l 1
 249 -60 l 1
 495 -60 l 1
 520 -60 l 1
 520 -85 l 1
EndSplineSet
EndChar

StartChar: my.cvc.1
Encoding: 32 -1 35
Width: 738
VWidth: 0
Flags: W
HStem: 205 50<175 563> 364 50<175 563> 523 50<175 563>
VStem: 125 50<255 364 414 523> 563 50<255 364 414 523>
CounterMasks: 1 e0
AnchorPoint: "Above" 369 0 basechar 0
LayerCount: 2
Back
SplineSet
150 548 m 1
 588 548 l 1
 588 230 l 1
 150 230 l 1
 150 548 l 1
150 389 m 1
 588 389 l 1025
EndSplineSet
Fore
SplineSet
563 364 m 1
 175 364 l 1
 175 255 l 1
 563 255 l 1
 563 364 l 1
563 414 m 1
 563 523 l 1
 175 523 l 1
 175 414 l 1
 563 414 l 1
150 573 m 2
 588 573 l 2
 603.132537856 573 613 558.729904333 613 548 c 2
 613 230 l 2
 613 214.867462144 598.729904333 205 588 205 c 2
 150 205 l 2
 134.867462144 205 125 219.270095667 125 230 c 2
 125 548 l 2
 125 563.132537856 139.270095667 573 150 573 c 2
EndSplineSet
EndChar

StartChar: my.ccv.1
Encoding: 96 -1 36
Width: 738
VWidth: 0
Flags: W
HStem: 25 50<120 289> 274 50<120 289> 523 50<120 289>
VStem: 70 50<75 274 324 523> 289 50<75 274 324 523>
CounterMasks: 1 e0
AnchorPoint: "Above" 369 0 basechar 0
LayerCount: 2
Back
SplineSet
314 299 m 5
 96 299 l 1029
95 548 m 5
 314 548 l 5
 314 50 l 5
 95 50 l 5
 95 548 l 5
EndSplineSet
Fore
SplineSet
120 274 m 1
 120 75 l 1
 289 75 l 1
 289 274 l 1
 120 274 l 1
120 324 m 1
 289 324 l 1
 289 523 l 1
 120 523 l 1
 120 324 l 1
95 573 m 2
 314 573 l 2
 329.132537856 573 339 558.729904333 339 548 c 2
 339 324 l 1
 339 299 l 1
 339 274 l 1
 339 50 l 2
 339 34.8674621445 324.729904333 25 314 25 c 2
 95 25 l 2
 79.8674621445 25 70 39.2700956673 70 50 c 2
 70 548 l 2
 70 563.132537856 84.2700956673 573 95 573 c 2
EndSplineSet
EndChar

StartChar: my.ccv.2
Encoding: 128 -1 37
Width: 0
VWidth: 0
Flags: W
HStem: 25 50<451 619> 274 50<451 619> 523 50<451 619>
VStem: 401 50<75 274 324 523> 619 50<75 274 324 523>
CounterMasks: 1 e0
AnchorPoint: "Above" 369 0 mark 0
LayerCount: 2
Back
SplineSet
426 299 m 29
 644 299 l 1053
426 548 m 29
 644 548 l 29
 644 50 l 29
 426 50 l 29
 426 548 l 29
EndSplineSet
Fore
SplineSet
426 573 m 2
 644 573 l 2
 659.132537856 573 669 558.729904333 669 548 c 2
 669 324 l 1
 669 299 l 1
 669 274 l 1
 669 50 l 2
 669 34.8674621445 654.729904333 25 644 25 c 2
 426 25 l 2
 410.867462144 25 401 39.2700956673 401 50 c 2
 401 274 l 1
 401 299 l 1
 401 324 l 1
 401 548 l 2
 401 563.132537856 415.270095667 573 426 573 c 2
451 274 m 1
 451 75 l 1
 619 75 l 1
 619 274 l 1
 451 274 l 1
451 324 m 1
 619 324 l 1
 619 523 l 1
 451 523 l 1
 451 324 l 1
EndSplineSet
EndChar

StartChar: ebu.ccv
Encoding: 106 -1 38
Width: 0
VWidth: 0
Flags: W
HStem: -110 50<100 510 560 668>
VStem: 50 50<-267 -110> 510 50<-185 -110 -60 54>
AnchorPoint: "Above" 369 0 mark 0
LayerCount: 2
Back
SplineSet
740 545 m 5
 820 545 l 1029
820 720 m 5
 820 350 l 1029
EndSplineSet
Fore
SplineSet
668 -85 m 1
 668 -110 l 1
 643 -110 l 1
 560 -110 l 1
 560 -160 l 1
 560 -185 l 1
 535 -185 l 1
 510 -185 l 1
 510 -160 l 1
 510 -110 l 1
 100 -110 l 1
 100 -242 l 1
 100 -267 l 1
 75 -267 l 1
 50 -267 l 1
 50 -242 l 1
 50 -85 l 2
 50 -74.2705078125 75 -60 75 -60 c 1
 510 -60 l 1
 510 29 l 1
 510 54 l 1
 535 54 l 1
 560 54 l 1
 560 29 l 1
 560 -60 l 1
 643 -60 l 1
 668 -60 l 1
 668 -85 l 1
EndSplineSet
EndChar

StartChar: ry.ccv.2
Encoding: 137 -1 39
Width: 0
VWidth: 0
Flags: W
VStem: 393.073 283.854
AnchorPoint: "Above" 369 0 mark 0
LayerCount: 2
Back
SplineSet
426 50 m 29
 644 548 l 1053
426 548 m 29
 644 50 l 1053
EndSplineSet
Fore
SplineSet
415.974704444 570.901821958 m 1
 438.876526402 580.927117514 l 1
 448.901821958 558.025295556 l 1
 535 361.342301681 l 1
 621.098178042 558.025295556 l 1
 631.123473598 580.927117514 l 1
 654.025295556 570.901821958 l 1
 676.927117514 560.876526402 l 1
 666.901821958 537.974704444 l 1
 562.290405154 299 l 1
 666.901821958 60.0252955561 l 1
 676.927117514 37.1234735977 l 1
 654.025295556 27.0981780416 l 1
 631.123473598 17.0728824855 l 1
 621.098178042 39.9747044439 l 1
 535 236.657698319 l 1
 448.901821958 39.9747044439 l 1
 438.876526402 17.0728824855 l 1
 415.974704444 27.0981780416 l 1
 393.072882486 37.1234735977 l 1
 403.098178042 60.0252955561 l 1
 507.709594846 299 l 1
 403.098178042 537.974704444 l 1
 393.072882486 560.876526402 l 1
 415.974704444 570.901821958 l 1
EndSplineSet
EndChar

StartChar: py.cvc.1
Encoding: 33 -1 40
Width: 738
VWidth: 0
Flags: W
HStem: 205 50<175 613> 364 50<175 612> 523 50<175 613>
VStem: 125 50<255 364 414 523>
CounterMasks: 1 e0
AnchorPoint: "Above" 369 0 basechar 0
LayerCount: 2
Back
SplineSet
150 389 m 5
 587 389 l 1029
588 230 m 5
 150 230 l 5
 150 548 l 5
 588 548 l 1029
EndSplineSet
Fore
SplineSet
613 230 m 1
 613 205 l 1
 588 205 l 1
 150 205 l 2
 134.867462144 205 125 219.270095667 125 230 c 2
 125 364 l 1
 125 389 l 1
 125 414 l 1
 125 548 l 2
 125 563.132537856 139.270095667 573 150 573 c 2
 588 573 l 1
 613 573 l 1
 613 548 l 1
 613 523 l 1
 588 523 l 1
 175 523 l 1
 175 414 l 1
 587 414 l 1
 612 414 l 1
 612 389 l 1
 612 364 l 1
 587 364 l 1
 175 364 l 1
 175 255 l 1
 588 255 l 1
 613 255 l 1
 613 230 l 1
EndSplineSet
EndChar

StartChar: by.cvc.1
Encoding: 34 -1 41
Width: 738
VWidth: 0
Flags: W
HStem: 205 50<125 563> 364 50<126 563> 523 50<125 563>
VStem: 563 50<255 364 414 523>
CounterMasks: 1 e0
AnchorPoint: "Above" 369 0 basechar 0
LayerCount: 2
Back
SplineSet
588 389 m 5
 151 389 l 1029
150 548 m 5
 588 548 l 5
 588 230 l 5
 150 230 l 1029
EndSplineSet
Fore
SplineSet
125 548 m 1
 125 573 l 1
 150 573 l 1
 588 573 l 2
 603.132537856 573 613 558.729904333 613 548 c 2
 613 414 l 1
 613 389 l 1
 613 364 l 1
 613 230 l 2
 613 214.867462144 598.729904333 205 588 205 c 2
 150 205 l 1
 125 205 l 1
 125 230 l 1
 125 255 l 1
 150 255 l 1
 563 255 l 1
 563 364 l 1
 151 364 l 1
 126 364 l 1
 126 389 l 1
 126 414 l 1
 151 414 l 1
 563 414 l 1
 563 523 l 1
 150 523 l 1
 125 523 l 1
 125 548 l 1
EndSplineSet
EndChar

StartChar: fy.cvc.1
Encoding: 35 -1 42
Width: 738
VWidth: 0
Flags: W
HStem: 205 50<175 502.027> 364 50<175 517.393>
VStem: 125 50<255 364 414 573>
AnchorPoint: "Above" 369 0 basechar 0
LayerCount: 2
Back
SplineSet
531 389 m 29
 153 389 l 1053
150 548 m 29
 150 230 l 29
 523 230 l 21
 533.494140625 382.091796875 567.032226562 446.2109375 628 548 c 1037
EndSplineSet
Fore
SplineSet
150 573 m 1
 175 573 l 1
 175 548 l 1
 175 414 l 1
 531 414 l 1
 532.448329198 414 l 1
 550.676173221 465.064011467 575.437910789 508.897893379 606.552860927 560.846019835 c 2
 619.398880762 582.293158908 l 1
 640.846019835 569.447139073 l 1
 662.293158908 556.601119238 l 1
 649.447139073 535.153980165 l 2
 588.751548991 433.8193428 558.197009099 376.924003519 547.940701342 228.279123315 c 0
 547.160775717 216.975645125 536.793003541 205 523 205 c 2
 150 205 l 2
 139.270095667 205 125 214.867462144 125 230 c 2
 125 548 l 1
 125 573 l 1
 150 573 l 1
175 364 m 1
 175 255 l 1
 499.900820897 255 l 1
 503.66899902 296.810922093 509.510200451 332.262086842 517.393262416 364 c 1
 175 364 l 1
EndSplineSet
EndChar

StartChar: vy.cvc.1
Encoding: 36 -1 43
Width: 738
VWidth: 0
Flags: W
HStem: 364 50<220.607 563> 523 50<235.973 563>
VStem: 563 50<205 364 414 523>
AnchorPoint: "Above" 369 0 basechar 0
LayerCount: 2
Back
SplineSet
207 389 m 29
 585 389 l 1053
588 230 m 29
 588 548 l 29
 215 548 l 21
 204.505859375 395.908203125 170.967773438 331.7890625 110 230 c 1037
EndSplineSet
Fore
SplineSet
588 205 m 1
 563 205 l 1
 563 230 l 1
 563 364 l 1
 207 364 l 1
 205.551670802 364 l 1
 187.323826779 312.935988533 162.562089211 269.102106621 131.447139073 217.153980165 c 2
 118.601119238 195.706841092 l 1
 97.153980165 208.552860927 l 1
 75.7068410924 221.398880762 l 1
 88.5528609274 242.846019835 l 2
 149.248451009 344.1806572 179.802990901 401.075996481 190.059298658 549.720876685 c 0
 190.839224283 561.024354875 201.206996459 573 215 573 c 2
 588 573 l 2
 598.729904333 573 613 563.132537856 613 548 c 2
 613 230 l 1
 613 205 l 1
 588 205 l 1
563 414 m 1
 563 523 l 1
 238.099179103 523 l 1
 234.33100098 481.189077907 228.489799549 445.737913158 220.606737584 414 c 1
 563 414 l 1
EndSplineSet
EndChar

StartChar: ky.cvc.1
Encoding: 37 -1 44
Width: 738
VWidth: 0
Flags: W
AnchorPoint: "Above" 369 0 basechar 0
LayerCount: 2
Back
SplineSet
590 550 m 5
 149 390 l 5
 590 228 l 1029
EndSplineSet
Fore
SplineSet
613.501053046 558.526459155 m 1
 622.027512201 535.025406109 l 1
 598.526459155 526.498946954 l 1
 221.899200872 389.854136692 l 1
 598.620436567 251.466743988 l 1
 622.087180555 242.846307421 l 1
 613.466743988 219.379563433 l 1
 604.846307421 195.912819445 l 1
 581.379563433 204.533256012 l 1
 140.379563433 366.533256012 l 2
 134.625307519 368.647064307 129.023432463 373.532452293 126.240350274 379.655999597 c 0
 120.294451737 392.738613937 126.9647559 408.599906581 140.473540845 413.501053046 c 2
 581.473540845 573.501053046 l 1
 604.974593891 582.027512201 l 1
 613.501053046 558.526459155 l 1
EndSplineSet
EndChar

StartChar: cy.cvc.1
Encoding: 38 -1 45
Width: 738
VWidth: 0
Flags: W
HStem: 364 50<125 313.302 419.634 612>
VStem: 343.003 49.9931<205.42 314.58 314.581 363.005>
AnchorPoint: "Above" 369 0 basechar 0
LayerCount: 2
Back
SplineSet
150 389 m 5
 587 389 l 1029
369 290 m 5
 368 230 l 1029
150 548 m 5
 222.552734375 516.814453125 365.170898438 488.842773438 369 290 c 5
 365.561523438 481.125 496.807617188 520.217773438 588 548 c 1029
EndSplineSet
Fore
SplineSet
127.031877125 557.872453171 m 1
 136.904330296 580.840576046 l 1
 159.872453171 570.968122875 l 2
 210.264115858 549.308132078 316.045020375 524.875076631 366.790526961 418.789853602 c 1
 412.256009839 522.498256155 513.865644989 551.549033976 580.714233966 571.914799044 c 2
 604.62903301 579.200565077 l 1
 611.914799044 555.285766034 l 1
 619.200565077 531.37096699 l 1
 595.285766034 524.085200956 l 2
 531.499520275 504.652394437 457.714834687 483.426634639 419.63383206 414 c 1
 587 414 l 1
 612 414 l 1
 612 389 l 1
 612 364 l 1
 587 364 l 1
 400.915662565 364 l 1
 397.460292521 349.12335278 395.200349347 332.716953254 394.332333396 314.581266425 c 1
 394.359268034 314.581266425 394.386202672 314.579919693 394.413137309 314.579919693 c 2
 393.996528501 289.583391192 l 1
 392.996528501 229.583391192 l 1
 392.579919693 204.586862691 l 1
 367.583391192 205.003471499 l 1
 342.586862691 205.420080307 l 1
 343.003471499 230.416608808 l 1
 343.995876678 289.960919571 l 2
 343.417817999 318.370694555 339.930838379 342.827135253 334.161505591 364 c 1
 150 364 l 1
 125 364 l 1
 125 389 l 1
 125 414 l 1
 150 414 l 1
 313.302347211 414 l 1
 271.205807746 484.664494669 194.683454583 501.581957102 140.127546829 525.031877125 c 1
 141.127546829 525.031877125 139.208821914 525.426775252 140.127546829 525.031877125 c 1
 117.159423954 534.904330296 l 1
 127.031877125 557.872453171 l 1
EndSplineSet
EndChar

StartChar: xy.cvc.1
Encoding: 39 -1 46
Width: 738
VWidth: 0
Flags: W
HStem: 523.907 48.186<516.358 605.545>
VStem: 344 50<205 423.554>
AnchorPoint: "Above" 369 0 basechar 0
LayerCount: 2
Back
SplineSet
369 330 m 5
 369 230 l 1029
150 548 m 5
 226.69921875 519.63671875 364.952148438 510.848632812 369 330 c 5
 365.561523438 503.75 496.807617188 522.743164062 588 548 c 1029
EndSplineSet
Fore
SplineSet
126.551919143 556.671072835 m 1
 135.222991977 580.119153692 l 1
 158.671072835 571.448080857 l 2
 210.2841108 552.361639876 316.491233026 540.21259798 367.082455747 445.98870067 c 1
 414.504180994 538.9504639 516.941233941 554.260548799 581.327149198 572.093008575 c 2
 605.420157772 578.765859377 l 1
 612.093008575 554.672850802 l 1
 618.765859377 530.579842228 l 1
 594.672850802 523.906991425 l 2
 501.38188918 498.068928646 397.038535052 485.080502427 394 343.222084896 c 2
 394 330 l 1
 394 230 l 1
 394 205 l 1
 369 205 l 1
 344 205 l 1
 344 230 l 1
 344 329.715352206 l 2
 340.256805308 491.18973927 226.360372181 493.10739038 141.328927165 524.551919143 c 2
 117.880846308 533.222991977 l 1
 126.551919143 556.671072835 l 1
EndSplineSet
EndChar

StartChar: iy.cvc.1
Encoding: 40 -1 47
Width: 738
VWidth: 0
Flags: W
HStem: 205 50<175 613>
VStem: 125 50<255 573>
AnchorPoint: "Above" 369 0 basechar 0
LayerCount: 2
Back
SplineSet
588 230 m 5
 150 230 l 5
 150 548 l 1029
EndSplineSet
Fore
SplineSet
613 230 m 1
 613 205 l 1
 588 205 l 1
 150 205 l 2
 134.867462144 205 125 219.270095667 125 230 c 2
 125 548 l 1
 125 573 l 1
 150 573 l 1
 175 573 l 1
 175 548 l 1
 175 255 l 1
 588 255 l 1
 613 255 l 1
 613 230 l 1
EndSplineSet
EndChar

StartChar: ry.cvc.1
Encoding: 41 -1 48
Width: 738
VWidth: 0
Flags: W
AnchorPoint: "Above" 369 0 basechar 0
LayerCount: 2
Back
SplineSet
150 230 m 5
 588 548 l 1029
150 548 m 5
 588 230 l 1029
EndSplineSet
Fore
SplineSet
129.769620673 562.687809649 m 1
 144.457430321 582.918188976 l 1
 164.687809649 568.230379327 l 1
 369 419.894131538 l 1
 573.312190351 568.230379327 l 1
 593.542569679 582.918188976 l 1
 608.230379327 562.687809649 l 1
 622.918188976 542.457430321 l 1
 602.687809649 527.769620673 l 1
 411.552294382 389 l 1
 602.687809649 250.230379327 l 1
 622.918188976 235.542569679 l 1
 608.230379327 215.312190351 l 1
 593.542569679 195.081811024 l 1
 573.312190351 209.769620673 l 1
 369 358.105868462 l 1
 164.687809649 209.769620673 l 1
 144.457430321 195.081811024 l 1
 129.769620673 215.312190351 l 1
 115.081811024 235.542569679 l 1
 135.312190351 250.230379327 l 1
 326.447705618 389 l 1
 135.312190351 527.769620673 l 1
 115.081811024 542.457430321 l 1
 129.769620673 562.687809649 l 1
EndSplineSet
EndChar

StartChar: ny.cvc.1
Encoding: 48 -1 49
Width: 738
VWidth: 0
Flags: W
HStem: 205 50<175 563> 523 50<175 563>
VStem: 125 50<255 523> 563 50<255 523>
AnchorPoint: "Above" 369 0 basechar 0
LayerCount: 2
Back
SplineSet
150 548 m 5
 588 548 l 5
 588 230 l 5
 150 230 l 5
 150 548 l 5
EndSplineSet
Fore
SplineSet
150 573 m 2
 588 573 l 2
 603.132537856 573 613 558.729904333 613 548 c 2
 613 230 l 2
 613 214.867462144 598.729904333 205 588 205 c 2
 150 205 l 2
 134.867462144 205 125 219.270095667 125 230 c 2
 125 548 l 2
 125 563.132537856 139.270095667 573 150 573 c 2
175 523 m 1
 175 255 l 1
 563 255 l 1
 563 523 l 1
 175 523 l 1
EndSplineSet
EndChar

StartChar: ty.cvc.1
Encoding: 49 -1 50
Width: 738
VWidth: 0
Flags: W
HStem: 203 50<175 615> 526 50<175 615>
VStem: 125 50<253 526>
AnchorPoint: "Above" 369 0 basechar 0
LayerCount: 2
Back
SplineSet
590 228 m 5
 150 228 l 5
 150 551 l 5
 590 551 l 1029
EndSplineSet
Fore
SplineSet
615 228 m 1
 615 203 l 1
 590 203 l 1
 150 203 l 2
 134.867462144 203 125 217.270095667 125 228 c 2
 125 551 l 2
 125 566.132537856 139.270095667 576 150 576 c 2
 590 576 l 1
 615 576 l 1
 615 551 l 1
 615 526 l 1
 590 526 l 1
 175 526 l 1
 175 253 l 1
 590 253 l 1
 615 253 l 1
 615 228 l 1
EndSplineSet
EndChar

StartChar: dy.cvc.1
Encoding: 50 -1 51
Width: 738
VWidth: 0
Flags: W
HStem: 202.886 49.9995<125.114 563> 523 50<125 563>
VStem: 563 50<254.886 523>
AnchorPoint: "Above" 369 0 basechar 0
LayerCount: 2
Back
SplineSet
150 548 m 5
 588 548 l 5
 588 230 l 5
 150 228 l 1029
EndSplineSet
Fore
SplineSet
125 548 m 1
 125 573 l 1
 150 573 l 1
 588 573 l 2
 603.132537856 573 613 558.729904333 613 548 c 2
 613 230 l 2
 613 215.75628525 600.42879375 205.056491856 588.114154061 205.000260624 c 2
 150.114154061 203.000260624 l 1
 125.114414685 202.886106563 l 1
 125.000260624 227.885845939 l 1
 124.886106563 252.885585315 l 1
 149.885845939 252.999739376 l 1
 563 254.886105376 l 1
 563 523 l 1
 150 523 l 1
 125 523 l 1
 125 548 l 1
EndSplineSet
EndChar

StartChar: sy.cvc.1
Encoding: 51 -1 52
Width: 738
VWidth: 0
Flags: W
HStem: 205 50<175 501.831>
VStem: 125 50<255 573>
AnchorPoint: "Above" 369 0 basechar 0
LayerCount: 2
Back
SplineSet
150 548 m 5
 150 230 l 5
 523 230 l 5
 533.494140625 382.091796875 567.032226562 446.2109375 628 548 c 1029
EndSplineSet
Fore
SplineSet
150 573 m 1
 175 573 l 1
 175 548 l 1
 175 255 l 1
 499.900820897 255 l 1
 512.535818851 395.195313985 548.478101938 463.887004619 606.552860927 560.846019835 c 2
 619.398880762 582.293158908 l 1
 640.846019835 569.447139073 l 1
 662.293158908 556.601119238 l 1
 649.447139073 535.153980165 l 2
 588.751548991 433.8193428 558.197009099 376.924003519 547.940701342 228.279123315 c 0
 547.160775717 216.975645125 536.793003541 205 523 205 c 2
 150 205 l 2
 139.270095667 205 125 214.867462144 125 230 c 2
 125 548 l 1
 125 573 l 1
 150 573 l 1
EndSplineSet
EndChar

StartChar: zy.cvc.1
Encoding: 52 -1 53
Width: 738
VWidth: 0
Flags: W
HStem: 523 50<236.169 563>
VStem: 563 50<205 523>
AnchorPoint: "Above" 369 0 basechar 0
LayerCount: 2
Back
SplineSet
588 230 m 29
 588 548 l 29
 215 548 l 21
 204.505859375 395.908203125 170.967773438 331.7890625 110 230 c 1037
EndSplineSet
Fore
SplineSet
588 205 m 1
 563 205 l 1
 563 230 l 1
 563 523 l 1
 238.099179103 523 l 1
 225.464181149 382.804686015 189.521898062 314.112995381 131.447139073 217.153980165 c 2
 118.601119238 195.706841092 l 1
 97.153980165 208.552860927 l 1
 75.7068410924 221.398880762 l 1
 88.5528609274 242.846019835 l 2
 149.248451009 344.1806572 179.802990901 401.075996481 190.059298658 549.720876685 c 0
 190.839224283 561.024354875 201.206996459 573 215 573 c 2
 588 573 l 2
 598.729904333 573 613 563.132537856 613 548 c 2
 613 230 l 1
 613 205 l 1
 588 205 l 1
EndSplineSet
EndChar

StartChar: gy.cvc.1
Encoding: 53 -1 54
Width: 738
VWidth: 0
Flags: W
AnchorPoint: "Above" 369 0 basechar 0
LayerCount: 2
Back
SplineSet
150 548 m 5
 587 389 l 5
 150 230 l 1029
EndSplineSet
Fore
SplineSet
126.506734454 556.547892956 m 1
 135.05462741 580.041158502 l 1
 158.547892956 571.493265546 l 1
 157.608162334 571.835181264 157.547892956 571.493265546 158.547892956 571.493265546 c 1
 595.547892956 412.493265546 l 2
 609.05220152 407.579798586 615.708034447 391.712427978 609.750204598 378.635242851 c 0
 606.805692339 372.172162687 599.316224404 366.877820725 595.547892956 365.506734454 c 2
 158.547892956 206.506734454 l 1
 135.05462741 197.958841498 l 1
 126.506734454 221.452107044 l 1
 117.958841498 244.94537259 l 1
 141.452107044 253.493265546 l 1
 513.882565889 389 l 1
 141.452107044 524.506734454 l 1
 117.958841498 533.05462741 l 1
 126.506734454 556.547892956 l 1
EndSplineSet
EndChar

StartChar: jy.cvc.1
Encoding: 54 -1 55
Width: 738
VWidth: 0
Flags: W
HStem: 364 50<126 318.366 424.698 613>
VStem: 345.003 49.9931<414.995 463.419 463.42 572.58>
AnchorPoint: "Above" 369 0 basechar 0
LayerCount: 2
Back
SplineSet
588 389 m 5
 151 389 l 1029
369 488 m 5
 370 548 l 1029
588 230 m 5
 515.447265625 261.185546875 372.829101562 289.157226562 369 488 c 5
 372.438476562 296.875 241.192382812 257.782226562 150 230 c 1029
EndSplineSet
Fore
SplineSet
610.968122875 220.127546829 m 1
 601.095669704 197.159423954 l 1
 578.127546829 207.031877125 l 2
 527.735884142 228.691867922 421.954979625 253.124923369 371.209473039 359.210146398 c 1
 325.743990161 255.501743845 224.134355011 226.450966024 157.285766034 206.085200956 c 2
 133.37096699 198.799434923 l 1
 126.085200956 222.714233966 l 1
 118.799434923 246.62903301 l 1
 142.714233966 253.914799044 l 1
 143.670825928 254.206229685 141.714233966 253.914799044 142.714233966 253.914799044 c 1
 206.500479725 273.347605563 280.285165313 294.573365361 318.36616794 364 c 1
 151 364 l 1
 126 364 l 1
 126 389 l 1
 126 414 l 1
 151 414 l 1
 337.084337435 414 l 1
 340.539707479 428.87664722 342.799650653 445.283046746 343.667666604 463.418733575 c 1
 343.640731966 463.418733575 343.613797328 463.420080307 343.586862691 463.420080307 c 2
 344.003471499 488.416608808 l 1
 345.003471499 548.416608808 l 1
 345.420080307 573.413137309 l 1
 370.416608808 572.996528501 l 1
 395.413137309 572.579919693 l 1
 394.996528501 547.583391192 l 1
 394.004123322 488.039080429 l 2
 394.582182001 459.629305445 398.069161621 435.172864747 403.838494409 414 c 1
 588 414 l 1
 613 414 l 1
 613 389 l 1
 613 364 l 1
 588 364 l 1
 424.697652789 364 l 1
 466.794192254 293.335505331 543.316545417 276.418042898 597.872453171 252.968122875 c 2
 620.840576046 243.095669704 l 1
 610.968122875 220.127546829 l 1
EndSplineSet
EndChar

StartChar: yhy.cvc.1
Encoding: 55 -1 56
Width: 738
VWidth: 0
Flags: W
HStem: 205 50<175 563> 523 50<175 563>
VStem: 125 50<255 523> 563 50<255 523>
AnchorPoint: "Above" 369 0 basechar 0
LayerCount: 2
Back
SplineSet
620 50 m 1
 620 730 l 1
 120 50 l 1
 120 730 l 1025
EndSplineSet
Fore
SplineSet
150 573 m 2
 588 573 l 2
 603.132537856 573 613 558.729904333 613 548 c 2
 613 230 l 2
 613 214.867462144 598.729904333 205 588 205 c 2
 150 205 l 2
 134.867462144 205 125 219.270095667 125 230 c 2
 125 548 l 2
 125 563.132537856 139.270095667 573 150 573 c 2
175 523 m 1
 175 255 l 1
 563 255 l 1
 563 523 l 1
 175 523 l 1
EndSplineSet
EndChar

StartChar: uy.cvc.1
Encoding: 56 -1 57
Width: 738
VWidth: 0
Flags: W
HStem: 205 50<125 563>
VStem: 563 50<255 573>
AnchorPoint: "Above" 369 0 basechar 0
LayerCount: 2
Back
SplineSet
588 548 m 29
 588 230 l 29
 150 230 l 1053
EndSplineSet
Fore
SplineSet
588 573 m 1
 613 573 l 1
 613 548 l 1
 613 230 l 2
 613 214.867462144 598.729904333 205 588 205 c 2
 150 205 l 1
 125 205 l 1
 125 230 l 1
 125 255 l 1
 150 255 l 1
 563 255 l 1
 563 548 l 1
 563 573 l 1
 588 573 l 1
EndSplineSet
EndChar

StartChar: ly.cvc.1
Encoding: 57 -1 58
Width: 738
VWidth: 0
Flags: W
HStem: 205 50<125 562.842> 364 50<175 562.157> 523 50<175 613>
VStem: 125 50<414 523> 562.842 50.1572<255 364>
CounterMasks: 1 e0
AnchorPoint: "Above" 369 0 basechar 0
LayerCount: 2
Back
SplineSet
588 548 m 29
 150 548 l 29
 150 389 l 29
 587 389 l 29
 588 230 l 29
 150 230 l 1053
EndSplineSet
Fore
SplineSet
613 548 m 1
 613 523 l 1
 588 523 l 1
 175 523 l 1
 175 414 l 1
 587 414 l 2
 601.259219486 414 611.922551634 401.392905763 611.999505572 389.157229595 c 2
 612.999505572 230.157229595 l 2
 613.094353306 215.07643987 599.020816533 205 588 205 c 2
 150 205 l 1
 125 205 l 1
 125 230 l 1
 125 255 l 1
 150 255 l 1
 562.842272858 255 l 1
 562.156738267 364 l 1
 150 364 l 2
 139.270095667 364 125 373.867462144 125 389 c 2
 125 548 l 2
 125 558.729904333 134.867462144 573 150 573 c 2
 588 573 l 1
 613 573 l 1
 613 548 l 1
EndSplineSet
EndChar

StartChar: py.ccv.1
Encoding: 97 -1 59
Width: 738
VWidth: 0
Flags: W
HStem: 25 50<120 339> 274 50<120 339> 523 50<120 339>
VStem: 70 50<75 274 324 523>
CounterMasks: 1 e0
AnchorPoint: "Above" 369 0 basechar 0
LayerCount: 2
Back
SplineSet
314 299 m 29
 95 299 l 1053
314 548 m 29
 95 548 l 29
 95 50 l 29
 314 50 l 1053
EndSplineSet
Fore
SplineSet
339 548 m 1
 339 523 l 1
 314 523 l 1
 120 523 l 1
 120 324 l 1
 314 324 l 1
 339 324 l 1
 339 299 l 1
 339 274 l 1
 314 274 l 1
 120 274 l 1
 120 75 l 1
 314 75 l 1
 339 75 l 1
 339 50 l 1
 339 25 l 1
 314 25 l 1
 95 25 l 2
 84.2700956673 25 70 34.8674621445 70 50 c 2
 70 274 l 1
 70 299 l 1
 70 324 l 1
 70 548 l 2
 70 558.729904333 79.8674621445 573 95 573 c 2
 314 573 l 1
 339 573 l 1
 339 548 l 1
EndSplineSet
EndChar

StartChar: by.ccv.1
Encoding: 98 -1 60
Width: 738
VWidth: 0
Flags: W
HStem: 25 50<70 289> 274 50<70 289> 523 50<70 289>
VStem: 289 50<75 274 324 523>
CounterMasks: 1 e0
AnchorPoint: "Above" 369 0 basechar 0
LayerCount: 2
Back
SplineSet
95 299 m 29
 314 299 l 1053
95 50 m 29
 314 50 l 29
 314 548 l 29
 95 548 l 1053
EndSplineSet
Fore
SplineSet
70 50 m 1
 70 75 l 1
 95 75 l 1
 289 75 l 1
 289 274 l 1
 95 274 l 1
 70 274 l 1
 70 299 l 1
 70 324 l 1
 95 324 l 1
 289 324 l 1
 289 523 l 1
 95 523 l 1
 70 523 l 1
 70 548 l 1
 70 573 l 1
 95 573 l 1
 314 573 l 2
 324.729904333 573 339 563.132537856 339 548 c 2
 339 324 l 1
 339 299 l 1
 339 274 l 1
 339 50 l 2
 339 39.2700956673 329.132537856 25 314 25 c 2
 95 25 l 1
 70 25 l 1
 70 50 l 1
EndSplineSet
EndChar

StartChar: fy.ccv.1
Encoding: 99 -1 61
Width: 738
VWidth: 0
Flags: W
HStem: 25 50<120 197.479> 286 50<120 222.675>
VStem: 70 50<75 286 336 573>
AnchorPoint: "Above" 369 0 basechar 0
LayerCount: 2
Back
SplineSet
107 311 m 29
 233 311 l 1053
95 548 m 29
 95 50 l 29
 219 50 l 21
 230.955078125 218.803710938 258.41015625 385.16796875 321 546 c 1037
EndSplineSet
Fore
SplineSet
95 573 m 1
 120 573 l 1
 120 548 l 1
 120 336 l 1
 232.607950766 336 l 1
 248.443574227 409.724730556 269.537745268 482.695202944 297.702039582 555.066699531 c 2
 306.768739113 578.364659948 l 1
 330.066699531 569.297960418 l 1
 353.364659948 560.231260887 l 1
 344.297960418 536.933300469 l 2
 282.935078203 379.254092491 255.785848853 215.530049576 243.937537284 48.2338646181 c 0
 243.142457501 37.0074705735 232.803870173 25 219 25 c 2
 95 25 l 2
 84.2700956673 25 70 34.8674621445 70 50 c 2
 70 548 l 1
 70 573 l 1
 95 573 l 1
120 286 m 1
 120 75 l 1
 195.807906744 75 l 1
 201.484074659 146.115899102 209.938982272 216.406305163 222.675041041 286 c 1
 120 286 l 1
EndSplineSet
EndChar

StartChar: vy.ccv.1
Encoding: 100 -1 62
Width: 738
VWidth: 0
Flags: W
HStem: 262 50<186.325 289> 523 50<211.521 289>
VStem: 289 50<25 262 312 523>
AnchorPoint: "Above" 369 0 basechar 0
LayerCount: 2
Back
SplineSet
302 287 m 5
 176 287 l 1029
314 50 m 5
 314 548 l 5
 190 548 l 5
 178.044921875 379.196289062 150.58984375 212.83203125 88 52 c 1029
EndSplineSet
Fore
SplineSet
314 25 m 1
 289 25 l 1
 289 50 l 1
 289 262 l 1
 176.392049234 262 l 1
 160.556425773 188.275269444 139.462254732 115.304797056 111.297960418 42.9333004694 c 2
 102.231260887 19.6353400518 l 1
 78.9333004694 28.7020395823 l 1
 55.6353400518 37.7687391129 l 1
 64.7020395823 61.0666995306 l 2
 126.064921797 218.745907509 153.214151147 382.469950424 165.062462716 549.766135382 c 0
 165.857542499 560.992529427 176.196129827 573 190 573 c 2
 314 573 l 2
 324.729904333 573 339 563.132537856 339 548 c 2
 339 50 l 1
 339 25 l 1
 314 25 l 1
289 312 m 1
 289 523 l 1
 213.192093256 523 l 1
 207.515925341 451.884100898 199.061017728 381.593694837 186.324958959 312 c 1
 289 312 l 1
EndSplineSet
EndChar

StartChar: ky.ccv.1
Encoding: 101 -1 63
Width: 738
VWidth: 0
Flags: W
AnchorPoint: "Above" 369 0 basechar 0
LayerCount: 2
Back
SplineSet
313 543 m 29
 93 309 l 29
 310 48 l 1053
EndSplineSet
Fore
SplineSet
330.124403115 561.214137859 m 1
 348.338540974 544.089734744 l 1
 331.214137859 525.875596885 l 1
 126.357727686 307.982869701 l 1
 329.223631138 63.9828660093 l 1
 345.20649712 44.7592345747 l 1
 325.982865847 28.7763687274 l 1
 306.759234575 12.79350288 l 1
 290.776368727 32.0171341527 l 1
 73.7763687274 293.017134153 l 2
 66.7572320215 301.459505951 65.7547169255 316.518548659 74.785862141 326.124403115 c 2
 294.785862141 560.124403115 l 1
 311.910265256 578.338540974 l 1
 330.124403115 561.214137859 l 1
EndSplineSet
EndChar

StartChar: cy.ccv.1
Encoding: 102 -1 64
Width: 738
VWidth: 0
Flags: W
HStem: 274 50<70 174.665 232.651 339>
VStem: 179 50<25 274>
AnchorPoint: "Above" 369 0 basechar 0
LayerCount: 2
Back
SplineSet
95 299 m 29
 314 299 l 1053
314 548 m 21
 251.998491752 487.333333318 215.33182509 404.000000015 204 298 c 1037
95 548 m 21
 164.071415229 488.322771973 189.648528454 400.212964529 204 298 c 13
 204 50 l 1053
EndSplineSet
Fore
SplineSet
76.0827637475 564.344362103 m 1
 92.4271258508 583.261598356 l 1
 111.344362103 566.917236253 l 2
 158.177052239 526.454113858 186.231910379 474.848111245 204.285972052 417.106012349 c 1
 224.392110774 475.426425061 255.03797159 525.284199653 296.515729184 565.868975181 c 2
 314.384704364 583.353245997 l 1
 331.868975181 565.484270816 l 1
 349.353245997 547.615295636 l 1
 331.484270816 530.131024819 l 2
 279.843669611 479.602203358 246.597890627 411.727860897 232.651189322 324 c 1
 314 324 l 1
 339 324 l 1
 339 299 l 1
 339 274 l 1
 314 274 l 1
 229 274 l 1
 229 50 l 1
 229 25 l 1
 204 25 l 1
 179 25 l 1
 179 50 l 1
 179 274 l 1
 95 274 l 1
 70 274 l 1
 70 299 l 1
 70 324 l 1
 95 324 l 1
 174.665002062 324 l 1
 159.855243421 410.340337714 134.180340067 481.109802695 78.6556378966 529.082763747 c 2
 59.7384016441 545.427125851 l 1
 76.0827637475 564.344362103 l 1
EndSplineSet
EndChar

StartChar: xy.ccv.1
Encoding: 103 -1 65
Width: 738
VWidth: 0
Flags: W
VStem: 179 50<25 275.53>
AnchorPoint: "Above" 369 0 basechar 0
LayerCount: 2
Back
SplineSet
314 548 m 21
 251.998491752 487.333333318 215.33182509 404.000000015 204 298 c 1037
95 548 m 21
 164.071415229 488.322771973 189.648528454 400.212964529 204 298 c 13
 204 50 l 1053
EndSplineSet
Fore
SplineSet
76.0827637475 564.344362103 m 1
 92.4271258508 583.261598356 l 1
 111.344362103 566.917236253 l 2
 158.177052239 526.454113858 186.231910379 474.848111245 204.285972052 417.106012349 c 1
 224.392110774 475.426425061 255.03797159 525.284199653 296.515729184 565.868975181 c 2
 314.384704364 583.353245997 l 1
 331.868975181 565.484270816 l 1
 349.353245997 547.615295636 l 1
 331.484270816 530.131024819 l 2
 274.598993837 474.470441147 240.034671736 397.762163351 229 296.653814448 c 1
 229 50 l 1
 229 25 l 1
 204 25 l 1
 179 25 l 1
 179 50 l 1
 179 275.530150254 l 1
 176.484184861 275.799100982 l 1
 178.811211658 297.566542553 l 1
 164.703816241 395.919547618 139.747605817 476.299723352 78.6556378966 529.082763747 c 2
 59.7384016441 545.427125851 l 1
 76.0827637475 564.344362103 l 1
EndSplineSet
EndChar

StartChar: iy.ccv.1
Encoding: 104 -1 66
Width: 738
VWidth: 0
Flags: W
HStem: 25 50<120 339>
VStem: 70 50<75 573>
AnchorPoint: "Above" 369 0 basechar 0
LayerCount: 2
Back
SplineSet
95 548 m 29
 95 50 l 29
 314 50 l 1053
EndSplineSet
Fore
SplineSet
95 573 m 1
 120 573 l 1
 120 548 l 1
 120 75 l 1
 314 75 l 1
 339 75 l 1
 339 50 l 1
 339 25 l 1
 314 25 l 1
 95 25 l 2
 84.2700956673 25 70 34.8674621445 70 50 c 2
 70 548 l 1
 70 573 l 1
 95 573 l 1
EndSplineSet
EndChar

StartChar: ry.ccv.1
Encoding: 105 -1 67
Width: 738
VWidth: 0
Flags: W
VStem: 62.0729 283.854
AnchorPoint: "Above" 369 0 basechar 0
LayerCount: 2
Back
SplineSet
95 50 m 29
 313 548 l 1053
95 548 m 29
 313 50 l 1053
EndSplineSet
Fore
SplineSet
84.9747044439 570.901821958 m 1
 107.876526402 580.927117514 l 1
 117.901821958 558.025295556 l 1
 204 361.342301681 l 1
 290.098178042 558.025295556 l 1
 300.123473598 580.927117514 l 1
 323.025295556 570.901821958 l 1
 345.927117514 560.876526402 l 1
 335.901821958 537.974704444 l 1
 231.290405154 299 l 1
 335.901821958 60.0252955561 l 1
 345.927117514 37.1234735977 l 1
 323.025295556 27.0981780416 l 1
 300.123473598 17.0728824855 l 1
 290.098178042 39.9747044439 l 1
 204 236.657698319 l 1
 117.901821958 39.9747044439 l 1
 107.876526402 17.0728824855 l 1
 84.9747044439 27.0981780416 l 1
 62.0728824855 37.1234735977 l 1
 72.0981780416 60.0252955561 l 1
 71.6971662194 59.1092226777 71.0981780416 60.0252955561 72.0981780416 60.0252955561 c 1
 176.709594846 299 l 1
 72.0981780416 537.974704444 l 1
 71.0981780416 537.974704444 71.6971662194 538.890777322 72.0981780416 537.974704444 c 1
 62.0728824855 560.876526402 l 1
 84.9747044439 570.901821958 l 1
EndSplineSet
EndChar

StartChar: ny.ccv.1
Encoding: 112 -1 68
Width: 738
VWidth: 0
Flags: W
HStem: 25 50<120 289> 523 50<120 289>
VStem: 70 50<75 523> 289 50<75 523>
AnchorPoint: "Above" 369 0 basechar 0
LayerCount: 2
Back
SplineSet
95 548 m 5
 314 548 l 5
 314 50 l 5
 95 50 l 5
 95 548 l 5
EndSplineSet
Fore
SplineSet
120 523 m 1
 120 75 l 1
 289 75 l 1
 289 523 l 1
 120 523 l 1
95 573 m 2
 314 573 l 2
 329.132537856 573 339 558.729904333 339 548 c 2
 339 50 l 2
 339 34.8674621445 324.729904333 25 314 25 c 2
 95 25 l 2
 79.8674621445 25 70 39.2700956673 70 50 c 2
 70 548 l 2
 70 563.132537856 84.2700956673 573 95 573 c 2
EndSplineSet
EndChar

StartChar: ty.ccv.1
Encoding: 113 -1 69
Width: 738
VWidth: 0
Flags: W
HStem: 25 50<120 339> 523 50<120 339>
VStem: 70 50<75 523>
AnchorPoint: "Above" 369 0 basechar 0
LayerCount: 2
Back
SplineSet
314 548 m 29
 95 548 l 29
 95 50 l 29
 314 50 l 1053
EndSplineSet
Fore
SplineSet
339 548 m 1
 339 523 l 1
 314 523 l 1
 120 523 l 1
 120 75 l 1
 314 75 l 1
 339 75 l 1
 339 50 l 1
 339 25 l 1
 314 25 l 1
 95 25 l 2
 84.2700956673 25 70 34.8674621445 70 50 c 2
 70 548 l 2
 70 558.729904333 79.8674621445 573 95 573 c 2
 314 573 l 1
 339 573 l 1
 339 548 l 1
EndSplineSet
EndChar

StartChar: dy.ccv.1
Encoding: 114 -1 70
Width: 738
VWidth: 0
Flags: W
HStem: 25 50<70 289> 523 50<70 289>
VStem: 289 50<75 523>
AnchorPoint: "Above" 369 0 basechar 0
LayerCount: 2
Back
SplineSet
95 548 m 29
 314 548 l 29
 314 50 l 29
 95 50 l 1053
EndSplineSet
Fore
SplineSet
70 548 m 1
 70 573 l 1
 95 573 l 1
 314 573 l 2
 329.132537856 573 339 558.729904333 339 548 c 2
 339 50 l 2
 339 34.8674621445 324.729904333 25 314 25 c 2
 95 25 l 1
 70 25 l 1
 70 50 l 1
 70 75 l 1
 95 75 l 1
 289 75 l 1
 289 523 l 1
 95 523 l 1
 70 523 l 1
 70 548 l 1
EndSplineSet
EndChar

StartChar: sy.ccv.1
Encoding: 115 -1 71
Width: 738
VWidth: 0
Flags: W
HStem: 25 50<120 197.078>
VStem: 70 50<75 573>
AnchorPoint: "Above" 369 0 basechar 0
LayerCount: 2
Back
SplineSet
95 548 m 29
 95 50 l 29
 219 50 l 21
 230.955078125 218.803710938 258.41015625 385.16796875 321 546 c 1037
EndSplineSet
Fore
SplineSet
95 573 m 1
 120 573 l 1
 120 548 l 1
 120 75 l 1
 195.807906744 75 l 1
 208.888154743 238.880563583 236.724426744 398.377486936 297.702039582 555.066699531 c 2
 306.768739113 578.364659948 l 1
 330.066699531 569.297960418 l 1
 353.364659948 560.231260887 l 1
 344.297960418 536.933300469 l 2
 282.935078203 379.254092491 255.785848853 215.530049576 243.937537284 48.2338646181 c 0
 243.142457501 37.0074705735 232.803870173 25 219 25 c 2
 95 25 l 2
 84.2700956673 25 70 34.8674621445 70 50 c 2
 70 548 l 1
 70 573 l 1
 95 573 l 1
EndSplineSet
EndChar

StartChar: zy.ccv.1
Encoding: 116 -1 72
Width: 738
VWidth: 0
Flags: W
HStem: 523 50<211.922 289>
VStem: 289 50<25 523>
AnchorPoint: "Above" 369 0 basechar 0
LayerCount: 2
Back
SplineSet
314 50 m 5
 314 548 l 5
 190 548 l 5
 178.044921875 379.196289062 150.58984375 212.83203125 88 52 c 1029
EndSplineSet
Fore
SplineSet
314 25 m 1
 289 25 l 1
 289 50 l 1
 289 523 l 1
 213.192093256 523 l 1
 200.111845257 359.119436417 172.275573256 199.622513064 111.297960418 42.9333004694 c 2
 102.231260887 19.6353400518 l 1
 78.9333004694 28.7020395823 l 1
 55.6353400518 37.7687391129 l 1
 64.7020395823 61.0666995306 l 2
 126.064921797 218.745907509 153.214151147 382.469950424 165.062462716 549.766135382 c 0
 165.857542499 560.992529427 176.196129827 573 190 573 c 2
 314 573 l 2
 324.729904333 573 339 563.132537856 339 548 c 2
 339 50 l 1
 339 25 l 1
 314 25 l 1
EndSplineSet
EndChar

StartChar: gy.ccv.1
Encoding: 117 -1 73
Width: 738
VWidth: 0
Flags: W
AnchorPoint: "Above" 369 0 basechar 0
LayerCount: 2
Back
SplineSet
95 548 m 29
 313 297 l 29
 95 50 l 1053
EndSplineSet
Fore
SplineSet
78.6067055157 566.874848237 m 1
 97.4815537522 583.268142721 l 1
 113.874848237 564.393294484 l 1
 331.874848237 313.393294484 l 2
 340.545475657 303.410140895 338.756166312 288.402230855 331.743731657 280.456949388 c 2
 113.743731657 33.4569493876 l 1
 97.2006810448 14.7132177304 l 1
 78.4569493876 31.2562683428 l 1
 59.7132177304 47.7993189552 l 1
 76.2562683428 66.5430506124 l 1
 279.772265346 297.132276575 l 1
 76.1251517635 531.606705516 l 1
 75.1251517635 531.606705516 75.4694199841 532.361699445 76.1251517635 531.606705516 c 1
 59.7318572792 550.481553752 l 1
 78.6067055157 566.874848237 l 1
EndSplineSet
EndChar

StartChar: jy.ccv.1
Encoding: 118 -1 74
Width: 738
VWidth: 0
Flags: W
HStem: 274 50<69 175.349 233.335 338>
VStem: 179 50<324 573>
AnchorPoint: "Above" 369 0 basechar 0
LayerCount: 2
Back
SplineSet
313 299 m 29
 94 299 l 1053
94 50 m 21
 156.001953125 110.666992188 192.66796875 194 204 300 c 1037
313 50 m 21
 243.928710938 109.676757812 218.3515625 197.787109375 204 300 c 13
 204 548 l 1053
EndSplineSet
Fore
SplineSet
331.917285192 33.6556945407 m 1
 315.572979733 14.7384093482 l 1
 296.655694541 31.0827148075 l 1
 297.412385948 30.4289425891 296.655694541 32.0827148075 296.655694541 31.0827148075 c 1
 249.822968847 71.5456230122 221.768113733 123.15179077 203.714041829 180.894045951 c 1
 183.608008651 122.573732485 152.962299544 72.7159921946 111.484254651 32.1310090016 c 2
 93.6152636526 14.6467543507 l 1
 76.1310090016 32.515745349 l 1
 58.6467543507 50.3847363474 l 1
 76.515745349 67.8689909984 l 2
 128.156707681 118.398074365 161.402007709 186.272112817 175.34877256 274 c 1
 94 274 l 1
 69 274 l 1
 69 299 l 1
 69 324 l 1
 94 324 l 1
 179 324 l 1
 179 548 l 1
 179 573 l 1
 204 573 l 1
 229 573 l 1
 229 548 l 1
 229 324 l 1
 313 324 l 1
 338 324 l 1
 338 299 l 1
 338 274 l 1
 313 274 l 1
 233.335025449 274 l 1
 248.144864445 187.659622129 273.819828809 116.889761031 329.344305459 68.9172851925 c 2
 348.261590652 52.5729797332 l 1
 331.917285192 33.6556945407 l 1
EndSplineSet
EndChar

StartChar: yhy.ccv.1
Encoding: 119 -1 75
Width: 738
VWidth: 0
Flags: W
HStem: 25 50<120 289> 274 50<120 289> 523 50<120 289>
VStem: 70 50<75 274 324 523> 289 50<75 274 324 523>
CounterMasks: 1 e0
AnchorPoint: "Above" 369 0 basechar 0
LayerCount: 2
Fore
SplineSet
120 274 m 1
 120 75 l 1
 289 75 l 1
 289 274 l 1
 120 274 l 1
120 324 m 1
 289 324 l 1
 289 523 l 1
 120 523 l 1
 120 324 l 1
95 573 m 2
 314 573 l 2
 329.132537856 573 339 558.729904333 339 548 c 2
 339 324 l 1
 339 299 l 1
 339 274 l 1
 339 50 l 2
 339 34.8674621445 324.729904333 25 314 25 c 2
 95 25 l 2
 79.8674621445 25 70 39.2700956673 70 50 c 2
 70 548 l 2
 70 563.132537856 84.2700956673 573 95 573 c 2
EndSplineSet
EndChar

StartChar: uy.ccv.1
Encoding: 120 -1 76
Width: 738
VWidth: 0
Flags: W
HStem: 25 50<70 289>
VStem: 289 50<75 573>
AnchorPoint: "Above" 369 0 basechar 0
LayerCount: 2
Back
SplineSet
314 548 m 29
 314 50 l 29
 95 50 l 1053
EndSplineSet
Fore
SplineSet
314 573 m 1
 339 573 l 1
 339 548 l 1
 339 50 l 2
 339 34.8674621445 324.729904333 25 314 25 c 2
 95 25 l 1
 70 25 l 1
 70 50 l 1
 70 75 l 1
 95 75 l 1
 289 75 l 1
 289 548 l 1
 289 573 l 1
 314 573 l 1
EndSplineSet
EndChar

StartChar: ly.ccv.1
Encoding: 121 -1 77
Width: 738
VWidth: 0
Flags: W
HStem: 25 50<70 288> 274 50<120 288> 523 50<120 338>
VStem: 70 50<324 523> 288 50<75 274>
CounterMasks: 1 e0
AnchorPoint: "Above" 369 0 basechar 0
LayerCount: 2
Back
SplineSet
313 548 m 29
 95 548 l 29
 95 299 l 29
 313 299 l 29
 313 50 l 29
 95 50 l 1053
EndSplineSet
Fore
SplineSet
338 548 m 1
 338 523 l 1
 313 523 l 1
 120 523 l 1
 120 324 l 1
 313 324 l 2
 328.132537856 324 338 309.729904333 338 299 c 2
 338 50 l 2
 338 34.8674621445 323.729904333 25 313 25 c 2
 95 25 l 1
 70 25 l 1
 70 50 l 1
 70 75 l 1
 95 75 l 1
 288 75 l 1
 288 274 l 1
 95 274 l 2
 84.2700956673 274 70 283.867462144 70 299 c 2
 70 548 l 2
 70 558.729904333 79.8674621445 573 95 573 c 2
 313 573 l 1
 338 573 l 1
 338 548 l 1
EndSplineSet
EndChar

StartChar: denpabu.cvc.1
Encoding: 63 -1 78
Width: 738
VWidth: 0
Flags: W
HStem: 198 50<266.437 471.563> 528 50<266.437 471.563>
VStem: 126 50<325.873 450.127> 562 50<325.873 450.127>
AnchorPoint: "Above" 369 0 basechar 0
LayerCount: 2
Back
SplineSet
151 388 m 4
 151 479 249 553 369 553 c 4
 489 553 587 479 587 388 c 4
 587 297 489 223 369 223 c 4
 249 223 151 297 151 388 c 4
EndSplineSet
Fore
SplineSet
126 388 m 0
 126 498.692553072 241.147446937 578 369 578 c 0
 496.853254204 578 612 498.693030542 612 388 c 0
 612 277.307446928 496.852553063 198 369 198 c 0
 241.146745796 198 126 277.306969458 126 388 c 0
176 388 m 0
 176 316.693030542 256.853254204 248 369 248 c 0
 481.147446937 248 562 316.692553072 562 388 c 0
 562 459.306969458 481.146745796 528 369 528 c 0
 256.852553063 528 176 459.307446928 176 388 c 0
EndSplineSet
EndChar

StartChar: ybu.cv
Encoding: 47 -1 79
Width: 0
VWidth: 0
Flags: W
HStem: -110 50<195 344 394 543>
VStem: 344 50<-225 -110 -60 63>
AnchorPoint: "Above" 369 0 mark 0
LayerCount: 2
Back
SplineSet
369 38 m 5
 369 -200 l 1053
538 -85 m 5
 200 -85 l 1029
EndSplineSet
Fore
SplineSet
543 -85 m 1
 543 -110 l 1
 518 -110 l 1
 394 -110 l 1
 394 -200 l 1
 394 -225 l 1
 369 -225 l 1
 344 -225 l 1
 344 -200 l 1
 344 -110 l 1
 220 -110 l 1
 195 -110 l 1
 195 -85 l 1
 195 -60 l 1
 220 -60 l 1
 344 -60 l 1
 344 38 l 1
 344 63 l 1
 369 63 l 1
 394 63 l 1
 394 38 l 1
 394 -60 l 1
 518 -60 l 1
 543 -60 l 1
 543 -85 l 1
EndSplineSet
EndChar

StartChar: eibu.cv
Encoding: 58 -1 80
Width: 0
VWidth: 0
Flags: W
HStem: -110 50<255 344 394 503> -20 20G<503 553>
VStem: 205 50<-307 -110> 344 50<-205 -110 -60 56> 503 50<-176 -110 -60 0>
AnchorPoint: "Above" 369 0 mark 0
LayerCount: 2
Back
SplineSet
688 -25 m 1
 688 -151 l 1025
369 31 m 1
 369 -200 l 1025
688 -85 m 1
 50 -85 l 1
 50 -312 l 1025
EndSplineSet
Fore
SplineSet
369 56 m 1
 394 56 l 1
 394 31 l 1
 394 -60 l 1
 503 -60 l 1
 503 -25 l 1
 503 0 l 1
 528 0 l 1
 553 0 l 1
 553 -25 l 1
 553 -60 l 1
 553 -85 l 1
 553 -110 l 1
 553 -151 l 1
 553 -176 l 1
 528 -176 l 1
 503 -176 l 1
 503 -151 l 1
 503 -110 l 1
 394 -110 l 1
 394 -180 l 1
 394 -205 l 1
 369 -205 l 1
 344 -205 l 1
 344 -180 l 1
 344 -110 l 1
 255 -110 l 1
 255 -282 l 1
 255 -307 l 1
 230 -307 l 1
 205 -307 l 1
 205 -282 l 1
 205 -85 l 2
 205 -74.2705078125 214.8671875 -60 230 -60 c 2
 344 -60 l 1
 344 31 l 1
 344 56 l 1
 369 56 l 1
EndSplineSet
EndChar

StartChar: oibu.cv
Encoding: 59 -1 81
Width: 0
VWidth: 0
Flags: W
HStem: -110 50<245 344 394 493> -20 20G<195 245>
VStem: 195 50<-176 -110 -60 0> 344 50<-205 -110 -60 56> 493 50<-297 -110>
CounterMasks: 1 38
AnchorPoint: "Above" 369 0 mark 0
LayerCount: 2
Back
SplineSet
50 -25 m 29
 50 -85 l 29
 50 -151 l 1053
369 31 m 1
 369 -200 l 1049
50 -85 m 5
 688 -85 l 9
 688 -312 l 1049
EndSplineSet
Fore
SplineSet
369 56 m 1
 394 56 l 1
 394 31 l 1
 394 -60 l 1
 518 -60 l 2
 533.1328125 -60 543 -74.2705078125 543 -85 c 2
 543 -272 l 1
 543 -297 l 1
 518 -297 l 1
 493 -297 l 1
 493 -272 l 1
 493 -110 l 1
 394 -110 l 1
 394 -180 l 1
 394 -205 l 1
 369 -205 l 1
 344 -205 l 1
 344 -180 l 1
 344 -110 l 1
 245 -110 l 1
 245 -151 l 1
 245 -176 l 1
 220 -176 l 1
 195 -176 l 1
 195 -151 l 1
 195 -110 l 1
 195 -85 l 1
 195 -60 l 1
 195 -16 l 1
 195 0 l 1
 220 0 l 1
 245 0 l 1
 245 -16 l 1
 245 -60 l 1
 344 -60 l 1
 344 31 l 1
 344 56 l 1
 369 56 l 1
EndSplineSet
EndChar

StartChar: aibu.cv
Encoding: 60 -1 82
Width: 0
VWidth: 0
Flags: W
HStem: -110 50<295 503> -20 20G<503 553>
VStem: 245 50<-287 -110> 503 50<-176 -110 -60 0>
AnchorPoint: "Above" 369 -0 mark 0
LayerCount: 2
Back
SplineSet
688 -85 m 1
 50 -85 l 1
 50 -312 l 1025
688 -25 m 5
 688 -85 l 1
 688 -151 l 1029
688 -85 m 1025
EndSplineSet
Fore
SplineSet
528 0 m 1
 553 0 l 1
 553 -25 l 1
 553 -60 l 1
 553 -85 l 1
 553 -110 l 1
 553 -151 l 1
 553 -176 l 1
 528 -176 l 1
 503 -176 l 1
 503 -151 l 1
 503 -110 l 1
 295 -110 l 1
 295 -262 l 1
 295 -287 l 1
 270 -287 l 1
 245 -287 l 1
 245 -262 l 1
 245 -85 l 2
 245 -74.2705078125 254.8671875 -60 270 -60 c 2
 503 -60 l 1
 503 -25 l 1
 503 0 l 1
 528 0 l 1
EndSplineSet
EndChar

StartChar: aubu.cv
Encoding: 61 -1 83
Width: 0
VWidth: 0
Flags: W
HStem: -110 50<215 513> -20 20G<165 215>
VStem: 165 50<-176 -110 -60 0> 513 50<-277 -110>
AnchorPoint: "Above" 369 0 mark 0
LayerCount: 2
Back
SplineSet
50 -85 m 5
 688 -85 l 9
 688 -312 l 1049
50 -25 m 29
 50 -85 l 29
 50 -151 l 1053
50 -85 m 1029
EndSplineSet
Fore
SplineSet
190 0 m 1
 215 0 l 1
 215 -25 l 1
 215 -60 l 1
 538 -60 l 2
 553.1328125 -60 563 -74.2705078125 563 -85 c 2
 563 -252 l 1
 563 -277 l 1
 538 -277 l 1
 513 -277 l 1
 513 -252 l 1
 513 -110 l 1
 215 -110 l 1
 215 -151 l 1
 215 -176 l 1
 190 -176 l 1
 165 -176 l 1
 165 -151 l 1
 165 -110 l 1
 165 -85 l 1
 165 -60 l 1
 165 -25 l 1
 165 0 l 1
 190 0 l 1
EndSplineSet
EndChar

StartChar: ubu.cv
Encoding: 45 -1 84
Width: 0
VWidth: 0
Flags: W
HStem: -110 50<190 504>
VStem: 504 50<-263 -110>
AnchorPoint: "Above" 369 0 mark 0
LayerCount: 2
Back
SplineSet
50 -85 m 5
 688 -85 l 13
 688 -312 l 1053
EndSplineSet
Fore
SplineSet
190 -85 m 1
 190 -60 l 1
 215 -60 l 1
 529 -60 l 2
 540.930878569 -60 554 -85 554 -85 c 1
 554 -238 l 1
 554 -263 l 1
 529 -263 l 1
 504 -263 l 1
 504 -238 l 1
 504 -110 l 1
 215 -110 l 1
 190 -110 l 1
 190 -85 l 1
EndSplineSet
EndChar

StartChar: abu.cv
Encoding: 46 -1 85
Width: 0
VWidth: 0
Flags: W
HStem: -110 50<204.5 533.5>
VStem: 204.5 329<-110 -60>
AnchorPoint: "Above" 369 0 mark 0
LayerCount: 2
Back
SplineSet
230 -85 m 1
 510 -85 l 1025
EndSplineSet
Fore
SplineSet
204.5 -85 m 1
 204.5 -60 l 1
 229.5 -60 l 1
 369 -60 l 1
 508.5 -60 l 1
 533.5 -60 l 1
 533.5 -85 l 1
 533.5 -110 l 1
 508.5 -110 l 1
 229.5 -110 l 1
 204.5 -110 l 1
 204.5 -85 l 1
EndSplineSet
EndChar

StartChar: py.ccv.2
Encoding: 129 -1 86
Width: 0
VWidth: 0
Flags: W
HStem: 25 50<451 670> 274 50<451 670> 523 50<451 670>
VStem: 401 50<75 274 324 523>
CounterMasks: 1 e0
AnchorPoint: "Above" 369 0 mark 0
LayerCount: 2
Back
SplineSet
645 299 m 29
 426 299 l 1053
645 548 m 29
 426 548 l 29
 426 50 l 29
 645 50 l 1053
EndSplineSet
Fore
SplineSet
670 548 m 1
 670 523 l 1
 645 523 l 1
 451 523 l 1
 451 324 l 1
 645 324 l 1
 670 324 l 1
 670 299 l 1
 670 274 l 1
 645 274 l 1
 451 274 l 1
 451 75 l 1
 645 75 l 1
 670 75 l 1
 670 50 l 1
 670 25 l 1
 645 25 l 1
 426 25 l 2
 415.270095667 25 401 34.8674621445 401 50 c 2
 401 274 l 1
 401 299 l 1
 401 324 l 1
 401 548 l 2
 401 558.729904333 410.867462144 573 426 573 c 2
 645 573 l 1
 670 573 l 1
 670 548 l 1
EndSplineSet
EndChar

StartChar: by.ccv.2
Encoding: 130 -1 87
Width: 0
VWidth: 0
Flags: W
HStem: 25 50<401 620> 274 50<401 620> 523 50<401 620>
VStem: 620 50<75 274 324 523>
CounterMasks: 1 e0
AnchorPoint: "Above" 369 0 mark 0
LayerCount: 2
Back
SplineSet
426 299 m 29
 645 299 l 1053
426 50 m 29
 645 50 l 29
 645 548 l 29
 426 548 l 1053
EndSplineSet
Fore
SplineSet
401 50 m 1
 401 75 l 1
 426 75 l 1
 620 75 l 1
 620 274 l 1
 426 274 l 1
 401 274 l 1
 401 299 l 1
 401 324 l 1
 426 324 l 1
 620 324 l 1
 620 523 l 1
 426 523 l 1
 401 523 l 1
 401 548 l 1
 401 573 l 1
 426 573 l 1
 645 573 l 2
 655.729904333 573 670 563.132537856 670 548 c 2
 670 324 l 1
 670 299 l 1
 670 274 l 1
 670 50 l 2
 670 39.2700956673 660.132537856 25 645 25 c 2
 426 25 l 1
 401 25 l 1
 401 50 l 1
EndSplineSet
EndChar

StartChar: fy.ccv.2
Encoding: 131 -1 88
Width: 0
VWidth: 0
Flags: W
HStem: 23 50<449 526.479> 284 50<449 551.675>
VStem: 399 50<73 284 334 571>
AnchorPoint: "Above" 369 0 mark 0
LayerCount: 2
Back
SplineSet
436 309 m 29
 562 309 l 1053
424 546 m 29
 424 48 l 29
 548 48 l 21
 559.95487535 216.803934649 587.410562865 383.167550182 650 544 c 1037
EndSplineSet
Fore
SplineSet
424 571 m 1
 449 571 l 1
 449 546 l 1
 449 334 l 1
 561.608076911 334 l 1
 577.443755889 407.724629933 598.537931396 480.695022713 626.7020117 553.066627883 c 2
 635.768639583 576.364616183 l 1
 659.066627883 567.2979883 l 1
 682.364616183 558.231360417 l 1
 673.2979883 534.933372117 l 2
 611.935455617 377.253627576 584.785644076 213.530217446 572.93753956 46.2338967537 c 0
 572.142470444 35.007448032 561.803862532 23 548 23 c 2
 424 23 l 2
 413.270095667 23 399 32.8674621445 399 48 c 2
 399 546 l 1
 399 571 l 1
 424 571 l 1
449 284 m 1
 449 73 l 1
 524.807881922 73 l 1
 530.483998457 144.116007096 538.938983247 214.406366881 551.675111056 284 c 1
 449 284 l 1
EndSplineSet
EndChar

StartChar: vy.ccv.2
Encoding: 132 -1 89
Width: 0
VWidth: 0
Flags: W
HStem: 262 50<516.325 619> 523 50<541.521 619>
VStem: 619 50<25 262 312 523>
AnchorPoint: "Above" 369 0 mark 0
LayerCount: 2
Back
SplineSet
632 287 m 5
 506 287 l 1029
644 50 m 5
 644 548 l 5
 520 548 l 5
 508.044921875 379.196289062 480.58984375 212.83203125 418 52 c 1029
EndSplineSet
Fore
SplineSet
644 25 m 1
 619 25 l 1
 619 50 l 1
 619 262 l 1
 506.392049234 262 l 1
 490.556425773 188.275269444 469.462254732 115.304797056 441.297960418 42.9333004694 c 2
 432.231260887 19.6353400518 l 1
 408.933300469 28.7020395823 l 1
 385.635340052 37.7687391129 l 1
 394.702039582 61.0666995306 l 2
 456.064921797 218.745907509 483.214151147 382.469950424 495.062462716 549.766135382 c 0
 495.857542499 560.992529427 506.196129827 573 520 573 c 2
 644 573 l 2
 654.729904333 573 669 563.132537856 669 548 c 2
 669 50 l 1
 669 25 l 1
 644 25 l 1
619 312 m 1
 619 523 l 1
 543.192093256 523 l 1
 537.515925341 451.884100898 529.061017728 381.593694837 516.324958959 312 c 1
 619 312 l 1
EndSplineSet
EndChar

StartChar: ky.ccv.2
Encoding: 133 -1 90
Width: 0
VWidth: 0
Flags: W
AnchorPoint: "Above" 369 0 mark 0
LayerCount: 2
Back
SplineSet
644 548 m 29
 426 298 l 29
 644 50 l 1053
EndSplineSet
Fore
SplineSet
660.430575951 566.842403613 m 1
 679.272979564 550.411827662 l 1
 662.842403613 531.569424049 l 1
 459.227537192 298.066136869 l 1
 662.776846967 66.5054541888 l 1
 679.282301156 47.7286072217 l 1
 660.505454189 31.223153033 l 1
 641.728607222 14.7176988442 l 1
 625.223153033 33.4945458112 l 1
 407.223153033 281.494545811 l 2
 400.227341048 289.453084216 398.467186614 304.464509698 407.157596387 314.430575951 c 2
 625.157596387 564.430575951 l 1
 641.588172338 583.272979564 l 1
 660.430575951 566.842403613 l 1
EndSplineSet
EndChar

StartChar: cy.ccv.2
Encoding: 134 -1 91
Width: 0
VWidth: 0
Flags: W
HStem: 274 50<401 505.665 563.651 670>
VStem: 510 50<25 274>
AnchorPoint: "Above" 369 0 mark 0
LayerCount: 2
Back
SplineSet
426 299 m 29
 645 299 l 1053
645 548 m 21
 582.998046875 487.333007812 546.33203125 404 535 298 c 1037
426 548 m 21
 495.071289062 488.323242188 520.6484375 400.212890625 535 298 c 13
 535 50 l 1053
EndSplineSet
Fore
SplineSet
407.082714808 564.344305459 m 1
 423.427020267 583.261590652 l 1
 442.344305459 566.917285192 l 2
 489.177031153 526.454376988 517.231886267 474.84820923 535.285958171 417.105954049 c 1
 555.391991349 475.426267515 586.037700456 525.284007805 627.515745349 565.868990998 c 2
 645.384736347 583.353245649 l 1
 662.868990998 565.484254651 l 1
 680.353245649 547.615263653 l 1
 662.484254651 530.131009002 l 2
 610.843292319 479.601925635 577.597992291 411.727887183 563.65122744 324 c 1
 645 324 l 1
 670 324 l 1
 670 299 l 1
 670 274 l 1
 645 274 l 1
 560 274 l 1
 560 50 l 1
 560 25 l 1
 535 25 l 1
 510 25 l 1
 510 50 l 1
 510 274 l 1
 426 274 l 1
 401 274 l 1
 401 299 l 1
 401 324 l 1
 426 324 l 1
 505.664974551 324 l 1
 490.855135555 410.340377871 465.180171191 481.110238969 409.655694541 529.082714808 c 2
 390.738409348 545.427020267 l 1
 407.082714808 564.344305459 l 1
EndSplineSet
EndChar

StartChar: xy.ccv.2
Encoding: 135 -1 92
Width: 0
VWidth: 0
Flags: W
VStem: 510 50<25 275.53>
AnchorPoint: "Above" 369 0 mark 0
LayerCount: 2
Back
SplineSet
645 548 m 21
 582.998046875 487.333007812 546.33203125 404 535 298 c 1037
426 548 m 21
 495.071289062 488.323242188 520.6484375 400.212890625 535 298 c 13
 535 50 l 1053
EndSplineSet
Fore
SplineSet
407.082714808 564.344305459 m 1
 423.427020267 583.261590652 l 1
 442.344305459 566.917285192 l 2
 489.177031153 526.454376988 517.231886267 474.84820923 535.285958171 417.105954049 c 1
 555.391991349 475.426267515 586.037700456 525.284007805 627.515745349 565.868990998 c 2
 645.384736347 583.353245649 l 1
 662.868990998 565.484254651 l 1
 680.353245649 547.615263653 l 1
 662.484254651 530.131009002 l 2
 605.598578973 474.470135949 571.034878264 397.762254812 560 296.653790508 c 1
 560 50 l 1
 560 25 l 1
 535 25 l 1
 510 25 l 1
 510 50 l 1
 510 275.530193709 l 1
 507.48414217 275.799153893 l 1
 509.811206915 297.56655442 l 1
 495.703721467 395.919505999 470.747411851 476.300210416 409.655694541 529.082714808 c 2
 390.738409348 545.427020267 l 1
 407.082714808 564.344305459 l 1
EndSplineSet
EndChar

StartChar: iy.ccv.2
Encoding: 136 -1 93
Width: 0
VWidth: 0
Flags: W
HStem: 25 50<451 670>
VStem: 401 50<75 573>
AnchorPoint: "Above" 369 0 mark 0
LayerCount: 2
Back
SplineSet
426 548 m 29
 426 50 l 29
 645 50 l 1053
EndSplineSet
Fore
SplineSet
426 573 m 1
 451 573 l 1
 451 548 l 1
 451 75 l 1
 645 75 l 1
 670 75 l 1
 670 50 l 1
 670 25 l 1
 645 25 l 1
 426 25 l 2
 415.270095667 25 401 34.8674621445 401 50 c 2
 401 548 l 1
 401 573 l 1
 426 573 l 1
EndSplineSet
EndChar

StartChar: ny.ccv.2
Encoding: 144 -1 94
Width: 0
VWidth: 0
Flags: W
HStem: 25 50<451 619> 523 50<451 619>
VStem: 401 50<75 523> 619 50<75 523>
AnchorPoint: "Above" 369 0 mark 0
LayerCount: 2
Back
SplineSet
426 548 m 25
 644 548 l 25
 644 50 l 25
 426 50 l 25
 426 548 l 25
EndSplineSet
Fore
SplineSet
451 523 m 1
 451 75 l 1
 619 75 l 1
 619 523 l 1
 451 523 l 1
426 573 m 2
 644 573 l 2
 659.132537856 573 669 558.729904333 669 548 c 2
 669 50 l 2
 669 34.8674621445 654.729904333 25 644 25 c 2
 426 25 l 2
 410.867462144 25 401 39.2700956673 401 50 c 2
 401 548 l 2
 401 563.132537856 415.270095667 573 426 573 c 2
EndSplineSet
EndChar

StartChar: ty.ccv.2
Encoding: 145 -1 95
Width: 0
VWidth: 0
Flags: W
HStem: 25 50<451 669> 523 50<451 669>
VStem: 401 50<75 523>
AnchorPoint: "Above" 369 0 mark 0
LayerCount: 2
Back
SplineSet
644 548 m 25
 426 548 l 25
 426 50 l 25
 644 50 l 1049
EndSplineSet
Fore
SplineSet
669 548 m 1
 669 523 l 1
 644 523 l 1
 451 523 l 1
 451 75 l 1
 644 75 l 1
 669 75 l 1
 669 50 l 1
 669 25 l 1
 644 25 l 1
 426 25 l 2
 415.270095667 25 401 34.8674621445 401 50 c 2
 401 548 l 2
 401 558.729904333 410.867462144 573 426 573 c 2
 644 573 l 1
 669 573 l 1
 669 548 l 1
EndSplineSet
EndChar

StartChar: dy.ccv.2
Encoding: 146 -1 96
Width: 0
VWidth: 0
Flags: W
HStem: 25 50<401 619> 523 50<401 619>
VStem: 619 50<75 523>
AnchorPoint: "Above" 369 0 mark 0
LayerCount: 2
Back
SplineSet
426 548 m 29
 644 548 l 29
 644 50 l 29
 426 50 l 1053
EndSplineSet
Fore
SplineSet
401 548 m 1
 401 573 l 1
 426 573 l 1
 644 573 l 2
 659.132537856 573 669 558.729904333 669 548 c 2
 669 50 l 2
 669 34.8674621445 654.729904333 25 644 25 c 2
 426 25 l 1
 401 25 l 1
 401 50 l 1
 401 75 l 1
 426 75 l 1
 619 75 l 1
 619 523 l 1
 426 523 l 1
 401 523 l 1
 401 548 l 1
EndSplineSet
EndChar

StartChar: sy.ccv.2
Encoding: 147 -1 97
Width: 0
VWidth: 0
Flags: W
HStem: 23 50<449 526.078>
VStem: 399 50<73 571>
AnchorPoint: "Above" 369 0 mark 0
LayerCount: 2
Back
SplineSet
424 546 m 29
 424 48 l 29
 548 48 l 21
 559.95487535 216.803934649 587.410562865 383.167550182 650 544 c 1037
EndSplineSet
Fore
SplineSet
424 571 m 1
 449 571 l 1
 449 546 l 1
 449 73 l 1
 524.807891292 73 l 1
 537.888242044 236.880896409 565.729855185 396.383391154 626.806909925 553.079204523 c 2
 635.886114449 576.372294598 l 1
 659.179204523 567.293090075 l 1
 682.472294598 558.213885551 l 1
 673.393090075 534.920795477 l 2
 611.935218229 377.24797943 584.785660869 213.530454558 572.93753956 46.2338967537 c 0
 572.142470444 35.007448032 561.803862532 23 548 23 c 2
 424 23 l 2
 413.270095667 23 399 32.8674621445 399 48 c 2
 399 546 l 1
 399 571 l 1
 424 571 l 1
EndSplineSet
EndChar

StartChar: zy.ccv.2
Encoding: 148 -1 98
Width: 0
VWidth: 0
Flags: W
HStem: 523 50<541.922 619>
VStem: 619 50<25 523>
AnchorPoint: "Above" 369 0 mark 0
LayerCount: 2
Back
SplineSet
644 50 m 5
 644 548 l 5
 520 548 l 5
 508.044921875 379.196289062 480.58984375 212.83203125 418 52 c 1029
EndSplineSet
Fore
SplineSet
644 25 m 1
 619 25 l 1
 619 50 l 1
 619 523 l 1
 543.192093256 523 l 1
 530.111845257 359.119436417 502.275573256 199.622513064 441.297960418 42.9333004694 c 2
 432.231260887 19.6353400518 l 1
 408.933300469 28.7020395823 l 1
 385.635340052 37.7687391129 l 1
 394.702039582 61.0666995306 l 2
 456.064921797 218.745907509 483.214151147 382.469950424 495.062462716 549.766135382 c 0
 495.857542499 560.992529427 506.196129827 573 520 573 c 2
 644 573 l 2
 654.729904333 573 669 563.132537856 669 548 c 2
 669 50 l 1
 669 25 l 1
 644 25 l 1
EndSplineSet
EndChar

StartChar: gy.ccv.2
Encoding: 149 -1 99
Width: 0
VWidth: 0
Flags: W
AnchorPoint: "Above" 369 0 mark 0
LayerCount: 2
Back
SplineSet
426 548 m 29
 644 297 l 29
 426 50 l 1053
EndSplineSet
Fore
SplineSet
409.606705516 566.874848237 m 1
 428.481553752 583.268142721 l 1
 444.874848237 564.393294484 l 1
 662.874848237 313.393294484 l 2
 671.545475657 303.410140895 669.756166312 288.402230855 662.743731657 280.456949388 c 2
 444.743731657 33.4569493876 l 1
 428.200681045 14.7132177304 l 1
 409.456949388 31.2562683428 l 1
 390.71321773 47.7993189552 l 1
 407.256268343 66.5430506124 l 1
 610.772265346 297.132276575 l 1
 407.125151763 531.606705516 l 1
 390.731857279 550.481553752 l 1
 409.606705516 566.874848237 l 1
EndSplineSet
EndChar

StartChar: jy.ccv.2
Encoding: 150 -1 100
Width: 0
VWidth: 0
Flags: W
HStem: 274 50<401 507.349 565.335 670>
VStem: 511 50<324 573>
AnchorPoint: "Above" 369 0 mark 0
LayerCount: 2
Back
SplineSet
645 299 m 29
 426 299 l 1053
426 50 m 21
 488.001953125 110.666992188 524.66796875 194 536 300 c 1037
645 50 m 21
 575.928710938 109.676757812 550.3515625 197.787109375 536 300 c 13
 536 548 l 1053
EndSplineSet
Fore
SplineSet
663.917285192 33.6556945407 m 1
 647.572979733 14.7384093482 l 1
 628.655694541 31.0827148075 l 1
 629.412385948 30.4289425891 628.655694541 32.0827148075 628.655694541 31.0827148075 c 1
 581.822968847 71.5456230122 553.768113733 123.15179077 535.714041829 180.894045951 c 1
 515.608008651 122.573732485 484.962299544 72.7159921946 443.484254651 32.1310090016 c 2
 425.615263653 14.6467543507 l 1
 408.131009002 32.515745349 l 1
 390.646754351 50.3847363474 l 1
 408.515745349 67.8689909984 l 2
 460.156707681 118.398074365 493.402007709 186.272112817 507.34877256 274 c 1
 426 274 l 1
 401 274 l 1
 401 299 l 1
 401 324 l 1
 426 324 l 1
 511 324 l 1
 511 548 l 1
 511 573 l 1
 536 573 l 1
 561 573 l 1
 561 548 l 1
 561 324 l 1
 645 324 l 1
 670 324 l 1
 670 299 l 1
 670 274 l 1
 645 274 l 1
 565.335025449 274 l 1
 580.144864445 187.659622129 605.819828809 116.889761031 661.344305459 68.9172851925 c 2
 680.261590652 52.5729797332 l 1
 663.917285192 33.6556945407 l 1
EndSplineSet
EndChar

StartChar: yhy.ccv.2
Encoding: 151 -1 101
Width: 0
VWidth: 0
Flags: W
HStem: 25 50<401 619> 274 50<451 619> 523 50<451 669>
VStem: 401 50<324 523> 619 50<75 274>
CounterMasks: 1 e0
AnchorPoint: "Above" 369 0 mark 0
LayerCount: 2
Fore
SplineSet
669 548 m 1
 669 523 l 1
 644 523 l 1
 451 523 l 1
 451 324 l 1
 644 324 l 2
 659.132537856 324 669 309.729904333 669 299 c 2
 669 50 l 2
 669 34.8674621445 654.729904333 25 644 25 c 2
 426 25 l 1
 401 25 l 1
 401 50 l 1
 401 75 l 1
 426 75 l 1
 619 75 l 1
 619 274 l 1
 426 274 l 2
 415.270095667 274 401 283.867462144 401 299 c 2
 401 548 l 2
 401 558.729904333 410.867462144 573 426 573 c 2
 644 573 l 1
 669 573 l 1
 669 548 l 1
EndSplineSet
EndChar

StartChar: uy.ccv.2
Encoding: 152 -1 102
Width: 0
VWidth: 0
Flags: W
HStem: 25 50<400 619>
VStem: 619 50<75 573>
AnchorPoint: "Above" 369 0 mark 0
LayerCount: 2
Back
SplineSet
644 548 m 29
 644 50 l 29
 425 50 l 1053
EndSplineSet
Fore
SplineSet
644 573 m 1
 669 573 l 1
 669 548 l 1
 669 50 l 2
 669 34.8674621445 654.729904333 25 644 25 c 2
 425 25 l 1
 400 25 l 1
 400 50 l 1
 400 75 l 1
 425 75 l 1
 619 75 l 1
 619 548 l 1
 619 573 l 1
 644 573 l 1
EndSplineSet
EndChar

StartChar: ly.ccv.2
Encoding: 153 -1 103
Width: 0
VWidth: 0
Flags: W
HStem: 25 50<401 619> 274 50<451 619> 523 50<451 669>
VStem: 401 50<324 523> 619 50<75 274>
CounterMasks: 1 e0
AnchorPoint: "Above" 369 0 mark 0
LayerCount: 2
Back
SplineSet
644 548 m 29
 426 548 l 29
 426 299 l 29
 644 299 l 29
 644 50 l 29
 426 50 l 1053
EndSplineSet
Fore
SplineSet
669 548 m 1
 669 523 l 1
 644 523 l 1
 451 523 l 1
 451 324 l 1
 644 324 l 2
 659.132537856 324 669 309.729904333 669 299 c 2
 669 50 l 2
 669 34.8674621445 654.729904333 25 644 25 c 2
 426 25 l 1
 401 25 l 1
 401 50 l 1
 401 75 l 1
 426 75 l 1
 619 75 l 1
 619 274 l 1
 426 274 l 2
 415.270095667 274 401 283.867462144 401 299 c 2
 401 548 l 2
 401 558.729904333 410.867462144 573 426 573 c 2
 644 573 l 1
 669 573 l 1
 669 548 l 1
EndSplineSet
EndChar

StartChar: eibu.ccv
Encoding: 122 -1 104
Width: 0
VWidth: 0
Flags: W
HStem: -110 50<75 510 560 663> -20 20G<663 713>
VStem: 25 50<-337 -110> 510 50<-225 -110 -60 56> 663 50<-176 -110 -60 0>
AnchorPoint: "Above" 535 2.13163e-14 mark 0
LayerCount: 2
Back
SplineSet
740 596 m 29
 820 596 l 1053
740 486 m 29
 820 486 l 1053
820 720 m 5
 820 350 l 1029
EndSplineSet
Fore
SplineSet
535 56 m 1
 560 56 l 1
 560 31 l 1
 560 -60 l 1
 663 -60 l 1
 663 -25 l 1
 663 0 l 1
 688 0 l 1
 713 0 l 1
 713 -25 l 1
 713 -60 l 1
 713 -85 l 1
 713 -110 l 1
 713 -151 l 1
 713 -176 l 1
 688 -176 l 1
 663 -176 l 1
 663 -151 l 1
 663 -110 l 1
 560 -110 l 1
 560 -200 l 1
 560 -225 l 1
 535 -225 l 1
 510 -225 l 1
 510 -200 l 1
 510 -110 l 1
 75 -110 l 1
 75 -312 l 1
 75 -337 l 1
 50 -337 l 1
 25 -337 l 1
 25 -312 l 1
 25 -85 l 2
 25 -74.2700956673 50 -60 50 -60 c 2
 510 -60 l 1
 510 31 l 1
 510 56 l 1
 535 56 l 1
EndSplineSet
EndChar

StartChar: obu.ccv
Encoding: 107 -1 105
Width: 0
VWidth: 0
Flags: W
HStem: -110 50<50 510 560 638>
VStem: 510 50<-190 -110 -60 56> 638 50<-273 -110>
AnchorPoint: "Above" 369 0 mark 0
LayerCount: 2
Back
SplineSet
820 545 m 1
 740 545 l 1025
740 730 m 1
 740 350 l 1025
EndSplineSet
Fore
SplineSet
50 -85 m 1
 50 -60 l 1
 75 -60 l 1
 510 -60 l 1
 510 31 l 1
 510 56 l 1
 535 56 l 1
 560 56 l 1
 560 31 l 1
 560 -60 l 1
 663 -60 l 2
 668.57716379 -60 688 -85 688 -85 c 1
 688 -248 l 1
 688 -273 l 1
 663 -273 l 1
 638 -273 l 1
 638 -248 l 1
 638 -110 l 1
 560 -110 l 1
 560 -165 l 1
 560 -190 l 1
 535 -190 l 1
 510 -190 l 1
 510 -165 l 1
 510 -110 l 1
 75 -110 l 1
 50 -110 l 1
 50 -85 l 1
EndSplineSet
EndChar

StartChar: oibu.ccv
Encoding: 123 -1 106
Width: 0
VWidth: 0
Flags: W
HStem: -110 50<75 510 560 663> -20 20G<25 75>
VStem: 25 50<-176 -110 -60 0> 510 50<-225 -110 -60 56> 663 50<-337 -110>
AnchorPoint: "Above" 535 2.13163e-14 mark 0
LayerCount: 2
Back
SplineSet
820 596 m 29
 740 596 l 1053
820 486 m 29
 740 486 l 1053
740 720 m 5
 740 350 l 1029
EndSplineSet
Fore
SplineSet
535 56 m 1
 560 56 l 1
 560 31 l 1
 560 -60 l 1
 688 -60 l 2
 703.127300046 -60 713 -74.2700956673 713 -85 c 2
 713 -312 l 1
 713 -337 l 1
 688 -337 l 1
 663 -337 l 1
 663 -312 l 1
 663 -110 l 1
 560 -110 l 1
 560 -200 l 1
 560 -225 l 1
 535 -225 l 1
 510 -225 l 1
 510 -200 l 1
 510 -110 l 1
 75 -110 l 1
 75 -151 l 1
 75 -176 l 1
 50 -176 l 1
 25 -176 l 1
 25 -151 l 1
 25 -110 l 1
 25 -85 l 1
 25 -60 l 1
 25 -16 l 1
 25 0 l 1
 50 0 l 1
 75 0 l 1
 75 -16 l 1
 75 -60 l 1
 510 -60 l 1
 510 31 l 1
 510 56 l 1
 535 56 l 1
EndSplineSet
EndChar

StartChar: ybu.ccv
Encoding: 111 -1 107
Width: 0
VWidth: 0
Flags: W
HStem: -110 50<50 510 560 688>
VStem: 510 50<-200 -110 -60 50>
AnchorPoint: "Above" 535 0 mark 0
LayerCount: 2
Back
SplineSet
740 720 m 5
 740 350 l 1029
820 720 m 5
 820 350 l 1029
EndSplineSet
Fore
SplineSet
688 -85 m 1
 688 -110 l 1
 560 -110 l 1
 560 -200 l 1
 535 -200 l 1
 510 -200 l 1
 510 -110 l 1
 50 -110 l 1
 50 -85 l 1
 50 -60 l 1
 510 -60 l 1
 510 50 l 1
 535 50 l 1
 560 50 l 1
 560 -60 l 1
 688 -60 l 1
 688 -85 l 1
EndSplineSet
EndChar

StartChar: ebu.cvc
Encoding: 74 -1 108
Width: 0
VWidth: 0
Flags: W
HStem: 93 50<75 344 394 713>
VStem: 25 50<-134 93> 344 50<3 93 143 224>
AnchorPoint: "Above" 369 -9.05942e-14 mark 0
LayerCount: 2
Back
SplineSet
369 199 m 5
 369 28 l 1053
688 118 m 5
 50 118 l 5
 50 -109 l 1029
EndSplineSet
Fore
SplineSet
713 118 m 1
 713 93 l 1
 688 93 l 1
 394 93 l 1
 394 28 l 1
 394 3 l 1
 369 3 l 1
 344 3 l 1
 344 28 l 1
 344 93 l 1
 75 93 l 1
 75 -109 l 1
 75 -134 l 1
 50 -134 l 1
 25 -134 l 1
 25 -109 l 1
 25 118 l 2
 25 128.729904333 34.8674621445 143 50 143 c 2
 344 143 l 1
 344 199 l 1
 344 224 l 1
 369 224 l 1
 394 224 l 1
 394 199 l 1
 394 143 l 1
 688 143 l 1
 713 143 l 1
 713 118 l 1
EndSplineSet
EndChar

StartChar: obu.cvc
Encoding: 75 -1 109
Width: 0
VWidth: 0
Flags: W
HStem: 93 50<25 344 394 663>
VStem: 344 50<3 93 143 224> 663 50<-134 93>
AnchorPoint: "Above" 369 -1 mark 0
LayerCount: 2
Back
SplineSet
713 118 m 5
 713 93 l 5
 688 93 l 5
 394 93 l 5
 394 28 l 5
 394 3 l 5
 369 3 l 5
 344 3 l 5
 344 28 l 5
 344 93 l 5
 75 93 l 5
 75 -109 l 5
 75 -134 l 5
 50 -134 l 5
 25 -134 l 5
 25 -109 l 5
 25 118 l 6
 25 128.729904333 34.8674621445 143 50 143 c 6
 344 143 l 5
 344 199 l 5
 344 224 l 5
 369 224 l 5
 394 224 l 5
 394 199 l 5
 394 143 l 5
 688 143 l 5
 713 143 l 5
 713 118 l 5
EndSplineSet
Fore
SplineSet
25 118 m 1
 25 143 l 1
 50 143 l 1
 344 143 l 1
 344 199 l 1
 344 224 l 1
 369 224 l 1
 394 224 l 1
 394 199 l 1
 394 143 l 1
 688 143 l 2
 703.1328125 143 713 128.729492188 713 118 c 2
 713 -109 l 1
 713 -134 l 1
 688 -134 l 1
 663 -134 l 1
 663 -109 l 1
 663 93 l 1
 394 93 l 1
 394 28 l 1
 394 3 l 1
 369 3 l 1
 344 3 l 1
 344 28 l 1
 344 93 l 1
 50 93 l 1
 25 93 l 1
 25 118 l 1
EndSplineSet
EndChar

StartChar: ibu.cvc
Encoding: 76 -1 110
Width: 0
VWidth: 0
Flags: W
HStem: 93 50<75 713>
VStem: 25 50<-134 93>
AnchorPoint: "Above" 369 0 mark 0
LayerCount: 2
Fore
SplineSet
713 118 m 1
 713 93 l 1
 688 93 l 1
 75 93 l 1
 75 -109 l 1
 75 -134 l 1
 50 -134 l 1
 25 -134 l 1
 25 -109 l 1
 25 118 l 2
 25 128.729492188 34.8671875 143 50 143 c 2
 688 143 l 1
 713 143 l 1
 713 118 l 1
EndSplineSet
EndChar

StartChar: ubu.cvc
Encoding: 77 -1 111
Width: 0
VWidth: 0
Flags: W
HStem: 93 50<25 663>
VStem: 663 50<-134 93>
AnchorPoint: "Above" 369 0 mark 0
LayerCount: 2
Fore
SplineSet
25 118 m 1
 25 143 l 1
 50 143 l 1
 688 143 l 2
 703.1328125 143 713 128.729492188 713 118 c 2
 713 -109 l 1
 713 -134 l 1
 688 -134 l 1
 663 -134 l 1
 663 -109 l 1
 663 93 l 1
 50 93 l 1
 25 93 l 1
 25 118 l 1
EndSplineSet
EndChar

StartChar: abu.cvc
Encoding: 78 -1 112
Width: 0
VWidth: 0
Flags: W
HStem: 93 50<25 713>
AnchorPoint: "Above" 369 0 mark 0
LayerCount: 2
Fore
SplineSet
25 118 m 1
 25 143 l 1
 50 143 l 1
 688 143 l 1
 713 143 l 1
 713 118 l 1
 713 93 l 1
 688 93 l 1
 50 93 l 1
 25 93 l 1
 25 118 l 1
EndSplineSet
EndChar

StartChar: ybu.cvc
Encoding: 79 -1 113
Width: 0
VWidth: 0
Flags: W
HStem: 93 50<50 344 394 688>
VStem: 344 50<3 93 143 253>
AnchorPoint: "Above" 369 0 mark 0
LayerCount: 2
Fore
SplineSet
688 118 m 1
 688 93 l 1
 394 93 l 1
 394 3 l 1
 369 3 l 1
 344 3 l 1
 344 93 l 1
 50 93 l 1
 50 118 l 1
 50 143 l 1
 344 143 l 1
 344 253 l 1
 369 253 l 1
 394 253 l 1
 394 143 l 1
 688 143 l 1
 688 118 l 1
EndSplineSet
EndChar

StartChar: eibu.cvc
Encoding: 90 -1 114
Width: 0
VWidth: 0
Flags: W
HStem: 93 50<75 344 394 663>
VStem: 25 50<-134 93> 344 50<-22 93 143 259> 663 50<27 93 143 203>
CounterMasks: 1 70
AnchorPoint: "Above" 369 0 mark 0
LayerCount: 2
Fore
SplineSet
369 259 m 1
 394 259 l 1
 394 234 l 1
 394 143 l 1
 663 143 l 1
 663 178 l 1
 663 203 l 1
 688 203 l 1
 713 203 l 1
 713 178 l 1
 713 143 l 1
 713 118 l 1
 713 93 l 1
 713 52 l 1
 713 27 l 1
 688 27 l 1
 663 27 l 1
 663 52 l 1
 663 93 l 1
 394 93 l 1
 394 3 l 1
 394 -22 l 1
 369 -22 l 1
 344 -22 l 1
 344 3 l 1
 344 93 l 1
 75 93 l 1
 75 -109 l 1
 75 -134 l 1
 50 -134 l 1
 25 -134 l 1
 25 -109 l 1
 25 118 l 2
 25 128.729492188 34.8671875 143 50 143 c 2
 344 143 l 1
 344 234 l 1
 344 259 l 1
 369 259 l 1
EndSplineSet
EndChar

StartChar: oibu.cvc
Encoding: 91 -1 115
Width: 0
VWidth: 0
Flags: W
HStem: 93 50<75 344 394 663>
VStem: 25 50<27 93 143 203> 344 50<-22 93 143 259> 663 50<-134 93>
CounterMasks: 1 70
AnchorPoint: "Above" 369 0 mark 0
LayerCount: 2
Fore
SplineSet
369 259 m 1
 394 259 l 1
 394 234 l 1
 394 143 l 1
 688 143 l 2
 703.1328125 143 713 128.729492188 713 118 c 2
 713 -109 l 1
 713 -134 l 1
 688 -134 l 1
 663 -134 l 1
 663 -109 l 1
 663 93 l 1
 394 93 l 1
 394 3 l 1
 394 -22 l 1
 369 -22 l 1
 344 -22 l 1
 344 3 l 1
 344 93 l 1
 75 93 l 1
 75 52 l 1
 75 27 l 1
 50 27 l 1
 25 27 l 1
 25 52 l 1
 25 93 l 1
 25 118 l 1
 25 143 l 1
 25 187 l 1
 25 203 l 1
 50 203 l 1
 75 203 l 1
 75 187 l 1
 75 143 l 1
 344 143 l 1
 344 234 l 1
 344 259 l 1
 369 259 l 1
EndSplineSet
EndChar

StartChar: aibu.cvc
Encoding: 92 -1 116
Width: 0
VWidth: 0
Flags: W
HStem: 93 50<75 663>
VStem: 25 50<-134 93> 663 50<27 93 143 203>
AnchorPoint: "Above" 369 -0 mark 0
LayerCount: 2
Fore
SplineSet
688 203 m 1
 713 203 l 1
 713 178 l 1
 713 143 l 1
 713 118 l 1
 713 93 l 1
 713 52 l 1
 713 27 l 1
 688 27 l 1
 663 27 l 1
 663 52 l 1
 663 93 l 1
 75 93 l 1
 75 -109 l 1
 75 -134 l 1
 50 -134 l 1
 25 -134 l 1
 25 -109 l 1
 25 118 l 2
 25 128.729492188 34.8671875 143 50 143 c 2
 663 143 l 1
 663 178 l 1
 663 203 l 1
 688 203 l 1
EndSplineSet
EndChar

StartChar: aubu.cvc
Encoding: 93 -1 117
Width: 0
VWidth: 0
Flags: W
HStem: 93 50<75 663>
VStem: 25 50<27 93 143 203> 663 50<-134 93>
AnchorPoint: "Above" 369 0 mark 0
LayerCount: 2
Fore
SplineSet
50 203 m 1
 75 203 l 1
 75 178 l 1
 75 143 l 1
 688 143 l 2
 703.1328125 143 713 128.729492188 713 118 c 2
 713 -109 l 1
 713 -134 l 1
 688 -134 l 1
 663 -134 l 1
 663 -109 l 1
 663 93 l 1
 75 93 l 1
 75 52 l 1
 75 27 l 1
 50 27 l 1
 25 27 l 1
 25 52 l 1
 25 93 l 1
 25 118 l 1
 25 143 l 1
 25 178 l 1
 25 203 l 1
 50 203 l 1
EndSplineSet
EndChar

StartChar: my.cvc.3
Encoding: 64 -1 118
Width: 0
VWidth: 0
Flags: W
HStem: -337 50<175 563> -178 50<175 563> -19 50<175 563>
VStem: 125 50<-287 -178 -128 -19> 563 50<-287 -178 -128 -19>
CounterMasks: 1 e0
AnchorPoint: "Above" 369 0 mark 0
LayerCount: 2
Back
SplineSet
150 6 m 5
 588 6 l 5
 588 -312 l 5
 150 -312 l 5
 150 6 l 5
150 -153 m 5
 588 -153 l 1029
EndSplineSet
Fore
SplineSet
563 -178 m 1
 175 -178 l 1
 175 -287 l 1
 563 -287 l 1
 563 -178 l 1
563 -128 m 1
 563 -19 l 1
 175 -19 l 1
 175 -128 l 1
 563 -128 l 1
150 31 m 2
 588 31 l 2
 603.132537856 31 613 16.7299043327 613 6 c 2
 613 -128 l 1
 613 -153 l 1
 613 -178 l 1
 613 -312 l 2
 613 -327.132537856 598.729904333 -337 588 -337 c 2
 150 -337 l 2
 134.867462144 -337 125 -322.729904333 125 -312 c 2
 125 -178 l 1
 125 -153 l 1
 125 -128 l 1
 125 6 l 2
 125 21.1325378555 139.270095667 31 150 31 c 2
EndSplineSet
EndChar

StartChar: ibu.ccv
Encoding: 108 -1 119
Width: 0
VWidth: 0
Flags: W
HStem: -110 50<75 713>
VStem: 25 50<-337 -110>
AnchorPoint: "Above" 369 0 mark 0
LayerCount: 2
Fore
SplineSet
713 -85 m 1
 713 -110 l 1
 688 -110 l 1
 75 -110 l 1
 75 -312 l 1
 75 -337 l 1
 50 -337 l 1
 25 -337 l 1
 25 -312 l 1
 25 -85 l 2
 25 -74.2700956673 34.8674621445 -60 50 -60 c 2
 688 -60 l 1
 713 -60 l 1
 713 -85 l 1
EndSplineSet
EndChar

StartChar: ubu.ccv
Encoding: 109 -1 120
Width: 0
VWidth: 0
Flags: W
HStem: -110 50<25 663>
VStem: 663 50<-337 -110>
AnchorPoint: "Above" 369 0 mark 0
LayerCount: 2
Fore
SplineSet
25 -85 m 1
 25 -60 l 1
 50 -60 l 1
 688 -60 l 2
 703.132537856 -60 713 -74.2700956673 713 -85 c 2
 713 -312 l 1
 713 -337 l 1
 688 -337 l 1
 663 -337 l 1
 663 -312 l 1
 663 -110 l 1
 50 -110 l 1
 25 -110 l 1
 25 -85 l 1
EndSplineSet
EndChar

StartChar: abu.ccv
Encoding: 110 -1 121
Width: 0
VWidth: 0
Flags: W
HStem: -110 50<25 713>
AnchorPoint: "Above" 369 0 mark 0
LayerCount: 2
Fore
SplineSet
25 -85 m 1
 25 -60 l 1
 50 -60 l 1
 688 -60 l 1
 713 -60 l 1
 713 -85 l 1
 713 -110 l 1
 688 -110 l 1
 50 -110 l 1
 25 -110 l 1
 25 -85 l 1
EndSplineSet
EndChar

StartChar: aibu.ccv
Encoding: 124 -1 122
Width: 0
VWidth: 0
Flags: W
HStem: -110 50<75 663> -20 20G<663 713>
VStem: 25 50<-337 -110> 663 50<-176 -110 -60 0>
AnchorPoint: "Above" 369 -0 mark 0
LayerCount: 2
Fore
SplineSet
688 0 m 1
 713 0 l 1
 713 -25 l 1
 713 -60 l 1
 713 -85 l 1
 713 -110 l 1
 713 -151 l 1
 713 -176 l 1
 688 -176 l 1
 663 -176 l 1
 663 -151 l 1
 663 -110 l 1
 75 -110 l 1
 75 -312 l 1
 75 -337 l 1
 50 -337 l 1
 25 -337 l 1
 25 -312 l 1
 25 -85 l 2
 25 -74.2700956673 34.8674621445 -60 50 -60 c 2
 663 -60 l 1
 663 -25 l 1
 663 0 l 1
 688 0 l 1
EndSplineSet
EndChar

StartChar: aubu.ccv
Encoding: 125 -1 123
Width: 0
VWidth: 0
Flags: W
HStem: -110 50<75 663> -20 20G<25 75>
VStem: 25 50<-176 -110 -60 0> 663 50<-337 -110>
AnchorPoint: "Above" 369 0 mark 0
LayerCount: 2
Fore
SplineSet
50 0 m 1
 75 0 l 1
 75 -25 l 1
 75 -60 l 1
 688 -60 l 2
 703.132537856 -60 713 -74.2700956673 713 -85 c 2
 713 -312 l 1
 713 -337 l 1
 688 -337 l 1
 663 -337 l 1
 663 -312 l 1
 663 -110 l 1
 75 -110 l 1
 75 -151 l 1
 75 -176 l 1
 50 -176 l 1
 25 -176 l 1
 25 -151 l 1
 25 -110 l 1
 25 -85 l 1
 25 -60 l 1
 25 -25 l 1
 25 0 l 1
 50 0 l 1
EndSplineSet
EndChar

StartChar: vy.cvc.3
Encoding: 68 -1 124
Width: 0
VWidth: 0
Flags: W
HStem: -178 50<220.607 563> -19 50<235.973 563>
VStem: 563 50<-337 -178 -128 -19>
AnchorPoint: "Above" 369 0 mark 0
LayerCount: 2
Back
SplineSet
207 -153 m 29
 585 -153 l 1053
588 -312 m 29
 588 6 l 29
 215 6 l 21
 204.505859375 -146.091796875 170.967773438 -210.2109375 110 -312 c 1037
EndSplineSet
Fore
SplineSet
588 -337 m 1
 563 -337 l 1
 563 -312 l 1
 563 -178 l 1
 207 -178 l 1
 205.551670802 -178 l 1
 187.32382678 -229.064011467 162.562089211 -272.897893379 131.447139073 -324.846019835 c 2
 118.601119238 -346.293158908 l 1
 97.153980165 -333.447139073 l 1
 75.7068410924 -320.601119238 l 1
 88.5528609274 -299.153980165 l 2
 149.248451009 -197.8193428 179.802990901 -140.924003519 190.059298658 7.72087668466 c 0
 190.839224283 19.024354875 201.206996459 31 215 31 c 2
 588 31 l 2
 598.729904333 31 613 21.1325378555 613 6 c 2
 613 -312 l 1
 613 -337 l 1
 588 -337 l 1
563 -128 m 1
 563 -19 l 1
 238.099179103 -19 l 1
 234.33100098 -60.8109220931 228.489799549 -96.2620868424 220.606737584 -128 c 1
 563 -128 l 1
EndSplineSet
EndChar

StartChar: py.cvc.3
Encoding: 65 -1 125
Width: 0
VWidth: 0
Flags: W
HStem: -337 50<175 613> -178 50<175 612> -19 50<175 613>
VStem: 125 50<-287 -178 -128 -19>
CounterMasks: 1 e0
AnchorPoint: "Above" 369 0 mark 0
LayerCount: 2
Back
SplineSet
150 -153 m 5
 587 -153 l 1029
588 -312 m 5
 150 -312 l 5
 150 6 l 5
 588 6 l 1029
EndSplineSet
Fore
SplineSet
613 -312 m 1
 613 -337 l 1
 588 -337 l 1
 150 -337 l 2
 134.867462144 -337 125 -322.729904333 125 -312 c 2
 125 -178 l 1
 125 -153 l 1
 125 -128 l 1
 125 6 l 2
 125 21.1325378555 139.270095667 31 150 31 c 2
 588 31 l 1
 613 31 l 1
 613 6 l 1
 613 -19 l 1
 588 -19 l 1
 175 -19 l 1
 175 -128 l 1
 587 -128 l 1
 612 -128 l 1
 612 -153 l 1
 612 -178 l 1
 587 -178 l 1
 175 -178 l 1
 175 -287 l 1
 588 -287 l 1
 613 -287 l 1
 613 -312 l 1
EndSplineSet
EndChar

StartChar: by.cvc.3
Encoding: 66 -1 126
Width: 0
VWidth: 0
Flags: W
HStem: -337 50<125 563> -178 50<126 563> -19 50<125 563>
VStem: 563 50<-287 -178 -128 -19>
CounterMasks: 1 e0
AnchorPoint: "Above" 369 0 mark 0
LayerCount: 2
Back
SplineSet
588 -153 m 5
 151 -153 l 1029
150 6 m 5
 588 6 l 5
 588 -312 l 5
 150 -312 l 1029
EndSplineSet
Fore
SplineSet
125 6 m 1
 125 31 l 1
 150 31 l 1
 588 31 l 2
 603.132537856 31 613 16.7299043327 613 6 c 2
 613 -128 l 1
 613 -153 l 1
 613 -178 l 1
 613 -312 l 2
 613 -327.132537856 598.729904333 -337 588 -337 c 2
 150 -337 l 1
 125 -337 l 1
 125 -312 l 1
 125 -287 l 1
 150 -287 l 1
 563 -287 l 1
 563 -178 l 1
 151 -178 l 1
 126 -178 l 1
 126 -153 l 1
 126 -128 l 1
 151 -128 l 1
 563 -128 l 1
 563 -19 l 1
 150 -19 l 1
 125 -19 l 1
 125 6 l 1
EndSplineSet
EndChar

StartChar: fy.cvc.3
Encoding: 67 -1 127
Width: 0
VWidth: 0
Flags: W
HStem: -337 50<175 502.027> -178 50<175 517.393>
VStem: 125 50<-287 -178 -128 31>
AnchorPoint: "Above" 369 0 mark 0
LayerCount: 2
Back
SplineSet
531 -153 m 29
 153 -153 l 1053
150 6 m 29
 150 -312 l 29
 523 -312 l 21
 533.494140625 -159.908203125 567.032226562 -95.7890625 628 6 c 1037
EndSplineSet
Fore
SplineSet
175 -178 m 1
 175 -287 l 1
 499.900820897 -287 l 1
 503.66899902 -245.189077907 509.510200451 -209.737913158 517.393262416 -178 c 1
 175 -178 l 1
150 31 m 1
 175 31 l 1
 175 6 l 1
 175 -128 l 1
 531 -128 l 1
 532.448329198 -128 l 1
 550.676173221 -76.9359885334 575.437910789 -33.1021066214 606.552860927 18.846019835 c 2
 619.398880762 40.2931589076 l 1
 640.846019835 27.4471390726 l 1
 662.293158908 14.6011192376 l 1
 649.447139073 -6.84601983499 l 2
 588.751548991 -108.1806572 558.197009099 -165.075996481 547.940701342 -313.720876685 c 0
 547.160775717 -325.024354875 536.793003541 -337 523 -337 c 2
 150 -337 l 2
 139.270095667 -337 125 -327.132537856 125 -312 c 2
 125 6 l 1
 125 31 l 1
 150 31 l 1
EndSplineSet
EndChar

StartChar: ky.cvc.3
Encoding: 69 -1 128
Width: 0
VWidth: 0
Flags: W
AnchorPoint: "Above" 369 0 mark 0
LayerCount: 2
Back
SplineSet
588 6 m 29
 150 -153 l 29
 588 -312 l 1053
EndSplineSet
Fore
SplineSet
611.499531469 14.5306518347 m 1
 620.030183304 -8.96887963453 l 1
 596.530651835 -17.4995314693 l 1
 223.265210222 -153 l 1
 596.530651835 -288.500468531 l 1
 620.030183304 -297.031120365 l 1
 611.499531469 -320.530651835 l 1
 602.968879635 -344.030183304 l 1
 579.469348165 -335.499531469 l 1
 141.469348165 -176.499531469 l 2
 135.419615489 -174.303395635 130.020853002 -169.458976641 127.242196106 -163.34806078 c 0
 121.293963599 -150.266507455 127.961437847 -134.404025016 141.469348165 -129.500468531 c 2
 579.469348165 29.4995314693 l 1
 602.968879635 38.030183304 l 1
 611.499531469 14.5306518347 l 1
EndSplineSet
EndChar

StartChar: cy.cvc.3
Encoding: 70 -1 129
Width: 0
VWidth: 0
Flags: W
HStem: -178 50<127 315.302 421.634 614>
VStem: 345.003 49.9931<-336.58 -227.42 -227.419 -178.995>
AnchorPoint: "Above" 369 0 mark 0
LayerCount: 2
Back
SplineSet
152 -153 m 5
 589 -153 l 1029
371 -252 m 5
 370 -312 l 1029
152 6 m 5
 224.552734375 -25.185546875 367.170898438 -53.1572265625 371 -252 c 5
 367.561523438 -60.875 498.807617188 -21.7822265625 590 6 c 1029
EndSplineSet
Fore
SplineSet
129.031877125 15.8724531709 m 1
 138.904330296 38.8405760456 l 1
 161.872453171 28.9681228747 l 2
 212.264115858 7.30813207787 318.045020375 -17.1249233687 368.790526961 -123.210146398 c 1
 414.256009839 -19.5017438447 515.865644989 9.54903397575 582.714233966 29.9147990437 c 2
 606.62903301 37.2005650774 l 1
 613.914799044 13.2857660337 l 1
 621.200565077 -10.62903301 l 1
 597.285766034 -17.9147990437 l 2
 533.499520275 -37.347605563 459.714834687 -58.5733653609 421.63383206 -128 c 1
 589 -128 l 1
 614 -128 l 1
 614 -153 l 1
 614 -178 l 1
 589 -178 l 1
 402.915662565 -178 l 1
 399.460292521 -192.87664722 397.200349347 -209.283046746 396.332333396 -227.418733575 c 1
 396.359268034 -227.418733575 396.386202672 -227.420080307 396.413137309 -227.420080307 c 2
 395.996528501 -252.416608808 l 1
 394.996528501 -312.416608808 l 1
 394.579919693 -337.413137309 l 1
 369.583391192 -336.996528501 l 1
 344.586862691 -336.579919693 l 1
 345.003471499 -311.583391192 l 1
 345.995876678 -252.039080429 l 2
 345.417817999 -223.629305445 341.930838379 -199.172864747 336.161505591 -178 c 1
 152 -178 l 1
 127 -178 l 1
 127 -153 l 1
 127 -128 l 1
 152 -128 l 1
 315.302347211 -128 l 1
 273.205807746 -57.3355053307 196.683454583 -40.418042898 142.127546829 -16.9681228747 c 1
 143.127546829 -16.9681228747 141.208821914 -16.5732247479 142.127546829 -16.9681228747 c 1
 119.159423954 -7.09566970378 l 1
 129.031877125 15.8724531709 l 1
EndSplineSet
EndChar

StartChar: xy.cvc.3
Encoding: 71 -1 130
Width: 0
VWidth: 0
Flags: WO
HStem: -18.093 48.186<516.358 605.545>
VStem: 344 50<-337 -118.446>
AnchorPoint: "Above" 369 0 mark 0
LayerCount: 2
Back
SplineSet
369 -212 m 5
 369 -312 l 1029
150 6 m 5
 226.69921875 -22.36328125 364.952148438 -31.1513671875 369 -212 c 5
 365.561523438 -38.25 496.807617188 -19.2568359375 588 6 c 1029
EndSplineSet
Fore
SplineSet
126.551919143 14.6710728345 m 1
 135.222991977 38.119153692 l 1
 158.671072835 29.4480808575 l 2
 210.2841108 10.3616398763 316.491233026 -1.78740201975 367.082455747 -96.0112993305 c 1
 414.504180994 -3.04953610039 516.941233941 12.2605487992 581.327149198 30.0930085745 c 1
 581.327149198 31.0930085745 580.363428855 29.8260945424 581.327149198 30.0930085745 c 1
 605.420157772 36.7658593767 l 1
 612.093008575 12.6728508022 l 1
 618.765859377 -11.4201577723 l 1
 594.672850802 -18.0930085745 l 2
 501.38188918 -43.9310713544 397.038535052 -56.9194975729 394 -198.777915104 c 2
 394 -212 l 1
 394 -312 l 1
 394 -337 l 1
 369 -337 l 1
 344 -337 l 1
 344 -312 l 1
 344 -212.284647794 l 2
 340.256805308 -50.8102607301 226.360372181 -48.8926096202 141.328927165 -17.4480808575 c 1
 141.328927165 -18.4480808575 140.391003931 -17.1012379441 141.328927165 -17.4480808575 c 1
 117.880846308 -8.77700802293 l 1
 126.551919143 14.6710728345 l 1
EndSplineSet
EndChar

StartChar: iy.cvc.3
Encoding: 72 -1 131
Width: 0
VWidth: 0
Flags: W
HStem: -337 50<175 613>
VStem: 125 50<-287 31>
AnchorPoint: "Above" 369 0 mark 0
LayerCount: 2
Back
SplineSet
150 6 m 29
 150 -312 l 29
 588 -312 l 1053
EndSplineSet
Fore
SplineSet
150 31 m 1
 175 31 l 1
 175 6 l 1
 175 -287 l 1
 588 -287 l 1
 613 -287 l 1
 613 -312 l 1
 613 -337 l 1
 588 -337 l 1
 150 -337 l 2
 139.270095667 -337 125 -327.132537856 125 -312 c 2
 125 6 l 1
 125 31 l 1
 150 31 l 1
EndSplineSet
EndChar

StartChar: ry.cvc.3
Encoding: 73 -1 132
Width: 0
VWidth: 0
Flags: W
AnchorPoint: "Above" 369 0 mark 0
LayerCount: 2
Back
SplineSet
150 -312 m 5
 588 6 l 1029
150 6 m 5
 588 -312 l 1029
EndSplineSet
Fore
SplineSet
129.769620673 20.6878096486 m 1
 144.457430321 40.9181889759 l 1
 164.687809649 26.2303793273 l 1
 163.878594476 26.8178917133 164.687809649 25.2303793273 164.687809649 26.2303793273 c 1
 369 -122.105868462 l 1
 573.312190351 26.2303793273 l 1
 593.542569679 40.9181889759 l 1
 608.230379327 20.6878096486 l 1
 622.918188976 0.457430321286 l 1
 602.687809649 -14.2303793273 l 1
 411.552294382 -153 l 1
 602.687809649 -291.769620673 l 1
 622.918188976 -306.457430321 l 1
 608.230379327 -326.687809649 l 1
 593.542569679 -346.918188976 l 1
 573.312190351 -332.230379327 l 1
 369 -183.894131538 l 1
 164.687809649 -332.230379327 l 1
 144.457430321 -346.918188976 l 1
 129.769620673 -326.687809649 l 1
 115.081811024 -306.457430321 l 1
 135.312190351 -291.769620673 l 1
 326.447705618 -153 l 1
 135.312190351 -14.2303793273 l 1
 135.312190351 -13.2303793273 134.502975178 -13.6428669414 135.312190351 -14.2303793273 c 1
 115.081811024 0.457430321286 l 1
 129.769620673 20.6878096486 l 1
EndSplineSet
EndChar

StartChar: ny.cvc.3
Encoding: 80 -1 133
Width: 0
VWidth: 0
Flags: W
HStem: -337 50<175 563> -19 50<175 563>
VStem: 125 50<-287 -19> 563 50<-287 -19>
AnchorPoint: "Above" 369 0 mark 0
LayerCount: 2
Back
SplineSet
150 6 m 5
 588 6 l 5
 588 -312 l 5
 150 -312 l 5
 150 6 l 5
EndSplineSet
Fore
SplineSet
150 31 m 2
 588 31 l 2
 603.132537856 31 613 16.7299043327 613 6 c 2
 613 -312 l 2
 613 -327.132537856 598.729904333 -337 588 -337 c 2
 150 -337 l 2
 134.867462144 -337 125 -322.729904333 125 -312 c 2
 125 6 l 2
 125 21.1325378555 139.270095667 31 150 31 c 2
175 -19 m 1
 175 -287 l 1
 563 -287 l 1
 563 -19 l 1
 175 -19 l 1
EndSplineSet
EndChar

StartChar: ty.cvc.3
Encoding: 81 -1 134
Width: 0
VWidth: 0
Flags: W
HStem: -337 50<175 613> -19 50<175 613>
VStem: 125 50<-287 -19>
AnchorPoint: "Above" 369 0 mark 0
LayerCount: 2
Back
SplineSet
588 6 m 29
 150 6 l 29
 150 -312 l 29
 588 -312 l 1053
EndSplineSet
Fore
SplineSet
613 6 m 1
 613 -19 l 1
 588 -19 l 1
 175 -19 l 1
 175 -287 l 1
 588 -287 l 1
 613 -287 l 1
 613 -312 l 1
 613 -337 l 1
 588 -337 l 1
 150 -337 l 2
 139.270095667 -337 125 -327.132537856 125 -312 c 2
 125 6 l 2
 125 16.7299043327 134.867462144 31 150 31 c 2
 588 31 l 1
 613 31 l 1
 613 6 l 1
EndSplineSet
EndChar

StartChar: dy.cvc.3
Encoding: 82 -1 135
Width: 0
VWidth: 0
Flags: W
HStem: -337 50<125 563> -19 50<125 563>
VStem: 563 50<-287 -19>
AnchorPoint: "Above" 369 0 mark 0
LayerCount: 2
Back
SplineSet
150 6 m 29
 588 6 l 29
 588 -312 l 29
 150 -312 l 1053
EndSplineSet
Fore
SplineSet
125 6 m 1
 125 31 l 1
 150 31 l 1
 588 31 l 2
 603.132537856 31 613 16.7299043327 613 6 c 2
 613 -312 l 2
 613 -327.132537856 598.729904333 -337 588 -337 c 2
 150 -337 l 1
 125 -337 l 1
 125 -312 l 1
 125 -287 l 1
 150 -287 l 1
 563 -287 l 1
 563 -19 l 1
 150 -19 l 1
 125 -19 l 1
 125 6 l 1
EndSplineSet
EndChar

StartChar: sy.cvc.3
Encoding: 83 -1 136
Width: 0
VWidth: 0
Flags: W
HStem: -337 50<175 501.831>
VStem: 125 50<-287 31>
AnchorPoint: "Above" 369 0 mark 0
LayerCount: 2
Back
SplineSet
150 6 m 5
 150 -312 l 5
 523 -312 l 5
 533.494140625 -159.908203125 567.032226562 -95.7890625 628 6 c 1029
EndSplineSet
Fore
SplineSet
150 31 m 1
 175 31 l 1
 175 6 l 1
 175 -287 l 1
 499.900820897 -287 l 1
 512.535818851 -146.804686015 548.478101938 -78.1129953814 606.552860927 18.846019835 c 2
 619.398880762 40.2931589076 l 1
 640.846019835 27.4471390726 l 1
 662.293158908 14.6011192376 l 1
 649.447139073 -6.84601983499 l 2
 588.751548991 -108.1806572 558.197009099 -165.075996481 547.940701342 -313.720876685 c 0
 547.160775717 -325.024354875 536.793003541 -337 523 -337 c 2
 150 -337 l 2
 139.270095667 -337 125 -327.132537856 125 -312 c 2
 125 6 l 1
 125 31 l 1
 150 31 l 1
EndSplineSet
EndChar

StartChar: zy.cvc.3
Encoding: 84 -1 137
Width: 0
VWidth: 0
Flags: W
HStem: -19 50<236.169 563>
VStem: 563 50<-337 -19>
AnchorPoint: "Above" 369 0 mark 0
LayerCount: 2
Back
SplineSet
588 -312 m 5
 588 6 l 5
 215 6 l 5
 204.505859375 -146.091796875 170.967773438 -210.2109375 110 -312 c 1029
EndSplineSet
Fore
SplineSet
588 -337 m 1
 563 -337 l 1
 563 -312 l 1
 563 -19 l 1
 238.099179103 -19 l 1
 225.464181149 -159.195313985 189.521898062 -227.887004619 131.447139073 -324.846019835 c 2
 118.601119238 -346.293158908 l 1
 97.153980165 -333.447139073 l 1
 75.7068410924 -320.601119238 l 1
 88.5528609274 -299.153980165 l 2
 149.248451009 -197.8193428 179.802990901 -140.924003519 190.059298658 7.72087668466 c 0
 190.839224283 19.024354875 201.206996459 31 215 31 c 2
 588 31 l 2
 598.729904333 31 613 21.1325378555 613 6 c 2
 613 -312 l 1
 613 -337 l 1
 588 -337 l 1
EndSplineSet
EndChar

StartChar: gy.cvc.3
Encoding: 85 -1 138
Width: 0
VWidth: 0
Flags: W
AnchorPoint: "Above" 369 0 mark 0
LayerCount: 2
Back
SplineSet
150 6 m 29
 588 -153 l 29
 150 -312 l 1053
EndSplineSet
Fore
SplineSet
126.500468531 14.5306518347 m 1
 135.031120365 38.030183304 l 1
 158.530651835 29.4995314693 l 1
 596.530651835 -129.500468531 l 2
 610.038562153 -134.404025016 616.706036401 -150.266507455 610.757803894 -163.34806078 c 0
 607.815603628 -169.818646728 600.365994888 -175.107249402 596.530651835 -176.499531469 c 2
 158.530651835 -335.499531469 l 1
 135.031120365 -344.030183304 l 1
 126.500468531 -320.530651835 l 1
 117.969816696 -297.031120365 l 1
 141.469348165 -288.500468531 l 1
 514.734789778 -153 l 1
 141.469348165 -17.4995314693 l 1
 142.469348165 -17.4995314693 140.529366906 -17.1583053959 141.469348165 -17.4995314693 c 1
 117.969816696 -8.96887963453 l 1
 126.500468531 14.5306518347 l 1
EndSplineSet
EndChar

StartChar: jy.cvc.3
Encoding: 86 -1 139
Width: 0
VWidth: 0
Flags: W
HStem: -176.996 50<126.36 318.727 425.058 613.36>
VStem: 345.363 49.9932<-126.001 -77.5781 -77.5762 31.584>
AnchorPoint: "Above" 369 0 mark 0
LayerCount: 2
Back
SplineSet
590 -153 m 5
 153 -153 l 1029
371 -54 m 5
 372 6 l 1029
590 -312 m 5
 517.447265625 -280.814453125 374.829101562 -252.842773438 371 -54 c 5
 374.438476562 -245.125 243.192382812 -284.217773438 152 -312 c 1029
EndSplineSet
Fore
SplineSet
611.328125 -320.869140625 m 1
 601.456054688 -343.836914062 l 1
 578.487304688 -333.96484375 l 2
 528.095114294 -312.306057496 422.315429688 -287.87109375 371.569335938 -181.786132812 c 1
 326.103515625 -285.495117188 224.493760108 -314.544649478 157.645507812 -334.911132812 c 2
 133.73046875 -342.197265625 l 1
 126.4453125 -318.282226562 l 1
 119.159179688 -294.3671875 l 1
 143.07421875 -287.08203125 l 2
 206.861088346 -267.650856144 280.645507812 -246.422851562 318.7265625 -176.99609375 c 1
 151.360351562 -176.99609375 l 1
 126.360351562 -176.99609375 l 1
 126.360351562 -151.99609375 l 1
 126.360351562 -126.99609375 l 1
 151.360351562 -126.99609375 l 1
 337.444335938 -126.99609375 l 1
 340.899414062 -112.120117188 343.159179688 -95.712890625 344.02734375 -77.578125 c 1
 344.000976562 -77.578125 343.947265625 -77.576171875 343.947265625 -77.576171875 c 2
 344.36328125 -52.580078125 l 1
 345.36328125 7.419921875 l 1
 345.780273438 32.4169921875 l 1
 370.776367188 32 l 1
 395.7734375 31.583984375 l 1
 395.356445312 6.5869140625 l 1
 394.364257812 -52.95703125 l 2
 393.891148049 -81.3496706561 398.428710938 -105.823242188 404.198242188 -126.99609375 c 1
 588.360351562 -126.99609375 l 1
 613.360351562 -126.99609375 l 1
 613.360351562 -151.99609375 l 1
 613.360351562 -176.99609375 l 1
 588.360351562 -176.99609375 l 1
 425.057617188 -176.99609375 l 1
 467.154296875 -247.661132812 543.676757812 -264.578125 598.232421875 -288.028320312 c 1
 597.232421875 -288.028320312 599.151367188 -288.422851562 598.232421875 -288.028320312 c 1
 621.200195312 -297.900390625 l 1
 611.328125 -320.869140625 l 1
EndSplineSet
EndChar

StartChar: yhy.cvc.3
Encoding: 87 -1 140
Width: 0
VWidth: 0
Flags: W
HStem: -337 50<175 563> -19 50<175 563>
VStem: 125 50<-287 -19> 563 50<-287 -19>
AnchorPoint: "Above" 369 0 mark 0
LayerCount: 2
Fore
SplineSet
150 31 m 2
 588 31 l 2
 603.132537856 31 613 16.7299043327 613 6 c 2
 613 -312 l 2
 613 -327.132537856 598.729904333 -337 588 -337 c 2
 150 -337 l 2
 134.867462144 -337 125 -322.729904333 125 -312 c 2
 125 6 l 2
 125 21.1325378555 139.270095667 31 150 31 c 2
175 -19 m 1
 175 -287 l 1
 563 -287 l 1
 563 -19 l 1
 175 -19 l 1
EndSplineSet
EndChar

StartChar: uy.cvc.3
Encoding: 88 -1 141
Width: 0
VWidth: 0
Flags: W
HStem: -337 50<125 563>
VStem: 563 50<-287 31>
AnchorPoint: "Above" 369 0 mark 0
LayerCount: 2
Back
SplineSet
588 6 m 29
 588 -312 l 29
 150 -312 l 1053
EndSplineSet
Fore
SplineSet
588 31 m 1
 613 31 l 1
 613 6 l 1
 613 -312 l 2
 613 -327.132537856 598.729904333 -337 588 -337 c 2
 150 -337 l 1
 125 -337 l 1
 125 -312 l 1
 125 -287 l 1
 150 -287 l 1
 563 -287 l 1
 563 6 l 1
 563 31 l 1
 588 31 l 1
EndSplineSet
EndChar

StartChar: ly.cvc.3
Encoding: 89 -1 142
Width: 0
VWidth: 0
Flags: W
HStem: -337 50<125 562.842> -178 50<175 562.157> -19 50<175 613>
VStem: 125 50<-128 -19> 562.842 50.1572<-287 -178>
CounterMasks: 1 e0
AnchorPoint: "Above" 369 0 mark 0
LayerCount: 2
Back
SplineSet
588 6 m 29
 150 6 l 29
 150 -153 l 29
 587 -153 l 29
 588 -312 l 29
 150 -312 l 1053
EndSplineSet
Fore
SplineSet
613 6 m 1
 613 -19 l 1
 588 -19 l 1
 175 -19 l 1
 175 -128 l 1
 587 -128 l 2
 601.259219486 -128 611.922551634 -140.607094237 611.999505572 -152.842770405 c 2
 612.999505572 -311.842770405 l 2
 613.094353306 -326.92356013 599.020816533 -337 588 -337 c 2
 150 -337 l 1
 125 -337 l 1
 125 -312 l 1
 125 -287 l 1
 150 -287 l 1
 562.842272858 -287 l 1
 562.156738267 -178 l 1
 150 -178 l 2
 139.270095667 -178 125 -168.132537856 125 -153 c 2
 125 6 l 2
 125 16.7299043327 134.867462144 31 150 31 c 2
 588 31 l 1
 613 31 l 1
 613 6 l 1
EndSplineSet
EndChar
